0
SECTION
2
HEADER
9
$INSUNITS
70
1
0
ENDSEC
0
SECTION
2
TABLES
0
TABLE
2
LAYER
0
ENDTAB
0
ENDSEC
0
SECTION
2
ENTITIES
0
LINE
8
front_outsideCutPath
10
8.2
20
3.1171573
11
8.2
21
7.8
0
LINE
8
front_outsideCutPath
10
8.2
20
7.8
11
17.4
21
7.8
0
LINE
8
front_outsideCutPath
10
17.4
20
7.8
11
17.4
21
3.1171573
0
LINE
8
front_outsideCutPath
10
17.4
20
3.1171573
11
17.5171573
21
3
0
LINE
8
front_outsideCutPath
10
17.5171573
20
3
11
27.2828427
21
3
0
LINE
8
front_outsideCutPath
10
27.2828427
20
3
11
27.4
21
3.1171573
0
LINE
8
front_outsideCutPath
10
27.4
20
3.1171573
11
27.4
21
7.8
0
LINE
8
front_outsideCutPath
10
27.4
20
7.8
11
36.6
21
7.8
0
LINE
8
front_outsideCutPath
10
36.6
20
7.8
11
36.6
21
3.1171573
0
LINE
8
front_outsideCutPath
10
36.6
20
3.1171573
11
36.7171573
21
3
0
LINE
8
front_outsideCutPath
10
36.7171573
20
3
11
46.4828427
21
3
0
LINE
8
front_outsideCutPath
10
46.4828427
20
3
11
46.6
21
3.1171573
0
LINE
8
front_outsideCutPath
10
46.6
20
3.1171573
11
46.6
21
7.8
0
LINE
8
front_outsideCutPath
10
46.6
20
7.8
11
55.8
21
7.8
0
LINE
8
front_outsideCutPath
10
55.8
20
7.8
11
55.8
21
3.1171573
0
LINE
8
front_outsideCutPath
10
55.8
20
3.1171573
11
55.9171573
21
3
0
LINE
8
front_outsideCutPath
10
55.9171573
20
3
11
63.8828427
21
3
0
LINE
8
front_outsideCutPath
10
63.8828427
20
3
11
64
21
3.1171573
0
LINE
8
front_outsideCutPath
10
64
20
3.1171573
11
64
21
22.2828427
0
LINE
8
front_outsideCutPath
10
64
20
22.2828427
11
63.8828427
21
22.4
0
LINE
8
front_outsideCutPath
10
63.8828427
20
22.4
11
0.1171573
21
22.4
0
LINE
8
front_outsideCutPath
10
0.1171573
20
22.4
11
0
21
22.2828427
0
LINE
8
front_outsideCutPath
10
0
20
22.2828427
11
0
21
3.1171573
0
LINE
8
front_outsideCutPath
10
0
20
3.1171573
11
0.1171573
21
3
0
LINE
8
front_outsideCutPath
10
0.1171573
20
3
11
8.0828427
21
3
0
LINE
8
front_outsideCutPath
10
8.0828427
20
3
11
8.2
21
3.1171573
0
LINE
8
front_labelLayer
10
28.7859277
20
13.3110274
11
28.7859277
21
13.0666329
0
LINE
8
front_labelLayer
10
28.7859277
20
13.0666329
11
28.2573535
21
13.0666329
0
LINE
8
front_labelLayer
10
28.2573535
20
13.0666329
11
28.2573535
21
11.2346212
0
LINE
8
front_labelLayer
10
28.2573535
20
11.2346212
11
27.9428613
21
11.2346212
0
LINE
8
front_labelLayer
10
27.9428613
20
11.2346212
11
27.9428613
21
13.0666329
0
LINE
8
front_labelLayer
10
27.9428613
20
13.0666329
11
27.5715332
21
13.0666329
0
LINE
8
front_labelLayer
10
27.5715332
20
13.0666329
11
27.5715332
21
13.2087227
0
LINE
8
front_labelLayer
10
27.5715332
20
13.2087227
11
27.9428613
21
13.3223946
0
LINE
8
front_labelLayer
10
27.9428613
20
13.3223946
11
27.9428613
21
13.437961
0
LINE
8
front_labelLayer
10
28.9981152
20
14.137043
11
28.9166504
21
13.8850704
0
LINE
8
front_labelLayer
10
28.2573535
20
13.4455391
11
28.2573535
21
13.3110274
0
LINE
8
front_labelLayer
10
28.2573535
20
13.3110274
11
28.7859277
21
13.3110274
0
ARC
8
front_labelLayer
10
29.2173993
20
13.4526128
40
1.2746222
50
167.5776672
51
180.6586298
0
ARC
8
front_labelLayer
10
28.6180235
20
13.5923509
40
0.6592617
50
141.7433612
51
168.2322171
0
ARC
8
front_labelLayer
10
28.520436
20
13.643284
40
0.5514732
50
98.2551792
51
139.6203138
0
ARC
8
front_labelLayer
10
28.606121
20
13.2474447
40
0.9559228
50
89.669753
51
99.93138
0
ARC
8
front_labelLayer
10
28.6063604
20
13.1906361
40
1.0127292
50
81.5641007
51
89.7018223
0
ARC
8
front_labelLayer
10
28.5351539
20
12.6938794
40
1.5145594
50
75.9740362
51
81.656386
0
ARC
8
front_labelLayer
10
28.412963
20
12.1870755
40
2.0358724
50
73.2963899
51
76.0945426
0
ARC
8
front_labelLayer
10
28.4437367
20
12.4329225
40
1.5272134
50
71.9613855
51
76.5917328
0
ARC
8
front_labelLayer
10
28.5622371
20
12.9356105
40
1.0107494
50
76.5182071
51
83.021818
0
ARC
8
front_labelLayer
10
28.6035001
20
13.2674463
40
0.6763589
50
83.0762137
51
89.7926949
0
ARC
8
front_labelLayer
10
28.6021418
20
13.5196878
40
0.4241301
50
89.485918
51
103.4196384
0
ARC
8
front_labelLayer
10
28.5639037
20
13.6665979
40
0.2723744
50
102.76772
51
144.338049
0
ARC
8
front_labelLayer
10
28.6409349
20
13.6170351
40
0.3638848
50
145.0688258
51
162.1802929
0
ARC
8
front_labelLayer
10
28.9050564
20
13.5281709
40
0.6425405
50
161.8437891
51
171.7847926
0
ARC
8
front_labelLayer
10
29.3358277
20
13.463467
40
1.07814
50
171.6526605
51
178.4383699
0
ARC
8
front_labelLayer
10
29.7420656
20
13.4461457
40
1.4847121
50
178.1974125
51
180.0234089
0
LINE
8
front_labelLayer
10
30.3602832
20
13.3261837
11
30.316709
21
13.0344258
0
LINE
8
front_labelLayer
10
29.4793262
20
12.3486055
11
29.4793262
21
11.2346212
0
LINE
8
front_labelLayer
10
29.4793262
20
11.2346212
11
29.164834
21
11.2346212
0
LINE
8
front_labelLayer
10
29.164834
20
11.2346212
11
29.164834
21
13.3110274
0
LINE
8
front_labelLayer
10
29.164834
20
13.3110274
11
29.4243848
21
13.3110274
0
LINE
8
front_labelLayer
10
29.4243848
20
13.3110274
11
29.4603808
21
12.9264376
0
LINE
8
front_labelLayer
10
29.4603808
20
12.9264376
11
29.4755371
21
12.9264376
0
ARC
8
front_labelLayer
10
30.1153297
20
11.9051929
40
1.4437288
50
84.9921798
51
90.1281883
0
ARC
8
front_labelLayer
10
30.1500042
20
12.2936332
40
1.0537447
50
78.4891183
51
85.0266826
0
ARC
8
front_labelLayer
10
30.0154189
20
11.6814846
40
1.3860828
50
77.4455077
51
81.6360666
0
ARC
8
front_labelLayer
10
30.0758139
20
12.0977787
40
0.9654319
50
81.5884976
51
87.1917913
0
ARC
8
front_labelLayer
10
30.0889227
20
12.3251273
40
0.7377168
50
87.3435935
51
89.9656284
0
ARC
8
front_labelLayer
10
30.0858799
20
12.5179332
40
0.5449218
50
89.6335339
51
137.0880832
0
ARC
8
front_labelLayer
10
30.2196143
20
12.3675445
40
0.7455091
50
135.6208698
51
138.8376811
0
ARC
8
front_labelLayer
10
30.2000179
20
12.3866731
40
0.7181672
50
138.9575642
51
174.5421906
0
ARC
8
front_labelLayer
10
30.4339312
20
12.3500745
40
0.9546062
50
173.6908007
51
180.0881695
0
ARC
8
front_labelLayer
10
30.4008344
20
12.4051308
40
1.0620433
50
139.4139262
51
150.6033592
0
ARC
8
front_labelLayer
10
30.2104145
20
12.5683009
40
0.8112758
50
124.2321678
51
139.4161109
0
ARC
8
front_labelLayer
10
30.1085948
20
12.7219974
40
0.6269307
50
89.6796873
51
124.4405961
0
ARC
8
front_labelLayer
10
30.9164377
20
12.2637683
40
1.6244878
50
349.1762028
51
0.3862269
0
ARC
8
front_labelLayer
10
31.4633663
20
12.1547382
40
1.0668239
50
330.2507177
51
349.4116057
0
ARC
8
front_labelLayer
10
31.6316913
20
12.0672473
40
0.8773024
50
318.1439659
51
329.7567298
0
ARC
8
front_labelLayer
10
31.6620636
20
12.0429074
40
0.838442
50
278.8958981
51
317.9979102
0
ARC
8
front_labelLayer
10
31.5837881
20
12.4179277
40
1.2212089
50
269.750339
51
279.8033582
0
ARC
8
front_labelLayer
10
31.5710941
20
12.2066254
40
1.0099217
50
253.5437109
51
270.4182794
0
ARC
8
front_labelLayer
10
31.537476
20
12.0765804
40
0.8756924
50
238.8115123
51
253.2428218
0
ARC
8
front_labelLayer
10
31.5266256
20
12.0547624
40
0.8514114
50
207.7946766
51
238.6758175
0
ARC
8
front_labelLayer
10
31.6821788
20
12.1500468
40
1.0335159
50
205.6558877
51
208.4464028
0
ARC
8
front_labelLayer
10
31.8022301
20
12.2000797
40
1.1634142
50
188.9102618
51
205.3171652
0
ARC
8
front_labelLayer
10
32.2063494
20
12.2685249
40
1.5732659
50
179.7744278
51
189.0933113
0
ARC
8
front_labelLayer
10
32.2659714
20
12.2857798
40
1.6329132
50
169.244302
51
180.3881125
0
ARC
8
front_labelLayer
10
31.7114488
20
12.3953888
40
1.0676852
50
150.7111341
51
169.4695461
0
ARC
8
front_labelLayer
10
31.5344275
20
12.4862958
40
0.8688515
50
138.1759273
51
150.2287286
0
ARC
8
front_labelLayer
10
31.5049814
20
12.5088922
40
0.8318448
50
99.1759185
51
137.983257
0
ARC
8
front_labelLayer
10
31.5860287
20
12.1274688
40
1.2214625
50
89.7326377
51
100.0759276
0
ARC
8
front_labelLayer
10
31.6022266
20
12.2921916
40
1.0567786
50
73.5223222
51
90.569191
0
ARC
8
front_labelLayer
10
31.6642003
20
12.5173628
40
0.8232888
50
41.1445499
51
73.2133545
0
ARC
8
front_labelLayer
10
31.545898
20
12.4156835
40
0.9792786
50
13.5014357
51
41.070333
0
ARC
8
front_labelLayer
10
31.0888424
20
12.2960776
40
1.451659
50
1.1277001
51
13.8800194
0
ARC
8
front_labelLayer
10
30.6952278
20
12.2749869
40
1.8456607
50
359.9916763
51
1.5418213
0
ARC
8
front_labelLayer
10
32.5515323
20
12.2665472
40
1.5925982
50
179.7060127
51
187.9160458
0
ARC
8
front_labelLayer
10
31.9673956
20
12.1826363
40
1.002475
50
187.763855
51
200.0977573
0
ARC
8
front_labelLayer
10
31.6456226
20
12.0647371
40
0.6597827
50
200.0846053
51
216.913187
0
ARC
8
front_labelLayer
10
31.5281196
20
11.9808347
40
0.5154533
50
217.3010021
51
261.7098613
0
ARC
8
front_labelLayer
10
31.5826696
20
12.241139
40
0.7810761
50
260.5032468
51
270.2475932
0
ARC
8
front_labelLayer
10
31.5930804
20
12.1905241
40
0.7304876
50
269.4481636
51
284.7255067
0
ARC
8
front_labelLayer
10
31.6509081
20
11.9760559
40
0.5083664
50
284.5662603
51
322.6333471
0
ARC
8
front_labelLayer
10
31.5157066
20
12.0737337
40
0.6751166
50
323.0088431
51
342.6390654
0
ARC
8
front_labelLayer
10
31.1289779
20
12.2001269
40
1.0819545
50
342.3616158
51
353.7537013
0
ARC
8
front_labelLayer
10
30.558447
20
12.2688953
40
1.6565925
50
353.5363297
51
0.2014166
0
ARC
8
front_labelLayer
10
30.6458581
20
12.2827278
40
1.5691916
50
359.7075673
51
7.8972279
0
ARC
8
front_labelLayer
10
31.2205574
20
12.3651164
40
0.9886263
50
7.7439091
51
20.0690899
0
ARC
8
front_labelLayer
10
31.54078
20
12.482628
40
0.6475235
50
20.0256486
51
37.4350309
0
ARC
8
front_labelLayer
10
31.6470298
20
12.5580209
40
0.5173494
50
37.9577711
51
80.4006115
0
ARC
8
front_labelLayer
10
31.5866519
20
12.2886144
40
0.7931867
50
79.3454326
51
90.3175486
0
ARC
8
front_labelLayer
10
31.575471
20
12.3333682
40
0.7484517
50
89.4805978
51
103.8805668
0
ARC
8
front_labelLayer
10
31.5125812
20
12.572848
40
0.500891
50
103.4685007
51
142.3118664
0
ARC
8
front_labelLayer
10
31.6348409
20
12.4868665
40
0.6502417
50
142.9025559
51
162.3750404
0
ARC
8
front_labelLayer
10
32.0201072
20
12.3584783
40
1.0563126
50
162.0653951
51
173.1674074
0
ARC
8
front_labelLayer
10
32.6208231
20
12.2818637
40
1.6618834
50
173.0086789
51
180.2463317
0
LINE
8
front_labelLayer
10
34.8275879
20
11.2346212
11
34.5130957
21
11.2346212
0
LINE
8
front_labelLayer
10
34.5130957
20
11.2346212
11
34.5130957
21
12.5778438
0
LINE
8
front_labelLayer
10
33.4066894
20
12.3239766
11
33.4066894
21
11.2346212
0
LINE
8
front_labelLayer
10
33.4066894
20
11.2346212
11
33.0921973
21
11.2346212
0
LINE
8
front_labelLayer
10
33.0921973
20
11.2346212
11
33.0921973
21
13.3110274
0
LINE
8
front_labelLayer
10
33.0921973
20
13.3110274
11
33.347959
21
13.3110274
0
LINE
8
front_labelLayer
10
33.347959
20
13.3110274
11
33.3991113
21
13.0268477
0
LINE
8
front_labelLayer
10
33.3991113
20
13.0268477
11
33.4142676
21
13.0268477
0
LINE
8
front_labelLayer
10
34.8275879
20
12.589211
11
34.8275879
21
11.2346212
0
ARC
8
front_labelLayer
10
33.6241015
20
12.5829409
40
0.8890088
50
359.6714985
51
8.6876233
0
ARC
8
front_labelLayer
10
33.953606
20
12.6351962
40
0.555395
50
8.4931634
51
22.6580362
0
ARC
8
front_labelLayer
10
34.1210064
20
12.704763
40
0.3741154
50
22.7024484
51
42.3419804
0
ARC
8
front_labelLayer
10
34.139822
20
12.7132261
40
0.3545659
50
43.3791411
51
71.5385394
0
ARC
8
front_labelLayer
10
34.0694561
20
12.5166024
40
0.5633711
50
71.0828568
51
84.368993
0
ARC
8
front_labelLayer
10
34.037872
20
12.2480643
40
0.8337278
50
84.0197224
51
90.151064
0
ARC
8
front_labelLayer
10
34.0289187
20
12.1299804
40
0.9518327
50
89.5933729
51
100.3717434
0
ARC
8
front_labelLayer
10
33.9616529
20
12.4829047
40
0.5925708
50
100.1176118
51
118.160216
0
ARC
8
front_labelLayer
10
33.8938667
20
12.615828
40
0.4434003
50
118.5438924
51
139.1926784
0
ARC
8
front_labelLayer
10
33.9529741
20
12.5761663
40
0.5141309
50
140.1519414
51
160.3146178
0
ARC
8
front_labelLayer
10
34.3098875
20
12.4424825
40
0.895235
50
159.9534732
51
171.3801868
0
ARC
8
front_labelLayer
10
34.8929178
20
12.3487617
40
1.4857358
50
171.1765986
51
178.3217984
0
ARC
8
front_labelLayer
10
35.4215813
20
12.3248084
40
2.0148919
50
178.0812102
51
180.0236521
0
ARC
8
front_labelLayer
10
33.9522545
20
12.6861225
40
0.6368074
50
116.9442817
51
147.6525397
0
ARC
8
front_labelLayer
10
34.018413
20
12.5755075
40
0.7654441
50
115.8068472
51
117.6070873
0
ARC
8
front_labelLayer
10
34.0524239
20
12.4962496
40
0.8516125
50
94.3226638
51
115.5454565
0
ARC
8
front_labelLayer
10
34.0728074
20
12.3191356
40
1.0297826
50
89.9578814
51
94.7107996
0
ARC
8
front_labelLayer
10
34.0812335
20
12.1072793
40
1.2416624
50
80.5585438
51
90.3538855
0
ARC
8
front_labelLayer
10
34.1588259
20
12.5567324
40
0.7855744
50
65.1095176
51
80.7637232
0
ARC
8
front_labelLayer
10
34.249535
20
12.757654
40
0.5651421
50
46.5584525
51
64.8782182
0
ARC
8
front_labelLayer
10
34.2567934
20
12.778582
40
0.5450321
50
19.3849207
51
45.5996517
0
ARC
8
front_labelLayer
10
33.9414776
20
12.6602706
40
0.8817692
50
6.9633576
51
19.8363269
0
ARC
8
front_labelLayer
10
33.4551697
20
12.5948858
40
1.3724299
50
359.7630877
51
7.2115561
0
LINE
8
front_labelLayer
10
36.4284668
20
11.4941719
11
36.4284668
21
11.2535665
0
LINE
8
front_labelLayer
10
35.4963574
20
11.8313985
11
35.4963574
21
13.0666329
0
LINE
8
front_labelLayer
10
35.4963574
20
13.0666329
11
35.198916
21
13.0666329
0
LINE
8
front_labelLayer
10
35.198916
20
13.0666329
11
35.198916
21
13.2181954
0
LINE
8
front_labelLayer
10
35.198916
20
13.2181954
11
35.4963574
21
13.348918
0
LINE
8
front_labelLayer
10
35.4963574
20
13.348918
11
35.6289746
21
13.7922383
0
LINE
8
front_labelLayer
10
35.6289746
20
13.7922383
11
35.8108496
21
13.7922383
0
LINE
8
front_labelLayer
10
35.8108496
20
13.7922383
11
35.8108496
21
13.3110274
0
LINE
8
front_labelLayer
10
35.8108496
20
13.3110274
11
36.4133105
21
13.3110274
0
LINE
8
front_labelLayer
10
36.4133105
20
13.3110274
11
36.4133105
21
13.0666329
0
LINE
8
front_labelLayer
10
36.4133105
20
13.0666329
11
35.8108496
21
13.0666329
0
LINE
8
front_labelLayer
10
35.8108496
20
13.0666329
11
35.8108496
21
11.8446602
0
ARC
8
front_labelLayer
10
36.1464438
20
12.4891218
40
1.0328427
50
269.8803596
51
278.3027776
0
ARC
8
front_labelLayer
10
36.1560678
20
12.4101328
40
0.9532937
50
278.4159628
51
279.0076949
0
ARC
8
front_labelLayer
10
36.040338
20
13.1494124
40
1.7015761
50
278.9590613
51
280.5102323
0
ARC
8
front_labelLayer
10
36.1508538
20
12.5563809
40
1.098335
50
280.4848775
51
282.6271989
0
ARC
8
front_labelLayer
10
36.2476944
20
12.1261793
40
0.657369
50
282.5876736
51
285.5795497
0
ARC
8
front_labelLayer
10
36.2965442
20
11.9465499
40
0.4712211
50
285.7241402
51
286.2577539
0
ARC
8
front_labelLayer
10
36.2962352
20
11.5332462
40
0.3093637
50
287.9892804
51
295.3046276
0
ARC
8
front_labelLayer
10
36.2216329
20
11.7589564
40
0.5470814
50
283.3071231
51
288.1198968
0
ARC
8
front_labelLayer
10
36.1428219
20
12.0877058
40
0.8851444
50
280.0070009
51
283.3735678
0
ARC
8
front_labelLayer
10
36.0899808
20
12.3745361
40
1.1767952
50
279.1863548
51
280.1138757
0
ARC
8
front_labelLayer
10
36.0577135
20
12.5580112
40
1.3630709
50
275.5260988
51
279.2940636
0
ARC
8
front_labelLayer
10
36.0941905
20
12.1770329
40
0.9803504
50
270.8932662
51
275.5483277
0
ARC
8
front_labelLayer
10
36.0987586
20
12.0053286
40
0.808598
50
270.0042318
51
270.7592942
0
ARC
8
front_labelLayer
10
36.0861271
20
12.0180379
40
0.8214055
50
253.7847889
51
270.8852925
0
ARC
8
front_labelLayer
10
35.9888126
20
11.686159
40
0.4755547
50
190.3817632
51
253.8772473
0
ARC
8
front_labelLayer
10
36.4848217
20
11.8202713
40
0.9885268
50
179.3550479
51
192.8477653
0
ARC
8
front_labelLayer
10
36.4441328
20
11.8407005
40
0.6332956
50
179.6417525
51
189.7504842
0
ARC
8
front_labelLayer
10
36.2205604
20
11.8008252
40
0.4062021
50
189.5479961
51
205.7873505
0
ARC
8
front_labelLayer
10
36.1286783
20
11.7584544
40
0.3050429
50
206.1292662
51
221.4086157
0
ARC
8
front_labelLayer
10
36.1183841
20
11.7506435
40
0.2921574
50
221.5950324
51
262.3504009
0
ARC
8
front_labelLayer
10
36.1428835
20
11.8766287
40
0.4203497
50
261.3265768
51
270.1913234
0
LINE
8
left_outsideCutPath
10
77.9
20
3.1171573
11
77.9
21
7.8
0
LINE
8
left_outsideCutPath
10
77.9
20
7.8
11
87.1
21
7.8
0
LINE
8
left_outsideCutPath
10
87.1
20
7.8
11
87.1
21
3.1171573
0
LINE
8
left_outsideCutPath
10
87.1
20
3.1171573
11
87.2171573
21
3
0
LINE
8
left_outsideCutPath
10
87.2171573
20
3
11
96.9828427
21
3
0
LINE
8
left_outsideCutPath
10
96.9828427
20
3
11
97.1
21
3.1171573
0
LINE
8
left_outsideCutPath
10
97.1
20
3.1171573
11
97.1
21
7.8
0
LINE
8
left_outsideCutPath
10
97.1
20
7.8
11
106.3
21
7.8
0
LINE
8
left_outsideCutPath
10
106.3
20
7.8
11
106.3
21
3.1171573
0
LINE
8
left_outsideCutPath
10
106.3
20
3.1171573
11
106.4171573
21
3
0
LINE
8
left_outsideCutPath
10
106.4171573
20
3
11
116.1828427
21
3
0
LINE
8
left_outsideCutPath
10
116.1828427
20
3
11
116.3
21
3.1171573
0
LINE
8
left_outsideCutPath
10
116.3
20
3.1171573
11
116.3
21
7.8
0
LINE
8
left_outsideCutPath
10
116.3
20
7.8
11
125.5
21
7.8
0
LINE
8
left_outsideCutPath
10
125.5
20
7.8
11
125.5
21
3.1171573
0
LINE
8
left_outsideCutPath
10
125.5
20
3.1171573
11
125.6171573
21
3
0
LINE
8
left_outsideCutPath
10
125.6171573
20
3
11
136.2828427
21
3
0
LINE
8
left_outsideCutPath
10
136.2828427
20
3
11
136.4
21
3.1171573
0
LINE
8
left_outsideCutPath
10
136.4
20
3.1171573
11
136.4
21
22.2828427
0
LINE
8
left_outsideCutPath
10
136.4
20
22.2828427
11
136.2828427
21
22.4
0
LINE
8
left_outsideCutPath
10
136.2828427
20
22.4
11
67.1171573
21
22.4
0
LINE
8
left_outsideCutPath
10
67.1171573
20
22.4
11
67
21
22.2828427
0
LINE
8
left_outsideCutPath
10
67
20
22.2828427
11
67
21
3.1171573
0
LINE
8
left_outsideCutPath
10
67
20
3.1171573
11
67.1171573
21
3
0
LINE
8
left_outsideCutPath
10
67.1171573
20
3
11
77.7828427
21
3
0
LINE
8
left_outsideCutPath
10
77.7828427
20
3
11
77.9
21
3.1171573
0
LINE
8
left_labelLayer
10
99.3005762
20
14.1825118
11
99.3005762
21
11.2346212
0
LINE
8
left_labelLayer
10
99.3005762
20
11.2346212
11
98.986084
21
11.2346212
0
LINE
8
left_labelLayer
10
98.986084
20
11.2346212
11
98.986084
21
14.1825118
0
LINE
8
left_labelLayer
10
98.986084
20
14.1825118
11
99.3005762
21
14.1825118
0
LINE
8
left_labelLayer
10
101.6081152
20
12.4149141
11
101.6081152
21
12.2159883
0
LINE
8
left_labelLayer
10
101.6081152
20
12.2159883
11
100.1777441
21
12.2159883
0
LINE
8
left_labelLayer
10
101.5190723
20
11.6116329
11
101.5190723
21
11.3312422
0
LINE
8
left_labelLayer
10
100.1853223
20
12.4717501
11
101.2708887
21
12.4717501
0
ARC
8
left_labelLayer
10
100.834279
20
12.4187937
40
1.2221069
50
256.0088148
51
270.4847777
0
ARC
8
left_labelLayer
10
100.7452853
20
12.073299
40
0.8653504
50
223.5465538
51
256.1956889
0
ARC
8
left_labelLayer
10
100.794378
20
12.1089809
40
0.9255507
50
194.0877226
51
223.05383
0
ARC
8
left_labelLayer
10
101.2442008
20
12.2319922
40
1.3918211
50
181.3574381
51
194.4920403
0
ARC
8
left_labelLayer
10
101.6481274
20
12.2554196
40
1.7962428
50
179.9887128
51
181.7992878
0
ARC
8
left_labelLayer
10
101.5032333
20
12.266851
40
1.6513857
50
168.9538856
51
180.3843427
0
ARC
8
left_labelLayer
10
100.9639031
20
12.3766696
40
1.1010155
50
149.4071339
51
169.1854013
0
ARC
8
left_labelLayer
10
100.813611
20
12.4560814
40
0.9312632
50
140.1054999
51
148.9068886
0
ARC
8
left_labelLayer
10
100.7213138
20
12.5411797
40
0.8058933
50
92.4762398
51
140.5386565
0
ARC
8
left_labelLayer
10
100.7624521
20
12.2371762
40
1.111742
50
89.9638135
51
93.9176424
0
ARC
8
left_labelLayer
10
100.7722675
20
12.3908217
40
0.9581396
50
74.2125928
51
90.5449687
0
ARC
8
left_labelLayer
10
100.8322789
20
12.6119301
40
0.7290488
50
41.2065028
51
74.0232675
0
ARC
8
left_labelLayer
10
100.7186294
20
12.5135755
40
0.8793457
50
11.5994367
51
41.1496011
0
ARC
8
left_labelLayer
10
100.3281328
20
12.4235191
40
1.2800115
50
359.6148235
51
12.0336654
0
ARC
8
left_labelLayer
10
101.4397621
20
12.2412065
40
1.2622699
50
181.1447556
51
190.8006479
0
ARC
8
left_labelLayer
10
100.9944388
20
12.1533777
40
0.8083819
50
190.6005808
51
206.0275147
0
ARC
8
left_labelLayer
10
100.7974152
20
12.0602338
40
0.5904744
50
206.2950282
51
222.5558667
0
ARC
8
left_labelLayer
10
100.7799601
20
12.051095
40
0.5714586
50
223.0645258
51
258.1401119
0
ARC
8
left_labelLayer
10
100.8494589
20
12.3372666
40
0.8658536
50
257.5312149
51
270.4319384
0
ARC
8
left_labelLayer
10
100.8502352
20
13.1324308
40
1.6610032
50
270.1983837
51
292.2090697
0
ARC
8
left_labelLayer
10
100.7704135
20
13.3616625
40
1.9034427
50
291.8253697
51
293.1611292
0
ARC
8
left_labelLayer
10
100.7666629
20
13.0628012
40
1.8879661
50
287.9022756
51
293.4862544
0
ARC
8
left_labelLayer
10
100.9036038
20
12.6402827
40
1.4438101
50
281.9936739
51
287.8851855
0
ARC
8
left_labelLayer
10
100.9368039
20
12.520946
40
1.3202015
50
275.9054369
51
281.6605034
0
ARC
8
left_labelLayer
10
100.8703555
20
13.1411988
40
1.9440006
50
271.9119011
51
275.9726338
0
ARC
8
left_labelLayer
10
100.8460986
20
13.7591793
40
2.5624491
50
269.9669204
51
271.9929744
0
ARC
8
left_labelLayer
10
100.7533297
20
12.4656722
40
0.6199353
50
89.4421714
51
106.2089557
0
ARC
8
left_labelLayer
10
100.716034
20
12.6016574
40
0.4789496
50
106.4656672
51
137.9176203
0
ARC
8
left_labelLayer
10
100.8229656
20
12.5077546
40
0.6212487
50
138.0995325
51
160.5865991
0
ARC
8
left_labelLayer
10
101.0978246
20
12.4066391
40
0.9140984
50
160.3353453
51
172.5315207
0
ARC
8
left_labelLayer
10
101.3686946
20
12.363251
40
1.1883358
50
172.1548559
51
174.7614074
0
ARC
8
left_labelLayer
10
100.1992207
20
12.4778368
40
1.0716853
50
359.6745833
51
8.9224515
0
ARC
8
left_labelLayer
10
100.5821635
20
12.5402307
40
0.683703
50
8.7342805
51
23.277249
0
ARC
8
left_labelLayer
10
100.7639585
20
12.6165443
40
0.4865511
50
23.4821392
51
39.7072369
0
ARC
8
left_labelLayer
10
100.8086126
20
12.6499604
40
0.4308587
50
40.0822908
51
80.6243298
0
ARC
8
left_labelLayer
10
100.762649
20
12.4392658
40
0.6463207
50
79.6468346
51
90.2911032
0
LINE
8
left_labelLayer
10
103.080166
20
13.3110274
11
103.080166
21
13.0666329
0
LINE
8
left_labelLayer
10
103.080166
20
13.0666329
11
102.5515918
21
13.0666329
0
LINE
8
left_labelLayer
10
102.5515918
20
13.0666329
11
102.5515918
21
11.2346212
0
LINE
8
left_labelLayer
10
102.5515918
20
11.2346212
11
102.2370996
21
11.2346212
0
LINE
8
left_labelLayer
10
102.2370996
20
11.2346212
11
102.2370996
21
13.0666329
0
LINE
8
left_labelLayer
10
102.2370996
20
13.0666329
11
101.8657715
21
13.0666329
0
LINE
8
left_labelLayer
10
101.8657715
20
13.0666329
11
101.8657715
21
13.2087227
0
LINE
8
left_labelLayer
10
101.8657715
20
13.2087227
11
102.2370996
21
13.3223946
0
LINE
8
left_labelLayer
10
102.2370996
20
13.3223946
11
102.2370996
21
13.437961
0
LINE
8
left_labelLayer
10
103.2923535
20
14.137043
11
103.2108887
21
13.8850704
0
LINE
8
left_labelLayer
10
102.5515918
20
13.4455391
11
102.5515918
21
13.3110274
0
LINE
8
left_labelLayer
10
102.5515918
20
13.3110274
11
103.080166
21
13.3110274
0
ARC
8
left_labelLayer
10
103.5116375
20
13.4526128
40
1.2746222
50
167.5776672
51
180.6586298
0
ARC
8
left_labelLayer
10
102.9122618
20
13.5923509
40
0.6592617
50
141.7433612
51
168.2322171
0
ARC
8
left_labelLayer
10
102.8146743
20
13.643284
40
0.5514732
50
98.2551792
51
139.6203138
0
ARC
8
left_labelLayer
10
102.9003593
20
13.2474447
40
0.9559228
50
89.669753
51
99.93138
0
ARC
8
left_labelLayer
10
102.9005987
20
13.1906361
40
1.0127292
50
81.5641007
51
89.7018223
0
ARC
8
left_labelLayer
10
102.8293922
20
12.6938794
40
1.5145594
50
75.9740362
51
81.656386
0
ARC
8
left_labelLayer
10
102.7072013
20
12.1870755
40
2.0358724
50
73.2963899
51
76.0945426
0
ARC
8
left_labelLayer
10
102.737975
20
12.4329225
40
1.5272134
50
71.9613855
51
76.5917328
0
ARC
8
left_labelLayer
10
102.8564754
20
12.9356105
40
1.0107494
50
76.5182071
51
83.021818
0
ARC
8
left_labelLayer
10
102.8977384
20
13.2674463
40
0.6763589
50
83.0762137
51
89.7926949
0
ARC
8
left_labelLayer
10
102.8963801
20
13.5196878
40
0.4241301
50
89.485918
51
103.4196384
0
ARC
8
left_labelLayer
10
102.8581419
20
13.6665979
40
0.2723744
50
102.76772
51
144.338049
0
ARC
8
left_labelLayer
10
102.9351732
20
13.6170351
40
0.3638848
50
145.0688258
51
162.1802929
0
ARC
8
left_labelLayer
10
103.1992947
20
13.5281709
40
0.6425405
50
161.8437891
51
171.7847926
0
ARC
8
left_labelLayer
10
103.630066
20
13.463467
40
1.07814
50
171.6526605
51
178.4383699
0
ARC
8
left_labelLayer
10
104.0363039
20
13.4461457
40
1.4847121
50
178.1974125
51
180.0234089
0
LINE
8
left_labelLayer
10
104.413916
20
11.4941719
11
104.413916
21
11.2535665
0
LINE
8
left_labelLayer
10
103.4818066
20
11.8313985
11
103.4818066
21
13.0666329
0
LINE
8
left_labelLayer
10
103.4818066
20
13.0666329
11
103.1843652
21
13.0666329
0
LINE
8
left_labelLayer
10
103.1843652
20
13.0666329
11
103.1843652
21
13.2181954
0
LINE
8
left_labelLayer
10
103.1843652
20
13.2181954
11
103.4818066
21
13.348918
0
LINE
8
left_labelLayer
10
103.4818066
20
13.348918
11
103.6144238
21
13.7922383
0
LINE
8
left_labelLayer
10
103.6144238
20
13.7922383
11
103.7962988
21
13.7922383
0
LINE
8
left_labelLayer
10
103.7962988
20
13.7922383
11
103.7962988
21
13.3110274
0
LINE
8
left_labelLayer
10
103.7962988
20
13.3110274
11
104.3987598
21
13.3110274
0
LINE
8
left_labelLayer
10
104.3987598
20
13.3110274
11
104.3987598
21
13.0666329
0
LINE
8
left_labelLayer
10
104.3987598
20
13.0666329
11
103.7962988
21
13.0666329
0
LINE
8
left_labelLayer
10
103.7962988
20
13.0666329
11
103.7962988
21
11.8446602
0
ARC
8
left_labelLayer
10
104.131893
20
12.4891218
40
1.0328427
50
269.8803596
51
278.3027776
0
ARC
8
left_labelLayer
10
104.141517
20
12.4101328
40
0.9532937
50
278.4159628
51
279.0076949
0
ARC
8
left_labelLayer
10
104.0257872
20
13.1494124
40
1.7015761
50
278.9590613
51
280.5102323
0
ARC
8
left_labelLayer
10
104.136303
20
12.5563809
40
1.098335
50
280.4848775
51
282.6271989
0
ARC
8
left_labelLayer
10
104.2331436
20
12.1261793
40
0.657369
50
282.5876736
51
285.5795497
0
ARC
8
left_labelLayer
10
104.2819934
20
11.9465499
40
0.4712211
50
285.7241402
51
286.2577539
0
ARC
8
left_labelLayer
10
104.2816844
20
11.5332462
40
0.3093637
50
287.9892804
51
295.3046276
0
ARC
8
left_labelLayer
10
104.2070821
20
11.7589564
40
0.5470814
50
283.3071231
51
288.1198968
0
ARC
8
left_labelLayer
10
104.1282711
20
12.0877058
40
0.8851444
50
280.0070009
51
283.3735678
0
ARC
8
left_labelLayer
10
104.07543
20
12.3745361
40
1.1767952
50
279.1863548
51
280.1138757
0
ARC
8
left_labelLayer
10
104.0431627
20
12.5580112
40
1.3630709
50
275.5260988
51
279.2940636
0
ARC
8
left_labelLayer
10
104.0796397
20
12.1770329
40
0.9803504
50
270.8932662
51
275.5483277
0
ARC
8
left_labelLayer
10
104.0842078
20
12.0053286
40
0.808598
50
270.0042318
51
270.7592942
0
ARC
8
left_labelLayer
10
104.0715763
20
12.0180379
40
0.8214055
50
253.7847889
51
270.8852925
0
ARC
8
left_labelLayer
10
103.9742618
20
11.686159
40
0.4755547
50
190.3817632
51
253.8772473
0
ARC
8
left_labelLayer
10
104.4702709
20
11.8202713
40
0.9885268
50
179.3550479
51
192.8477653
0
ARC
8
left_labelLayer
10
104.429582
20
11.8407005
40
0.6332956
50
179.6417525
51
189.7504842
0
ARC
8
left_labelLayer
10
104.2060096
20
11.8008252
40
0.4062021
50
189.5479961
51
205.7873505
0
ARC
8
left_labelLayer
10
104.1141275
20
11.7584544
40
0.3050429
50
206.1292662
51
221.4086157
0
ARC
8
left_labelLayer
10
104.1038333
20
11.7506435
40
0.2921574
50
221.5950324
51
262.3504009
0
ARC
8
left_labelLayer
10
104.1283327
20
11.8766287
40
0.4203497
50
261.3265768
51
270.1913234
0
LINE
8
back_outsideCutPath
10
8.2
20
25.5171573
11
8.2
21
30.2
0
LINE
8
back_outsideCutPath
10
8.2
20
30.2
11
17.4
21
30.2
0
LINE
8
back_outsideCutPath
10
17.4
20
30.2
11
17.4
21
25.5171573
0
LINE
8
back_outsideCutPath
10
17.4
20
25.5171573
11
17.5171573
21
25.4
0
LINE
8
back_outsideCutPath
10
17.5171573
20
25.4
11
27.2828427
21
25.4
0
LINE
8
back_outsideCutPath
10
27.2828427
20
25.4
11
27.4
21
25.5171573
0
LINE
8
back_outsideCutPath
10
27.4
20
25.5171573
11
27.4
21
30.2
0
LINE
8
back_outsideCutPath
10
27.4
20
30.2
11
36.6
21
30.2
0
LINE
8
back_outsideCutPath
10
36.6
20
30.2
11
36.6
21
25.5171573
0
LINE
8
back_outsideCutPath
10
36.6
20
25.5171573
11
36.7171573
21
25.4
0
LINE
8
back_outsideCutPath
10
36.7171573
20
25.4
11
46.4828427
21
25.4
0
LINE
8
back_outsideCutPath
10
46.4828427
20
25.4
11
46.6
21
25.5171573
0
LINE
8
back_outsideCutPath
10
46.6
20
25.5171573
11
46.6
21
30.2
0
LINE
8
back_outsideCutPath
10
46.6
20
30.2
11
55.8
21
30.2
0
LINE
8
back_outsideCutPath
10
55.8
20
30.2
11
55.8
21
25.5171573
0
LINE
8
back_outsideCutPath
10
55.8
20
25.5171573
11
55.9171573
21
25.4
0
LINE
8
back_outsideCutPath
10
55.9171573
20
25.4
11
63.8828427
21
25.4
0
LINE
8
back_outsideCutPath
10
63.8828427
20
25.4
11
64
21
25.5171573
0
LINE
8
back_outsideCutPath
10
64
20
25.5171573
11
64
21
44.6828427
0
LINE
8
back_outsideCutPath
10
64
20
44.6828427
11
63.8828427
21
44.8
0
LINE
8
back_outsideCutPath
10
63.8828427
20
44.8
11
0.1171573
21
44.8
0
LINE
8
back_outsideCutPath
10
0.1171573
20
44.8
11
0
21
44.6828427
0
LINE
8
back_outsideCutPath
10
0
20
44.6828427
11
0
21
25.5171573
0
LINE
8
back_outsideCutPath
10
0
20
25.5171573
11
0.1171573
21
25.4
0
LINE
8
back_outsideCutPath
10
0.1171573
20
25.4
11
8.0828427
21
25.4
0
LINE
8
back_outsideCutPath
10
8.0828427
20
25.4
11
8.2
21
25.5171573
0
LINE
8
back_labelLayer
10
28.2924023
20
33.9121503
11
28.269668
21
33.9121503
0
LINE
8
back_labelLayer
10
28.269668
20
33.9121503
11
28.2033594
21
33.6450214
0
LINE
8
back_labelLayer
10
28.2033594
20
33.6450214
11
27.9779102
21
33.6450214
0
LINE
8
back_labelLayer
10
27.9779102
20
33.6450214
11
27.9779102
21
36.592912
0
LINE
8
back_labelLayer
10
27.9779102
20
36.592912
11
28.2924023
21
36.592912
0
LINE
8
back_labelLayer
10
28.2924023
20
36.592912
11
28.2924023
21
35.8767792
0
LINE
8
back_labelLayer
10
28.2772461
20
35.4448261
11
28.2924023
21
35.4448261
0
ARC
8
back_labelLayer
10
28.9535547
20
34.7943717
40
0.9612038
50
74.2393937
51
90.5623288
0
ARC
8
back_labelLayer
10
29.0171133
20
35.0275421
40
0.719539
50
38.5631381
51
74.0670523
0
ARC
8
back_labelLayer
10
28.8535489
20
34.9003617
40
0.9267181
50
16.4709633
51
38.4075114
0
ARC
8
back_labelLayer
10
28.3823412
20
34.7526069
40
1.4205049
50
5.1338811
51
16.7972844
0
ARC
8
back_labelLayer
10
27.7874933
20
34.6894178
40
2.0186442
50
359.8779865
51
5.4093891
0
ARC
8
back_labelLayer
10
27.962232
20
34.6742391
40
1.8439329
50
350.6562759
51
0.3380695
0
ARC
8
back_labelLayer
10
28.6050541
20
34.5649021
40
1.1918932
50
335.8305629
51
350.8254788
0
ARC
8
back_labelLayer
10
28.8878215
20
34.4428544
40
0.883954
50
321.3161515
51
335.5436462
0
ARC
8
back_labelLayer
10
28.9959244
20
34.3547668
40
0.7445123
50
274.064019
51
321.408114
0
ARC
8
back_labelLayer
10
28.9455626
20
34.6737727
40
1.0666429
50
269.9225706
51
275.5481939
0
ARC
8
back_labelLayer
10
28.9388177
20
34.5610403
40
0.9539243
50
255.775556
51
270.3185426
0
ARC
8
back_labelLayer
10
28.9115923
20
34.4400882
40
0.8299973
50
245.980211
51
255.5456915
0
ARC
8
back_labelLayer
10
28.8588688
20
34.3174764
40
0.6965438
50
215.5850157
51
245.8361436
0
ARC
8
back_labelLayer
10
21.735586
20
35.871236
40
6.5568187
50
358.1122925
51
0.0484383
0
ARC
8
back_labelLayer
10
23.5603582
20
35.8099712
40
4.7310189
50
355.7238613
51
358.125883
0
ARC
8
back_labelLayer
10
24.3364105
20
35.7568648
40
3.9531701
50
355.4727172
51
355.6527478
0
ARC
8
back_labelLayer
10
28.878917
20
35.0358334
40
0.7150345
50
95.1835427
51
145.1108849
0
ARC
8
back_labelLayer
10
28.9417653
20
34.6814355
40
1.0740964
50
89.8743345
51
96.8146088
0
ARC
8
back_labelLayer
10
28.8920682
20
34.6084653
40
0.8837486
50
89.5731306
51
100.7324321
0
ARC
8
back_labelLayer
10
28.8266455
20
34.939002
40
0.5468174
50
100.4469184
51
119.670138
0
ARC
8
back_labelLayer
10
28.7659805
20
35.0524215
40
0.418253
50
120.1403149
51
142.4248948
0
ARC
8
back_labelLayer
10
28.8663523
20
34.9860234
40
0.5383612
50
143.3383505
51
161.2559159
0
ARC
8
back_labelLayer
10
29.2860508
20
34.8370162
40
0.9837023
50
160.8925966
51
171.2335205
0
ARC
8
back_labelLayer
10
29.9867267
20
34.723979
40
1.6934277
50
171.066774
51
177.8456922
0
ARC
8
back_labelLayer
10
30.7153484
20
34.6869179
40
2.4229468
50
177.6176082
51
180.0425382
0
ARC
8
back_labelLayer
10
30.3717667
20
34.6769993
40
2.0793802
50
179.7762663
51
185.7075711
0
ARC
8
back_labelLayer
10
29.5519386
20
34.5925259
40
1.2552181
50
185.5924647
51
194.2051365
0
ARC
8
back_labelLayer
10
29.0267799
20
34.4562277
40
0.7126777
50
193.943067
51
208.0217663
0
ARC
8
back_labelLayer
10
28.8142812
20
34.3481241
40
0.474323
50
208.5536207
51
217.5606343
0
ARC
8
back_labelLayer
10
28.7969751
20
34.3409274
40
0.4562429
50
218.1690812
51
253.8047431
0
ARC
8
back_labelLayer
10
28.8815985
20
34.601826
40
0.7304402
50
253.138177
51
266.8483653
0
ARC
8
back_labelLayer
10
28.9053295
20
34.8816499
40
1.0111798
50
266.3774524
51
270.0510528
0
ARC
8
back_labelLayer
10
28.9129391
20
34.497375
40
0.6269403
50
269.3868939
51
285.8629852
0
ARC
8
back_labelLayer
10
28.959516
20
34.329035
40
0.4522813
50
286.0163374
51
326.8497142
0
ARC
8
back_labelLayer
10
28.7347067
20
34.4779625
40
0.7219416
50
326.7105206
51
343.6661217
0
ARC
8
back_labelLayer
10
28.3138806
20
34.606553
40
1.1619578
50
343.4171143
51
353.6368607
0
ARC
8
back_labelLayer
10
27.678285
20
34.6819717
40
1.8020019
50
353.4934222
51
0.2205479
0
ARC
8
back_labelLayer
10
27.6222519
20
34.6964307
40
1.8580368
50
359.7680286
51
6.309509
0
ARC
8
back_labelLayer
10
28.3221388
20
34.7767465
40
1.1535662
50
6.164861
51
16.039714
0
ARC
8
back_labelLayer
10
28.7729908
20
34.9096149
40
0.6835609
50
15.7778757
51
32.0151623
0
ARC
8
back_labelLayer
10
28.9135666
20
34.9901115
40
0.5217285
50
32.7039177
51
35.5246455
0
ARC
8
back_labelLayer
10
28.9650005
20
35.0266728
40
0.4586243
50
35.5408769
51
79.8011061
0
ARC
8
back_labelLayer
10
28.9034113
20
34.7648419
40
0.7273631
50
78.678157
51
90.374875
0
LINE
8
back_labelLayer
10
31.8654883
20
33.6450214
11
31.6324609
21
33.6450214
0
LINE
8
back_labelLayer
10
31.6324609
20
33.6450214
11
31.5699414
21
33.9405683
0
LINE
8
back_labelLayer
10
31.5699414
20
33.9405683
11
31.5547852
21
33.9405683
0
LINE
8
back_labelLayer
10
31.2061914
20
34.8783612
11
31.5585742
21
34.8897284
0
LINE
8
back_labelLayer
10
31.5585742
20
34.8897284
11
31.5585742
21
35.0185566
0
LINE
8
back_labelLayer
10
30.5298438
20
35.3368378
11
30.4332227
21
35.5774433
0
LINE
8
back_labelLayer
10
31.8654883
20
35.0621308
11
31.8654883
21
33.6450214
0
LINE
8
back_labelLayer
10
31.5509961
20
34.4786152
11
31.5509961
21
34.6661737
0
LINE
8
back_labelLayer
10
31.5509961
20
34.6661737
11
31.2365039
21
34.652912
0
ARC
8
back_labelLayer
10
30.531547
20
34.7484657
40
1.303731
50
314.7445061
51
321.7071545
0
ARC
8
back_labelLayer
10
30.85186
20
34.4230027
40
0.8470883
50
304.8484988
51
314.8530875
0
ARC
8
back_labelLayer
10
31.005722
20
34.2039941
40
0.5794386
50
294.3933479
51
304.7371664
0
ARC
8
back_labelLayer
10
30.9531586
20
34.3401904
40
0.7252337
50
281.2978956
51
293.7314628
0
ARC
8
back_labelLayer
10
30.8836659
20
34.6769864
40
1.0691197
50
272.9334399
51
281.4138845
0
ARC
8
back_labelLayer
10
30.8606307
20
35.0223437
40
1.4152135
50
269.9539056
51
273.1492708
0
ARC
8
back_labelLayer
10
30.8526753
20
34.5722386
40
0.9651319
50
258.6718988
51
270.4046958
0
ARC
8
back_labelLayer
10
30.7856346
20
34.2515488
40
0.6375272
50
238.3272424
51
258.9183666
0
ARC
8
back_labelLayer
10
30.7394375
20
34.1672671
40
0.5415644
50
227.7688537
51
237.8049118
0
ARC
8
back_labelLayer
10
30.7249848
20
34.1470938
40
0.5169213
50
192.0826998
51
227.4521183
0
ARC
8
back_labelLayer
10
30.991495
20
34.2127912
40
0.7913246
50
179.54579
51
192.6949136
0
ARC
8
back_labelLayer
10
30.7439098
20
34.2414423
40
0.5441748
50
115.4904442
51
182.3568153
0
ARC
8
back_labelLayer
10
31.0164388
20
33.7415684
40
1.1131036
50
101.3568154
51
117.0798629
0
ARC
8
back_labelLayer
10
31.235302
20
32.7188078
40
2.1589768
50
92.4695778
51
101.7065261
0
ARC
8
back_labelLayer
10
31.2981717
20
31.8087344
40
3.0710047
50
91.7163335
51
92.9098347
0
ARC
8
back_labelLayer
10
30.6553179
20
35.0233927
40
0.9032692
50
359.6932355
51
8.0037355
0
ARC
8
back_labelLayer
10
30.9969862
20
35.0731686
40
0.5580011
50
7.8273355
51
20.604159
0
ARC
8
back_labelLayer
10
31.1903526
20
35.147141
40
0.3509741
50
20.4093668
51
41.4479818
0
ARC
8
back_labelLayer
10
31.2189213
20
35.1628442
40
0.3192456
50
42.7295861
51
71.0380825
0
ARC
8
back_labelLayer
10
31.151659
20
34.9799595
40
0.5140793
50
70.5715509
51
83.9928213
0
ARC
8
back_labelLayer
10
31.1195276
20
34.7189642
40
0.7770178
50
83.6506048
51
90.1754387
0
ARC
8
back_labelLayer
10
31.1251627
20
34.4720942
40
1.0239156
50
90.4484615
51
103.7665808
0
ARC
8
back_labelLayer
10
31.2455652
20
33.9643431
40
1.5457374
50
103.6226032
51
112.4320379
0
ARC
8
back_labelLayer
10
31.4519449
20
33.4432389
40
2.1061785
50
112.2121439
51
115.9640875
0
ARC
8
back_labelLayer
10
31.1214362
20
34.3011615
40
1.4500115
50
106.3567943
51
118.3350214
0
ARC
8
back_labelLayer
10
31.1831772
20
34.1104577
40
1.6503935
50
104.5161283
51
106.549004
0
ARC
8
back_labelLayer
10
31.1379097
20
34.2990796
40
1.4564507
50
90.0714391
51
104.6520883
0
ARC
8
back_labelLayer
10
31.1436269
20
34.4273218
40
1.3282288
50
81.5679437
51
90.3249595
0
ARC
8
back_labelLayer
10
31.2204236
20
34.9276218
40
0.8220797
50
68.2273402
51
81.749453
0
ARC
8
back_labelLayer
10
31.3273872
20
35.193757
40
0.5352547
50
47.8684016
51
68.293386
0
ARC
8
back_labelLayer
10
31.3447507
20
35.2284247
40
0.4980049
50
19.2330322
51
46.6741563
0
ARC
8
back_labelLayer
10
31.0555391
20
35.1208381
40
0.8065396
50
6.3379665
51
19.681454
0
ARC
8
back_labelLayer
10
30.6280524
20
35.0663924
40
1.2374433
50
359.802677
51
6.6584416
0
ARC
8
back_labelLayer
10
30.9283701
20
34.7325545
40
0.8658963
50
269.5792681
51
282.0413097
0
ARC
8
back_labelLayer
10
30.9915306
20
34.4523946
40
0.5787338
50
281.7121472
51
306.4593787
0
ARC
8
back_labelLayer
10
31.0195553
20
34.4063151
40
0.5250418
50
306.9879048
51
313.8560716
0
ARC
8
back_labelLayer
10
31.016206
20
34.4053809
40
0.5266976
50
314.1892162
51
347.4270133
0
ARC
8
back_labelLayer
10
30.7523707
20
34.4714971
40
0.79863
50
346.9177599
51
0.2824803
0
ARC
8
back_labelLayer
10
30.5793225
20
34.4785523
40
0.9716736
50
359.8161562
51
0.0037067
0
ARC
8
back_labelLayer
10
31.311309
20
32.3449991
40
2.3091249
50
91.8564471
51
96.4479342
0
ARC
8
back_labelLayer
10
31.2071757
20
33.2460592
40
1.4020724
50
96.3545433
51
102.9952852
0
ARC
8
back_labelLayer
10
31.0658139
20
33.8466648
40
0.7850656
50
102.7995037
51
113.2433175
0
ARC
8
back_labelLayer
10
30.9492878
20
34.125352
40
0.4830207
50
113.5886957
51
121.6803292
0
ARC
8
back_labelLayer
10
30.8683183
20
34.2486693
40
0.3355806
50
120.9733661
51
172.4180189
0
ARC
8
back_labelLayer
10
31.0265595
20
34.2170597
40
0.496719
50
171.2120538
51
180.2058254
0
ARC
8
back_labelLayer
10
30.9792704
20
34.2115617
40
0.449442
50
179.5265803
51
192.7788167
0
ARC
8
back_labelLayer
10
30.8272321
20
34.1747056
40
0.2930266
50
192.3263081
51
222.0581077
0
ARC
8
back_labelLayer
10
30.8159159
20
34.1679344
40
0.2801004
50
222.5803787
51
229.2548809
0
ARC
8
back_labelLayer
10
30.8541417
20
34.2171469
40
0.3423492
50
229.7837705
51
254.2723494
0
ARC
8
back_labelLayer
10
30.9050395
20
34.3867657
40
0.519423
50
253.9398225
51
266.4533142
0
ARC
8
back_labelLayer
10
30.921286
20
34.5741142
40
0.707433
50
266.0786776
51
270.0587778
0
LINE
8
back_labelLayer
10
33.8983203
20
35.65133
11
33.8016992
21
35.3842011
0
LINE
8
back_labelLayer
10
33.8680078
20
33.9936152
11
33.8680078
21
33.7151191
0
ARC
8
back_labelLayer
10
33.3331909
20
34.7824684
40
1.1753804
50
256.4243763
51
270.4890213
0
ARC
8
back_labelLayer
10
33.2392669
20
34.415893
40
0.7970174
50
221.7976439
51
256.8020819
0
ARC
8
back_labelLayer
10
33.3302205
20
34.4830952
40
0.9096746
50
196.0166289
51
221.1349462
0
ARC
8
back_labelLayer
10
33.787344
20
34.6228175
40
1.3876291
50
183.5913373
51
196.3540053
0
ARC
8
back_labelLayer
10
34.2994495
20
34.6679306
40
1.9015988
50
179.9387691
51
183.9814189
0
ARC
8
back_labelLayer
10
34.133054
20
34.6811348
40
1.7352384
50
169.8978022
51
180.3688885
0
ARC
8
back_labelLayer
10
33.5289784
20
34.7928815
40
1.1209347
50
153.0874798
51
170.1051556
0
ARC
8
back_labelLayer
10
33.2997755
20
34.9024028
40
0.8670036
50
138.6549481
51
152.6854193
0
ARC
8
back_labelLayer
10
33.2570031
20
34.9335735
40
0.8143158
50
101.4912626
51
138.313424
0
ARC
8
back_labelLayer
10
33.3552111
20
34.5248472
40
1.2345029
50
89.5891843
51
102.1788067
0
ARC
8
back_labelLayer
10
33.3627621
20
34.340095
40
1.4192238
50
77.7702929
51
89.9474999
0
ARC
8
back_labelLayer
10
33.3358908
20
34.1918651
40
1.5697905
50
74.6797824
51
77.9578384
0
ARC
8
back_labelLayer
10
33.4810246
20
34.7176575
40
1.0243367
50
70.0943979
51
74.7387907
0
ARC
8
back_labelLayer
10
33.6190092
20
35.0958017
40
0.6218057
50
63.5035028
51
70.1859274
0
ARC
8
back_labelLayer
10
33.6943306
20
35.2523008
40
0.4481475
50
62.9231995
51
63.195226
0
ARC
8
back_labelLayer
10
33.2850772
20
34.0840485
40
1.3990336
50
68.3293569
51
74.8831681
0
ARC
8
back_labelLayer
10
33.2113009
20
33.8224638
40
1.6708091
50
74.7801146
51
77.4499317
0
ARC
8
back_labelLayer
10
33.288748
20
34.186031
40
1.2991046
50
77.2998077
51
81.7343946
0
ARC
8
back_labelLayer
10
33.3452777
20
34.5799205
40
0.90118
50
81.6909122
51
87.5080644
0
ARC
8
back_labelLayer
10
33.3561833
20
34.7838848
40
0.6969374
50
87.6747217
51
89.9752505
0
ARC
8
back_labelLayer
10
33.3408945
20
34.7834052
40
0.6975912
50
88.7194369
51
112.5667526
0
ARC
8
back_labelLayer
10
33.2913255
20
34.947293
40
0.5275072
50
114.426573
51
161.6632973
0
ARC
8
back_labelLayer
10
33.7837377
20
34.7545576
40
1.0559238
50
160.1418555
51
175.1368502
0
ARC
8
back_labelLayer
10
34.4614432
20
34.6784534
40
1.7377386
50
174.5309231
51
180.1550176
0
ARC
8
back_labelLayer
10
34.2467396
20
34.6658857
40
1.5230489
50
179.7040786
51
188.0744535
0
ARC
8
back_labelLayer
10
33.6981635
20
34.5856196
40
0.9686402
50
187.9314583
51
200.3885906
0
ARC
8
back_labelLayer
10
33.4015425
20
34.4757351
40
0.65232
50
200.4182791
51
216.6392374
0
ARC
8
back_labelLayer
10
33.2771898
20
34.3868395
40
0.4994958
50
216.9695907
51
261.3102696
0
ARC
8
back_labelLayer
10
33.3320682
20
34.6426929
40
0.7608634
50
260.1359636
51
270.2693102
0
ARC
8
back_labelLayer
10
33.3295368
20
35.1983231
40
1.3164994
50
270.2658153
51
286.2891497
0
ARC
8
back_labelLayer
10
33.249494
20
35.4968253
40
1.6254847
50
286.0460916
51
292.3653036
0
ARC
8
back_labelLayer
10
33.4626417
20
34.5125703
40
0.894567
50
282.0344876
51
296.9454643
0
ARC
8
back_labelLayer
10
33.3706426
20
34.9271752
40
1.3192462
50
272.5980674
51
282.1878795
0
ARC
8
back_labelLayer
10
33.3442609
20
35.3317254
40
1.724595
50
269.9655067
51
272.8644037
0
LINE
8
back_labelLayer
10
34.6561328
20
34.7078534
11
34.6712891
21
34.7078534
0
LINE
8
back_labelLayer
10
34.9194727
20
35.0109784
11
35.5901367
21
35.7214277
0
LINE
8
back_labelLayer
10
35.5901367
20
35.7214277
11
35.9633594
21
35.7214277
0
LINE
8
back_labelLayer
10
35.9633594
20
35.7214277
11
35.1221875
21
34.8366816
0
LINE
8
back_labelLayer
10
35.1221875
20
34.8366816
11
36.0220898
21
33.6450214
0
LINE
8
back_labelLayer
10
36.0220898
20
33.6450214
11
35.6412891
21
33.6450214
0
LINE
8
back_labelLayer
10
35.6412891
20
33.6450214
11
34.9081055
21
34.6263886
0
LINE
8
back_labelLayer
10
34.9081055
20
34.6263886
11
34.6712891
21
34.4217792
0
LINE
8
back_labelLayer
10
34.6712891
20
34.4217792
11
34.6712891
21
33.6450214
0
LINE
8
back_labelLayer
10
34.6712891
20
33.6450214
11
34.3605859
21
33.6450214
0
LINE
8
back_labelLayer
10
34.3605859
20
33.6450214
11
34.3605859
21
36.592912
0
LINE
8
back_labelLayer
10
34.3605859
20
36.592912
11
34.6712891
21
36.592912
0
LINE
8
back_labelLayer
10
34.6712891
20
36.592912
11
34.6712891
21
35.0299237
0
ARC
8
back_labelLayer
10
36.1912052
20
33.6319801
40
1.8621623
50
142.3235843
51
144.7072127
0
ARC
8
back_labelLayer
10
37.1825633
20
32.8673032
40
3.1141693
50
140.4331509
51
142.3364009
0
ARC
8
back_labelLayer
10
38.474527
20
31.8037859
40
4.7875591
50
139.2799573
51
140.4703253
0
ARC
8
back_labelLayer
10
39.9684117
20
30.519129
40
6.7578469
50
138.3417239
51
139.2876435
0
ARC
8
back_labelLayer
10
32.5754174
20
35.0338457
40
2.0958753
50
358.2740368
51
359.892784
0
ARC
8
back_labelLayer
10
30.9448167
20
35.0792843
40
3.7271066
50
357.5043348
51
358.3308294
0
ARC
8
back_labelLayer
10
28.5018663
20
35.1872176
40
6.1724397
50
356.6327385
51
357.4908237
0
ARC
8
back_labelLayer
10
24.4519686
20
35.423432
40
10.2292199
50
356.0327751
51
356.6443224
0
ARC
8
back_labelLayer
10
20.5187581
20
35.6907878
40
14.171504
50
356.022776
51
356.0546366
0
LINE
8
right_outsideCutPath
10
77.9
20
25.5171573
11
77.9
21
30.2
0
LINE
8
right_outsideCutPath
10
77.9
20
30.2
11
87.1
21
30.2
0
LINE
8
right_outsideCutPath
10
87.1
20
30.2
11
87.1
21
25.5171573
0
LINE
8
right_outsideCutPath
10
87.1
20
25.5171573
11
87.2171573
21
25.4
0
LINE
8
right_outsideCutPath
10
87.2171573
20
25.4
11
96.9828427
21
25.4
0
LINE
8
right_outsideCutPath
10
96.9828427
20
25.4
11
97.1
21
25.5171573
0
LINE
8
right_outsideCutPath
10
97.1
20
25.5171573
11
97.1
21
30.2
0
LINE
8
right_outsideCutPath
10
97.1
20
30.2
11
106.3
21
30.2
0
LINE
8
right_outsideCutPath
10
106.3
20
30.2
11
106.3
21
25.5171573
0
LINE
8
right_outsideCutPath
10
106.3
20
25.5171573
11
106.4171573
21
25.4
0
LINE
8
right_outsideCutPath
10
106.4171573
20
25.4
11
116.1828427
21
25.4
0
LINE
8
right_outsideCutPath
10
116.1828427
20
25.4
11
116.3
21
25.5171573
0
LINE
8
right_outsideCutPath
10
116.3
20
25.5171573
11
116.3
21
30.2
0
LINE
8
right_outsideCutPath
10
116.3
20
30.2
11
125.5
21
30.2
0
LINE
8
right_outsideCutPath
10
125.5
20
30.2
11
125.5
21
25.5171573
0
LINE
8
right_outsideCutPath
10
125.5
20
25.5171573
11
125.6171573
21
25.4
0
LINE
8
right_outsideCutPath
10
125.6171573
20
25.4
11
136.2828427
21
25.4
0
LINE
8
right_outsideCutPath
10
136.2828427
20
25.4
11
136.4
21
25.5171573
0
LINE
8
right_outsideCutPath
10
136.4
20
25.5171573
11
136.4
21
44.6828427
0
LINE
8
right_outsideCutPath
10
136.4
20
44.6828427
11
136.2828427
21
44.8
0
LINE
8
right_outsideCutPath
10
136.2828427
20
44.8
11
67.1171573
21
44.8
0
LINE
8
right_outsideCutPath
10
67.1171573
20
44.8
11
67
21
44.6828427
0
LINE
8
right_outsideCutPath
10
67
20
44.6828427
11
67
21
25.5171573
0
LINE
8
right_outsideCutPath
10
67
20
25.5171573
11
67.1171573
21
25.4
0
LINE
8
right_outsideCutPath
10
67.1171573
20
25.4
11
77.7828427
21
25.4
0
LINE
8
right_outsideCutPath
10
77.7828427
20
25.4
11
77.9
21
25.5171573
0
LINE
8
right_labelLayer
10
98.8818848
20
36.1836833
11
98.8383105
21
35.8919255
0
LINE
8
right_labelLayer
10
98.0009277
20
35.2061052
11
98.0009277
21
34.0921208
0
LINE
8
right_labelLayer
10
98.0009277
20
34.0921208
11
97.6864355
21
34.0921208
0
LINE
8
right_labelLayer
10
97.6864355
20
34.0921208
11
97.6864355
21
36.168527
0
LINE
8
right_labelLayer
10
97.6864355
20
36.168527
11
97.9459863
21
36.168527
0
LINE
8
right_labelLayer
10
97.9459863
20
36.168527
11
97.9819824
21
35.7839372
0
LINE
8
right_labelLayer
10
97.9819824
20
35.7839372
11
97.9971387
21
35.7839372
0
ARC
8
right_labelLayer
10
98.6369312
20
34.7626925
40
1.4437288
50
84.9921798
51
90.1281883
0
ARC
8
right_labelLayer
10
98.6716057
20
35.1511328
40
1.0537447
50
78.4891183
51
85.0266826
0
ARC
8
right_labelLayer
10
98.5370204
20
34.5389843
40
1.3860828
50
77.4455077
51
81.6360666
0
ARC
8
right_labelLayer
10
98.5974155
20
34.9552783
40
0.9654319
50
81.5884976
51
87.1917913
0
ARC
8
right_labelLayer
10
98.6105242
20
35.1826269
40
0.7377168
50
87.3435935
51
89.9656284
0
ARC
8
right_labelLayer
10
98.6074815
20
35.3754328
40
0.5449218
50
89.6335339
51
137.0880832
0
ARC
8
right_labelLayer
10
98.7412159
20
35.2250441
40
0.7455091
50
135.6208698
51
138.8376811
0
ARC
8
right_labelLayer
10
98.7216194
20
35.2441727
40
0.7181672
50
138.9575642
51
174.5421906
0
ARC
8
right_labelLayer
10
98.9555327
20
35.2075741
40
0.9546062
50
173.6908007
51
180.0881695
0
ARC
8
right_labelLayer
10
98.922436
20
35.2626304
40
1.0620433
50
139.4139262
51
150.6033592
0
ARC
8
right_labelLayer
10
98.732016
20
35.4258005
40
0.8112758
50
124.2321678
51
139.4161109
0
ARC
8
right_labelLayer
10
98.6301963
20
35.579497
40
0.6269307
50
89.6796873
51
124.4405961
0
LINE
8
right_labelLayer
10
99.5847558
20
36.168527
11
99.5847558
21
34.0921208
0
LINE
8
right_labelLayer
10
99.5847558
20
34.0921208
11
99.2702637
21
34.0921208
0
LINE
8
right_labelLayer
10
99.2702637
20
34.0921208
11
99.2702637
21
36.168527
0
LINE
8
right_labelLayer
10
99.2702637
20
36.168527
11
99.5847558
21
36.168527
0
ARC
8
right_labelLayer
10
99.5922299
20
36.7333578
40
0.3484964
50
170.8450532
51
180.3543044
0
ARC
8
right_labelLayer
10
99.4617646
20
36.7551734
40
0.2162235
50
155.9678863
51
171.0517546
0
ARC
8
right_labelLayer
10
99.3985757
20
36.7832069
40
0.1470954
50
133.7878559
51
155.9172073
0
ARC
8
right_labelLayer
10
99.4219067
20
36.7574139
40
0.1818632
50
92.644677
51
133.4709991
0
ARC
8
right_labelLayer
10
99.4292725
20
36.6996002
40
0.240001
50
89.9685333
51
93.764476
0
ARC
8
right_labelLayer
10
99.4322759
20
36.7543285
40
0.185295
50
46.3708918
51
90.8879638
0
ARC
8
right_labelLayer
10
99.4507178
20
36.7733675
40
0.1587894
50
17.7250669
51
46.447404
0
ARC
8
right_labelLayer
10
99.3647311
20
36.7437553
40
0.2497179
50
4.9424839
51
18.1903386
0
ARC
8
right_labelLayer
10
99.2552651
20
36.7319243
40
0.3598039
50
359.8851065
51
5.3176447
0
ARC
8
right_labelLayer
10
99.2896851
20
36.7289941
40
0.3253907
50
349.8343685
51
0.3889193
0
ARC
8
right_labelLayer
10
99.4081442
20
36.7068952
40
0.2048928
50
332.632423
51
350.070551
0
ARC
8
right_labelLayer
10
99.4542569
20
36.6841247
40
0.1534767
50
313.6152401
51
332.2680723
0
ARC
8
right_labelLayer
10
99.4320334
20
36.70436
40
0.1834691
50
269.1789348
51
314.2807719
0
ARC
8
right_labelLayer
10
99.4273204
20
36.7206703
40
0.1997713
50
250.4999246
51
270.5976949
0
ARC
8
right_labelLayer
10
99.4212739
20
36.6980626
40
0.1764518
50
225.1300376
51
249.9001811
0
ARC
8
right_labelLayer
10
99.4118095
20
36.6876077
40
0.1623666
50
197.7935211
51
224.8941566
0
ARC
8
right_labelLayer
10
99.5004048
20
36.7179668
40
0.2560077
50
184.9925075
51
198.2038074
0
ARC
8
right_labelLayer
10
99.6150563
20
36.7304288
40
0.3713169
50
179.8805674
51
185.36857
0
LINE
8
right_labelLayer
10
101.232998
20
36.168527
11
101.9510254
21
36.168527
0
LINE
8
right_labelLayer
10
101.9510254
20
36.168527
11
101.9510254
21
35.9696012
0
LINE
8
right_labelLayer
10
101.9510254
20
35.9696012
11
101.5664355
21
35.9241325
0
LINE
8
right_labelLayer
10
100.8578808
20
34.4217692
11
101.2254199
21
34.4217692
0
LINE
8
right_labelLayer
10
101.1250098
20
34.1394841
11
100.747998
21
34.1394841
0
ARC
8
right_labelLayer
10
101.1656512
20
35.6069589
40
0.5111038
50
29.458466
51
38.3574638
0
ARC
8
right_labelLayer
10
100.9568156
20
35.4877424
40
0.7515703
50
23.1846146
51
29.5422917
0
ARC
8
right_labelLayer
10
100.7575132
20
35.3993609
40
0.9695766
50
21.2506696
51
23.3488649
0
ARC
8
right_labelLayer
10
101.0962603
20
35.534082
40
0.6050399
50
6.8505287
51
20.9872215
0
ARC
8
right_labelLayer
10
100.9258589
20
35.510977
40
0.776985
50
359.8711838
51
7.043331
0
ARC
8
right_labelLayer
10
100.9819198
20
35.5017343
40
0.7209609
50
342.5649926
51
0.5957201
0
ARC
8
right_labelLayer
10
101.114889
20
35.4650164
40
0.5831191
50
310.6097797
51
342.092395
0
ARC
8
right_labelLayer
10
101.0403257
20
35.5517474
40
0.6974952
50
284.9315878
51
310.6222582
0
ARC
8
right_labelLayer
10
100.9470191
20
35.8787038
40
1.0374704
50
272.5335139
51
285.2580143
0
ARC
8
right_labelLayer
10
100.9230256
20
36.2064905
40
1.3660302
50
269.9693529
51
272.9311667
0
ARC
8
right_labelLayer
10
100.920052
20
35.8511935
40
1.0107353
50
263.4837262
51
270.1271433
0
ARC
8
right_labelLayer
10
100.9035964
20
35.6948643
40
0.8535497
50
259.4965009
51
263.3903039
0
ARC
8
right_labelLayer
10
101.0054766
20
34.3587506
40
0.5596171
50
117.3934195
51
128.4096259
0
ARC
8
right_labelLayer
10
100.8614155
20
34.5374682
40
0.3300789
50
128.0882908
51
147.1398341
0
ARC
8
right_labelLayer
10
100.783796
20
34.5895582
40
0.2366208
50
147.5369025
51
180.2591448
0
ARC
8
right_labelLayer
10
100.710167
20
34.5864741
40
0.1630017
50
179.2921126
51
198.3578031
0
ARC
8
right_labelLayer
10
100.6796441
20
34.5784529
40
0.1315211
50
199.2291984
51
239.5692652
0
ARC
8
right_labelLayer
10
100.705053
20
34.6135892
40
0.1747351
50
238.2207266
51
239.8446072
0
ARC
8
right_labelLayer
10
100.7251345
20
34.6549404
40
0.2206043
50
240.7299884
51
254.5026756
0
ARC
8
right_labelLayer
10
100.7853446
20
34.8624171
40
0.4366331
50
254.1635153
51
262.2123208
0
ARC
8
right_labelLayer
10
100.8330411
20
35.195576
40
0.773185
50
262.0557612
51
267.2082911
0
ARC
8
right_labelLayer
10
100.8560785
20
35.6181945
40
1.1964265
50
267.0920985
51
270.0863137
0
ARC
8
right_labelLayer
10
101.2322946
20
33.1344414
40
1.2873462
50
81.5744045
51
90.3059731
0
ARC
8
right_labelLayer
10
101.3029114
20
33.5949804
40
0.8214341
50
68.3670338
51
81.7400048
0
ARC
8
right_labelLayer
10
101.3951342
20
33.8306669
40
0.5683507
50
52.1880361
51
68.249996
0
ARC
8
right_labelLayer
10
101.4596712
20
33.9176279
40
0.4600893
50
8.6201588
51
51.8981924
0
ARC
8
right_labelLayer
10
101.2335007
20
33.8697715
40
0.6910082
50
359.7429661
51
9.7326907
0
ARC
8
right_labelLayer
10
101.243622
20
33.8581125
40
0.6809337
50
340.5268694
51
0.7202015
0
ARC
8
right_labelLayer
10
101.3436659
20
33.833203
40
0.5783927
50
302.9903674
51
339.5494441
0
ARC
8
right_labelLayer
10
101.2384008
20
33.9670222
40
0.7481109
50
303.1873274
51
304.1720463
0
ARC
8
right_labelLayer
10
101.1407681
20
34.1361184
40
0.9431295
50
286.2541812
51
302.5280408
0
ARC
8
right_labelLayer
10
100.9626485
20
34.7236334
40
1.5570305
50
276.4939457
51
286.4953984
0
ARC
8
right_labelLayer
10
100.8515103
20
35.652687
40
2.4926984
50
269.7545082
51
276.6169349
0
ARC
8
right_labelLayer
10
100.8325288
20
34.9219911
40
1.7619992
50
262.5634428
51
270.2699389
0
ARC
8
right_labelLayer
10
100.7462294
20
34.282353
40
1.1165751
50
251.2102054
51
262.706414
0
ARC
8
right_labelLayer
10
100.6218416
20
33.9172579
40
0.7308722
50
235.9668806
51
251.2229609
0
ARC
8
right_labelLayer
10
100.4900019
20
33.7291725
40
0.5012318
50
208.9035792
51
236.423128
0
ARC
8
right_labelLayer
10
100.5021058
20
33.7240994
40
0.5094801
50
182.2079821
51
207.746133
0
ARC
8
right_labelLayer
10
100.6563311
20
33.7394917
40
0.664251
50
179.9787596
51
183.022189
0
ARC
8
right_labelLayer
10
100.4728796
20
33.7481743
40
0.4808735
50
138.3915748
51
181.0052363
0
ARC
8
right_labelLayer
10
100.5236598
20
33.7025392
40
0.5491456
50
113.8121119
51
138.3496798
0
ARC
8
right_labelLayer
10
100.6199839
20
33.4945368
40
0.7783425
50
102.2870107
51
114.1173001
0
ARC
8
right_labelLayer
10
100.5897177
20
34.5520546
40
0.3264001
50
216.5860291
51
245.496903
0
ARC
8
right_labelLayer
10
100.6364897
20
34.5917333
40
0.3876266
50
215.4654389
51
217.1747734
0
ARC
8
right_labelLayer
10
100.5586152
20
34.5354829
40
0.291564
50
182.1767234
51
215.3415775
0
ARC
8
right_labelLayer
10
100.6277315
20
34.5429126
40
0.3609444
50
179.983075
51
182.9385564
0
ARC
8
right_labelLayer
10
100.6264145
20
34.5460594
40
0.3596402
50
161.7226299
51
180.4843447
0
ARC
8
right_labelLayer
10
100.5868737
20
34.556848
40
0.318718
50
144.4963619
51
161.33498
0
ARC
8
right_labelLayer
10
100.6922805
20
34.4782885
40
0.4501596
50
132.7259022
51
144.1478602
0
ARC
8
right_labelLayer
10
100.8612274
20
34.2978712
40
0.6973269
50
125.2213838
51
132.8654211
0
ARC
8
right_labelLayer
10
101.0310381
20
34.0620676
40
0.9879018
50
121.2351676
51
125.3795272
0
ARC
8
right_labelLayer
10
100.7299687
20
35.4160385
40
0.5513297
50
215.1640441
51
247.4747753
0
ARC
8
right_labelLayer
10
100.8328893
20
35.4990969
40
0.6833574
50
212.4712465
51
215.8873764
0
ARC
8
right_labelLayer
10
100.8058189
20
35.4797335
40
0.6501261
50
183.0160628
51
212.3123741
0
ARC
8
right_labelLayer
10
100.948546
20
35.4956384
40
0.7935364
50
179.9761718
51
183.6206415
0
ARC
8
right_labelLayer
10
101.0635966
20
35.5036435
40
0.9086193
50
166.8195949
51
180.4839826
0
ARC
8
right_labelLayer
10
100.7621728
20
35.5797461
40
0.5978071
50
132.3287694
51
167.3340709
0
ARC
8
right_labelLayer
10
100.8025009
20
35.5217777
40
0.6678828
50
106.2189609
51
131.5377205
0
ARC
8
right_labelLayer
10
100.9045317
20
35.191412
40
1.0136145
50
93.6329093
51
106.5409397
0
ARC
8
right_labelLayer
10
100.9378433
20
34.8173942
40
1.3890241
50
89.9380298
51
94.0266544
0
ARC
8
right_labelLayer
10
100.9432385
20
35.000966
40
1.205458
50
82.5852427
51
90.1850279
0
ARC
8
right_labelLayer
10
100.9800733
20
35.2859588
40
0.9180946
50
74.0088575
51
82.5695267
0
ARC
8
right_labelLayer
10
100.6110291
20
33.739231
40
0.3158533
50
179.2206739
51
200.9356069
0
ARC
8
right_labelLayer
10
100.57347
20
33.7305341
40
0.2777166
50
202.028677
51
236.14572
0
ARC
8
right_labelLayer
10
100.6301337
20
33.8024925
40
0.3691071
50
235.0637146
51
238.5034838
0
ARC
8
right_labelLayer
10
100.6958909
20
33.9199621
40
0.5036526
50
239.1066784
51
254.4862932
0
ARC
8
right_labelLayer
10
100.783634
20
34.2224932
40
0.8186382
50
254.232327
51
263.4937958
0
ARC
8
right_labelLayer
10
100.8387537
20
34.6893284
40
1.2887137
50
263.4107779
51
270.1457455
0
ARC
8
right_labelLayer
10
100.8447466
20
35.0717735
40
1.6711568
50
269.906926
51
269.99563
0
ARC
8
right_labelLayer
10
100.8521563
20
35.5147484
40
2.114145
50
269.7957346
51
275.3991893
0
ARC
8
right_labelLayer
10
100.9312865
20
34.7024455
40
1.2980026
50
275.295625
51
283.351656
0
ARC
8
right_labelLayer
10
101.0602011
20
34.1714826
40
0.7516264
50
283.1369608
51
295.8573436
0
ARC
8
right_labelLayer
10
101.1557516
20
33.9628966
40
0.5222745
50
296.404422
51
301.801207
0
ARC
8
right_labelLayer
10
101.1931726
20
33.9113295
40
0.458752
50
301.223067
51
318.6239234
0
ARC
8
right_labelLayer
10
101.2776419
20
33.8333035
40
0.3438032
50
319.076491
51
1.1407483
0
ARC
8
right_labelLayer
10
101.1958917
20
33.8435198
40
0.4254986
50
359.545976
51
10.9903698
0
ARC
8
right_labelLayer
10
101.3602447
20
33.8769477
40
0.2577912
50
10.6610215
51
30.9361457
0
ARC
8
right_labelLayer
10
101.4123584
20
33.9058689
40
0.1982333
50
31.5095337
51
58.0777741
0
ARC
8
right_labelLayer
10
101.3635193
20
33.8184224
40
0.2983179
50
58.9970175
51
73.8587279
0
ARC
8
right_labelLayer
10
101.2647999
20
33.4952478
40
0.6362168
50
73.4099586
51
81.5907896
0
ARC
8
right_labelLayer
10
101.1811517
20
32.9539239
40
1.1839591
50
81.417319
51
86.5756448
0
ARC
8
right_labelLayer
10
101.1298936
20
32.1383656
40
2.0011245
50
86.5054187
51
90.1398331
0
ARC
8
right_labelLayer
10
100.7434991
20
33.4165748
40
0.7229233
50
89.6434301
51
100.0208658
0
ARC
8
right_labelLayer
10
100.6980612
20
33.6637512
40
0.4716142
50
99.8101713
51
116.8230189
0
ARC
8
right_labelLayer
10
100.6538016
20
33.7570882
40
0.3683576
50
117.230471
51
130.5024381
0
ARC
8
right_labelLayer
10
100.6310775
20
33.7862931
40
0.3313963
50
130.7944671
51
169.0413071
0
ARC
8
right_labelLayer
10
100.7984131
20
33.7468833
40
0.5032193
50
168.257895
51
180.3821481
0
ARC
8
right_labelLayer
10
101.0795696
20
35.4988503
40
0.6138747
50
179.5616746
51
191.6529409
0
ARC
8
right_labelLayer
10
100.8661342
20
35.452736
40
0.3955294
50
191.3554696
51
213.366124
0
ARC
8
right_labelLayer
10
100.814886
20
35.4231466
40
0.3364724
50
213.9576227
51
227.7969884
0
ARC
8
right_labelLayer
10
100.8594751
20
35.4772288
40
0.4065015
50
228.262123
51
254.7340562
0
ARC
8
right_labelLayer
10
100.9164485
20
35.6725391
40
0.6099313
50
254.4017131
51
267.4347796
0
ARC
8
right_labelLayer
10
100.9313148
20
35.8720205
40
0.8098999
50
267.0157358
51
270.0320302
0
ARC
8
right_labelLayer
10
100.9410259
20
35.7471963
40
0.685138
50
269.2257361
51
284.3773496
0
ARC
8
right_labelLayer
10
101.0344096
20
35.4218473
40
0.3469257
50
282.7796687
51
346.4828873
0
ARC
8
right_labelLayer
10
100.7552262
20
35.5009295
40
0.6369666
50
345.4361139
51
0.7466719
0
ARC
8
right_labelLayer
10
100.7159776
20
35.518901
40
0.6762302
50
359.1805754
51
15.0432086
0
ARC
8
right_labelLayer
10
101.0223873
20
35.6082844
40
0.3571864
50
13.9535778
51
77.6673715
0
ARC
8
right_labelLayer
10
100.9344736
20
35.2932389
40
0.683992
50
76.1094984
51
90.7027884
0
ARC
8
right_labelLayer
10
100.9213151
20
35.3172966
40
0.6599
50
89.5859359
51
101.3332931
0
ARC
8
right_labelLayer
10
100.8741568
20
35.542228
40
0.430092
50
101.0620484
51
121.9739515
0
ARC
8
right_labelLayer
10
100.8410123
20
35.6018511
40
0.3619798
50
122.5210501
51
134.9967773
0
ARC
8
right_labelLayer
10
100.8546611
20
35.5936717
40
0.3774343
50
135.5840036
51
163.0015459
0
ARC
8
right_labelLayer
10
101.0539682
20
35.5283454
40
0.5871471
50
162.5911357
51
175.7343811
0
ARC
8
right_labelLayer
10
101.2930039
20
35.5047963
40
0.8272919
50
175.339314
51
180.086555
0
LINE
8
right_labelLayer
10
104.1126855
20
34.0921208
11
103.7981933
21
34.0921208
0
LINE
8
right_labelLayer
10
103.7981933
20
34.0921208
11
103.7981933
21
35.4353434
0
LINE
8
right_labelLayer
10
102.6917871
20
35.1776872
11
102.6917871
21
34.0921208
0
LINE
8
right_labelLayer
10
102.6917871
20
34.0921208
11
102.3772949
21
34.0921208
0
LINE
8
right_labelLayer
10
102.3772949
20
34.0921208
11
102.3772949
21
37.0400114
0
LINE
8
right_labelLayer
10
102.3772949
20
37.0400114
11
102.6917871
21
37.0400114
0
LINE
8
right_labelLayer
10
102.6917871
20
37.0400114
11
102.6917871
21
36.1476872
0
LINE
8
right_labelLayer
10
102.6766308
20
35.8805583
11
102.6955762
21
35.8805583
0
LINE
8
right_labelLayer
10
104.1126855
20
35.4467106
11
104.1126855
21
34.0921208
0
ARC
8
right_labelLayer
10
102.9091992
20
35.4404405
40
0.8890088
50
359.6714985
51
8.6876233
0
ARC
8
right_labelLayer
10
103.2387037
20
35.4926958
40
0.555395
50
8.4931634
51
22.6580362
0
ARC
8
right_labelLayer
10
103.4061041
20
35.5622626
40
0.3741154
50
22.7024484
51
42.3419804
0
ARC
8
right_labelLayer
10
103.4249197
20
35.5707257
40
0.3545659
50
43.3791411
51
71.5385394
0
ARC
8
right_labelLayer
10
103.3545537
20
35.374102
40
0.5633711
50
71.0828568
51
84.368993
0
ARC
8
right_labelLayer
10
103.3229696
20
35.1055639
40
0.8337278
50
84.0197224
51
90.151064
0
ARC
8
right_labelLayer
10
103.3139936
20
34.9876078
40
0.9517051
50
89.5919459
51
100.3594468
0
ARC
8
right_labelLayer
10
103.2466064
20
35.3417465
40
0.5912271
50
100.1068568
51
118.0846287
0
ARC
8
right_labelLayer
10
103.1780631
20
35.4762458
40
0.4403053
50
118.455023
51
139.6706267
0
ARC
8
right_labelLayer
10
103.2468748
20
35.4292112
40
0.5232746
50
140.6207989
51
160.5048617
0
ARC
8
right_labelLayer
10
103.6095781
20
35.2949405
40
0.9100105
50
160.1567375
51
171.5313121
0
ARC
8
right_labelLayer
10
104.1964065
20
35.201962
40
1.5041436
50
171.320164
51
178.34076
0
ARC
8
right_labelLayer
10
104.7215436
20
35.1785007
40
2.0297566
50
178.107989
51
180.0229633
0
ARC
8
right_labelLayer
10
99.8623819
20
36.1443198
40
2.8294072
50
357.8675585
51
0.06819
0
ARC
8
right_labelLayer
10
100.8237115
20
36.107652
40
1.8673792
50
354.9829191
51
357.8943063
0
ARC
8
right_labelLayer
10
101.4583833
20
36.0523908
40
1.2303063
50
351.9714543
51
354.9617632
0
ARC
8
right_labelLayer
10
103.2282725
20
35.5473381
40
0.6283319
50
119.831581
51
147.9725835
0
ARC
8
right_labelLayer
10
103.3043405
20
35.4304877
40
0.7675792
50
116.6656931
51
120.4183655
0
ARC
8
right_labelLayer
10
103.318564
20
35.3931387
40
0.8073492
50
96.6652711
51
116.3782002
0
ARC
8
right_labelLayer
10
103.3491747
20
35.1819358
40
1.0206946
50
89.8928235
51
96.9958897
0
ARC
8
right_labelLayer
10
103.3589622
20
34.9267194
40
1.2759335
50
80.6863124
51
90.3537747
0
ARC
8
right_labelLayer
10
103.4384093
20
35.3940151
40
0.8019452
50
65.6023213
51
80.8844171
0
ARC
8
right_labelLayer
10
103.5338104
20
35.6088829
40
0.5668608
50
46.7401035
51
65.4129962
0
ARC
8
right_labelLayer
10
103.5402965
20
35.6293584
40
0.5475838
50
19.2204275
51
45.7660722
0
ARC
8
right_labelLayer
10
103.224559
20
35.5123117
40
0.8842784
50
6.4733359
51
19.6468107
0
ARC
8
right_labelLayer
10
102.7527754
20
35.4515893
40
1.3599188
50
359.7944504
51
6.7744088
0
LINE
8
right_labelLayer
10
105.7135644
20
34.3516716
11
105.7135644
21
34.1110661
0
LINE
8
right_labelLayer
10
104.7814551
20
34.6888981
11
104.7814551
21
35.9241325
0
LINE
8
right_labelLayer
10
104.7814551
20
35.9241325
11
104.4840137
21
35.9241325
0
LINE
8
right_labelLayer
10
104.4840137
20
35.9241325
11
104.4840137
21
36.075695
0
LINE
8
right_labelLayer
10
104.4840137
20
36.075695
11
104.7814551
21
36.2064177
0
LINE
8
right_labelLayer
10
104.7814551
20
36.2064177
11
104.9140723
21
36.649738
0
LINE
8
right_labelLayer
10
104.9140723
20
36.649738
11
105.0959473
21
36.649738
0
LINE
8
right_labelLayer
10
105.0959473
20
36.649738
11
105.0959473
21
36.168527
0
LINE
8
right_labelLayer
10
105.0959473
20
36.168527
11
105.6984082
21
36.168527
0
LINE
8
right_labelLayer
10
105.6984082
20
36.168527
11
105.6984082
21
35.9241325
0
LINE
8
right_labelLayer
10
105.6984082
20
35.9241325
11
105.0959473
21
35.9241325
0
LINE
8
right_labelLayer
10
105.0959473
20
35.9241325
11
105.0959473
21
34.7021598
0
ARC
8
right_labelLayer
10
105.4315414
20
35.3466214
40
1.0328427
50
269.8803596
51
278.3027776
0
ARC
8
right_labelLayer
10
105.4411655
20
35.2676324
40
0.9532937
50
278.4159628
51
279.0076949
0
ARC
8
right_labelLayer
10
105.3254357
20
36.006912
40
1.7015761
50
278.9590613
51
280.5102323
0
ARC
8
right_labelLayer
10
105.4359514
20
35.4138805
40
1.098335
50
280.4848775
51
282.6271989
0
ARC
8
right_labelLayer
10
105.5327921
20
34.9836789
40
0.657369
50
282.5876736
51
285.5795497
0
ARC
8
right_labelLayer
10
105.5816419
20
34.8040495
40
0.4712211
50
285.7241402
51
286.2577539
0
ARC
8
right_labelLayer
10
105.5813328
20
34.3907458
40
0.3093637
50
287.9892804
51
295.3046276
0
ARC
8
right_labelLayer
10
105.5067305
20
34.616456
40
0.5470814
50
283.3071231
51
288.1198968
0
ARC
8
right_labelLayer
10
105.4279195
20
34.9452054
40
0.8851444
50
280.0070009
51
283.3735678
0
ARC
8
right_labelLayer
10
105.3750784
20
35.2320358
40
1.1767952
50
279.1863548
51
280.1138757
0
ARC
8
right_labelLayer
10
105.3428111
20
35.4155108
40
1.3630709
50
275.5260988
51
279.2940636
0
ARC
8
right_labelLayer
10
105.3792882
20
35.0345325
40
0.9803504
50
270.8932662
51
275.5483277
0
ARC
8
right_labelLayer
10
105.3838563
20
34.8628282
40
0.808598
50
270.0042318
51
270.7592942
0
ARC
8
right_labelLayer
10
105.3712248
20
34.8755376
40
0.8214055
50
253.7847889
51
270.8852925
0
ARC
8
right_labelLayer
10
105.2739103
20
34.5436586
40
0.4755547
50
190.3817632
51
253.8772473
0
ARC
8
right_labelLayer
10
105.7699193
20
34.677771
40
0.9885268
50
179.3550479
51
192.8477653
0
ARC
8
right_labelLayer
10
105.7292305
20
34.6982001
40
0.6332956
50
179.6417525
51
189.7504842
0
ARC
8
right_labelLayer
10
105.505658
20
34.6583248
40
0.4062021
50
189.5479961
51
205.7873505
0
ARC
8
right_labelLayer
10
105.4137759
20
34.615954
40
0.3050429
50
206.1292662
51
221.4086157
0
ARC
8
right_labelLayer
10
105.4034818
20
34.6081431
40
0.2921574
50
221.5950324
51
262.3504009
0
ARC
8
right_labelLayer
10
105.4279811
20
34.7341283
40
0.4203497
50
261.3265768
51
270.1913234
0
LINE
8
bottom_outsideCutPath
10
157.2
20
3.1171573
11
157.2
21
7.8
0
LINE
8
bottom_outsideCutPath
10
157.2
20
7.8
11
166.4
21
7.8
0
LINE
8
bottom_outsideCutPath
10
166.4
20
7.8
11
166.4
21
3.1171573
0
LINE
8
bottom_outsideCutPath
10
166.4
20
3.1171573
11
166.5171573
21
3
0
LINE
8
bottom_outsideCutPath
10
166.5171573
20
3
11
176.2828427
21
3
0
LINE
8
bottom_outsideCutPath
10
176.2828427
20
3
11
176.4
21
3.1171573
0
LINE
8
bottom_outsideCutPath
10
176.4
20
3.1171573
11
176.4
21
7.8
0
LINE
8
bottom_outsideCutPath
10
176.4
20
7.8
11
185.6
21
7.8
0
LINE
8
bottom_outsideCutPath
10
185.6
20
7.8
11
185.6
21
3.1171573
0
LINE
8
bottom_outsideCutPath
10
185.6
20
3.1171573
11
185.7171573
21
3
0
LINE
8
bottom_outsideCutPath
10
185.7171573
20
3
11
195.4828427
21
3
0
LINE
8
bottom_outsideCutPath
10
195.4828427
20
3
11
195.6
21
3.1171573
0
LINE
8
bottom_outsideCutPath
10
195.6
20
3.1171573
11
195.6
21
7.8
0
LINE
8
bottom_outsideCutPath
10
195.6
20
7.8
11
198.4828427
21
7.8
0
LINE
8
bottom_outsideCutPath
10
198.4828427
20
7.8
11
198.6
21
7.9171573
0
LINE
8
bottom_outsideCutPath
10
198.6
20
7.9171573
11
198.6
21
18.3
0
LINE
8
bottom_outsideCutPath
10
198.6
20
18.3
11
203.2828427
21
18.3
0
LINE
8
bottom_outsideCutPath
10
203.2828427
20
18.3
11
203.4
21
18.4171573
0
LINE
8
bottom_outsideCutPath
10
203.4
20
18.4171573
11
203.4
21
28.1828427
0
LINE
8
bottom_outsideCutPath
10
203.4
20
28.1828427
11
203.2828427
21
28.3
0
LINE
8
bottom_outsideCutPath
10
203.2828427
20
28.3
11
198.6
21
28.3
0
LINE
8
bottom_outsideCutPath
10
198.6
20
28.3
11
198.6
21
37.5
0
LINE
8
bottom_outsideCutPath
10
198.6
20
37.5
11
203.2828427
21
37.5
0
LINE
8
bottom_outsideCutPath
10
203.2828427
20
37.5
11
203.4
21
37.6171573
0
LINE
8
bottom_outsideCutPath
10
203.4
20
37.6171573
11
203.4
21
47.3828427
0
LINE
8
bottom_outsideCutPath
10
203.4
20
47.3828427
11
203.2828427
21
47.5
0
LINE
8
bottom_outsideCutPath
10
203.2828427
20
47.5
11
198.6
21
47.5
0
LINE
8
bottom_outsideCutPath
10
198.6
20
47.5
11
198.6
21
56.7
0
LINE
8
bottom_outsideCutPath
10
198.6
20
56.7
11
203.2828427
21
56.7
0
LINE
8
bottom_outsideCutPath
10
203.2828427
20
56.7
11
203.4
21
56.8171573
0
LINE
8
bottom_outsideCutPath
10
203.4
20
56.8171573
11
203.4
21
66.5828427
0
LINE
8
bottom_outsideCutPath
10
203.4
20
66.5828427
11
203.2828427
21
66.7
0
LINE
8
bottom_outsideCutPath
10
203.2828427
20
66.7
11
198.6
21
66.7
0
LINE
8
bottom_outsideCutPath
10
198.6
20
66.7
11
198.6
21
77.0828427
0
LINE
8
bottom_outsideCutPath
10
198.6
20
77.0828427
11
198.4828427
21
77.2
0
LINE
8
bottom_outsideCutPath
10
198.4828427
20
77.2
11
195.6
21
77.2
0
LINE
8
bottom_outsideCutPath
10
195.6
20
77.2
11
195.6
21
81.8828427
0
LINE
8
bottom_outsideCutPath
10
195.6
20
81.8828427
11
195.4828427
21
82
0
LINE
8
bottom_outsideCutPath
10
195.4828427
20
82
11
185.7171573
21
82
0
LINE
8
bottom_outsideCutPath
10
185.7171573
20
82
11
185.6
21
81.8828427
0
LINE
8
bottom_outsideCutPath
10
185.6
20
81.8828427
11
185.6
21
77.2
0
LINE
8
bottom_outsideCutPath
10
185.6
20
77.2
11
176.4
21
77.2
0
LINE
8
bottom_outsideCutPath
10
176.4
20
77.2
11
176.4
21
81.8828427
0
LINE
8
bottom_outsideCutPath
10
176.4
20
81.8828427
11
176.2828427
21
82
0
LINE
8
bottom_outsideCutPath
10
176.2828427
20
82
11
166.5171573
21
82
0
LINE
8
bottom_outsideCutPath
10
166.5171573
20
82
11
166.4
21
81.8828427
0
LINE
8
bottom_outsideCutPath
10
166.4
20
81.8828427
11
166.4
21
77.2
0
LINE
8
bottom_outsideCutPath
10
166.4
20
77.2
11
157.2
21
77.2
0
LINE
8
bottom_outsideCutPath
10
157.2
20
77.2
11
157.2
21
81.8828427
0
LINE
8
bottom_outsideCutPath
10
157.2
20
81.8828427
11
157.0828427
21
82
0
LINE
8
bottom_outsideCutPath
10
157.0828427
20
82
11
147.3171573
21
82
0
LINE
8
bottom_outsideCutPath
10
147.3171573
20
82
11
147.2
21
81.8828427
0
LINE
8
bottom_outsideCutPath
10
147.2
20
81.8828427
11
147.2
21
77.2
0
LINE
8
bottom_outsideCutPath
10
147.2
20
77.2
11
144.3171573
21
77.2
0
LINE
8
bottom_outsideCutPath
10
144.3171573
20
77.2
11
144.2
21
77.0828427
0
LINE
8
bottom_outsideCutPath
10
144.2
20
77.0828427
11
144.2
21
66.7
0
LINE
8
bottom_outsideCutPath
10
144.2
20
66.7
11
139.5171573
21
66.7
0
LINE
8
bottom_outsideCutPath
10
139.5171573
20
66.7
11
139.4
21
66.5828427
0
LINE
8
bottom_outsideCutPath
10
139.4
20
66.5828427
11
139.4
21
56.8171573
0
LINE
8
bottom_outsideCutPath
10
139.4
20
56.8171573
11
139.5171573
21
56.7
0
LINE
8
bottom_outsideCutPath
10
139.5171573
20
56.7
11
144.2
21
56.7
0
LINE
8
bottom_outsideCutPath
10
144.2
20
56.7
11
144.2
21
47.5
0
LINE
8
bottom_outsideCutPath
10
144.2
20
47.5
11
139.5171573
21
47.5
0
LINE
8
bottom_outsideCutPath
10
139.5171573
20
47.5
11
139.4
21
47.3828427
0
LINE
8
bottom_outsideCutPath
10
139.4
20
47.3828427
11
139.4
21
37.6171573
0
LINE
8
bottom_outsideCutPath
10
139.4
20
37.6171573
11
139.5171573
21
37.5
0
LINE
8
bottom_outsideCutPath
10
139.5171573
20
37.5
11
144.2
21
37.5
0
LINE
8
bottom_outsideCutPath
10
144.2
20
37.5
11
144.2
21
28.3
0
LINE
8
bottom_outsideCutPath
10
144.2
20
28.3
11
139.5171573
21
28.3
0
LINE
8
bottom_outsideCutPath
10
139.5171573
20
28.3
11
139.4
21
28.1828427
0
LINE
8
bottom_outsideCutPath
10
139.4
20
28.1828427
11
139.4
21
18.4171573
0
LINE
8
bottom_outsideCutPath
10
139.4
20
18.4171573
11
139.5171573
21
18.3
0
LINE
8
bottom_outsideCutPath
10
139.5171573
20
18.3
11
144.2
21
18.3
0
LINE
8
bottom_outsideCutPath
10
144.2
20
18.3
11
144.2
21
7.9171573
0
LINE
8
bottom_outsideCutPath
10
144.2
20
7.9171573
11
144.3171573
21
7.8
0
LINE
8
bottom_outsideCutPath
10
144.3171573
20
7.8
11
147.2
21
7.8
0
LINE
8
bottom_outsideCutPath
10
147.2
20
7.8
11
147.2
21
3.1171573
0
LINE
8
bottom_outsideCutPath
10
147.2
20
3.1171573
11
147.3171573
21
3
0
LINE
8
bottom_outsideCutPath
10
147.3171573
20
3
11
157.0828427
21
3
0
LINE
8
bottom_outsideCutPath
10
157.0828427
20
3
11
157.2
21
3.1171573
0
LINE
8
bottom_labelLayer
10
151.3812197
20
38.5814117
11
151.3062197
21
38.5814117
0
LINE
8
bottom_labelLayer
10
151.3062197
20
38.5814117
11
151.0874697
21
37.7001617
0
LINE
8
bottom_labelLayer
10
151.0874697
20
37.7001617
11
150.3437197
21
37.7001617
0
LINE
8
bottom_labelLayer
10
150.3437197
20
37.7001617
11
150.3437197
21
47.4251617
0
LINE
8
bottom_labelLayer
10
150.3437197
20
47.4251617
11
151.3812197
21
47.4251617
0
LINE
8
bottom_labelLayer
10
151.3812197
20
47.4251617
11
151.3812197
21
45.0626617
0
LINE
8
bottom_labelLayer
10
151.3312197
20
43.6376617
11
151.3812197
21
43.6376617
0
ARC
8
bottom_labelLayer
10
153.5623427
20
41.4918524
40
3.170962
50
74.2393308
51
90.5623671
0
ARC
8
bottom_labelLayer
10
153.7720182
20
42.2610556
40
2.3737361
50
38.5631163
51
74.0670386
0
ARC
8
bottom_labelLayer
10
153.2324311
20
41.8414948
40
3.0572069
50
16.4709237
51
38.4075261
0
ARC
8
bottom_labelLayer
10
151.6779703
20
41.3540595
40
4.6861565
50
5.1338403
51
16.797357
0
ARC
8
bottom_labelLayer
10
149.715562
20
41.1455977
40
6.659423
50
359.8779473
51
5.4093679
0
ARC
8
bottom_labelLayer
10
150.2919692
20
41.0955229
40
6.0831063
50
350.6562849
51
0.3380325
0
ARC
8
bottom_labelLayer
10
152.4126408
20
40.7348201
40
3.9320261
50
335.8305982
51
350.8254869
0
ARC
8
bottom_labelLayer
10
153.3454864
20
40.3321903
40
2.9161402
50
321.31615
51
335.5436285
0
ARC
8
bottom_labelLayer
10
153.7021181
20
40.0415896
40
2.4561222
50
274.0639992
51
321.4081068
0
ARC
8
bottom_labelLayer
10
153.5359748
20
41.0940005
40
3.518842
50
269.9225747
51
275.5481659
0
ARC
8
bottom_labelLayer
10
153.5137229
20
40.7220736
40
3.1469606
50
255.7755446
51
270.3185598
0
ARC
8
bottom_labelLayer
10
153.4239201
20
40.3230813
40
2.7381566
50
245.9801453
51
255.5455507
0
ARC
8
bottom_labelLayer
10
153.2499722
20
39.9185676
40
2.2978733
50
215.5850063
51
245.8361798
0
ARC
8
bottom_labelLayer
10
129.7498808
20
45.0443805
40
21.6313466
50
358.1123304
51
0.0484221
0
ARC
8
bottom_labelLayer
10
135.7702681
20
44.8422636
40
15.6075691
50
355.7238866
51
358.1258954
0
ARC
8
bottom_labelLayer
10
138.4361869
20
44.6590143
40
12.9354177
50
355.4713355
51
355.6528409
0
ARC
8
bottom_labelLayer
10
153.316112
20
42.2884091
40
2.358875
50
95.1835145
51
145.1108958
0
ARC
8
bottom_labelLayer
10
153.5234496
20
41.1192251
40
3.5434453
50
89.8743613
51
96.8145675
0
ARC
8
bottom_labelLayer
10
153.3594991
20
40.8785301
40
2.9154625
50
89.5731344
51
100.7324242
0
ARC
8
bottom_labelLayer
10
153.1436735
20
41.9689559
40
1.8039417
50
100.446944
51
119.6700786
0
ARC
8
bottom_labelLayer
10
152.9435385
20
42.343132
40
1.3798024
50
120.1402954
51
142.4248946
0
ARC
8
bottom_labelLayer
10
153.2746456
20
42.1240946
40
1.7760177
50
143.3382438
51
161.2560046
0
ARC
8
bottom_labelLayer
10
154.6592795
20
41.6325025
40
3.2452496
50
160.8926338
51
171.2334106
0
ARC
8
bottom_labelLayer
10
156.9707793
20
41.259606
40
5.5866017
50
171.0667982
51
177.8456725
0
ARC
8
bottom_labelLayer
10
159.3743812
20
41.1373503
40
7.9931637
50
177.6176197
51
180.0425687
0
ARC
8
bottom_labelLayer
10
158.2409956
20
41.1046234
40
6.8598282
50
179.7762533
51
185.7075433
0
ARC
8
bottom_labelLayer
10
155.5364277
20
40.825954
40
4.1409627
50
185.5924724
51
194.2050675
0
ARC
8
bottom_labelLayer
10
153.8038908
20
40.3763007
40
2.3510832
50
193.9430448
51
208.0218553
0
ARC
8
bottom_labelLayer
10
153.1028941
20
40.019682
40
1.5647905
50
208.5536066
51
217.5605425
0
ARC
8
bottom_labelLayer
10
153.0457904
20
39.9959337
40
1.5051317
50
218.1690508
51
253.8047103
0
ARC
8
bottom_labelLayer
10
153.3249632
20
40.8566527
40
2.4097221
50
253.1382451
51
266.8483051
0
ARC
8
bottom_labelLayer
10
153.4032503
20
41.7799074
40
3.3359971
50
266.3775592
51
270.0509983
0
ARC
8
bottom_labelLayer
10
153.4283518
20
40.5120379
40
2.0682446
50
269.3868714
51
285.863059
0
ARC
8
bottom_labelLayer
10
153.5820083
20
39.9566999
40
1.49206
50
286.0163017
51
326.8497361
0
ARC
8
bottom_labelLayer
10
152.8403773
20
40.4480029
40
2.3816523
50
326.7105115
51
343.666189
0
ARC
8
bottom_labelLayer
10
151.4520799
20
40.8722212
40
3.8332578
50
343.4171479
51
353.6369072
0
ARC
8
bottom_labelLayer
10
149.3552354
20
41.1210273
40
5.9447783
50
353.4934691
51
0.220561
0
ARC
8
bottom_labelLayer
10
149.1703719
20
41.1687212
40
6.129648
50
359.7680969
51
6.3095319
0
ARC
8
bottom_labelLayer
10
151.4792795
20
41.4336826
40
3.8056193
50
6.1648739
51
16.0396232
0
ARC
8
bottom_labelLayer
10
152.966653
20
41.8720095
40
2.2550608
50
15.7779522
51
32.0151325
0
ARC
8
bottom_labelLayer
10
153.4305082
20
42.1376489
40
1.7210516
50
32.7033423
51
35.5242584
0
ARC
8
bottom_labelLayer
10
153.600101
20
42.2581882
40
1.5129861
50
35.5408535
51
79.8011235
0
ARC
8
bottom_labelLayer
10
153.3969226
20
41.3944429
40
2.3995203
50
78.6781036
51
90.3749583
0
ARC
8
bottom_labelLayer
10
158.7409711
20
41.0952841
40
5.3591204
50
349.1761977
51
0.386253
0
ARC
8
bottom_labelLayer
10
160.5452604
20
40.7355968
40
3.5194149
50
330.250725
51
349.4116365
0
ARC
8
bottom_labelLayer
10
161.1005252
20
40.4469952
40
2.894233
50
318.1439916
51
329.7565961
0
ARC
8
bottom_labelLayer
10
161.200752
20
40.3666734
40
2.7659951
50
278.8959152
51
317.9979181
0
ARC
8
bottom_labelLayer
10
160.9425292
20
41.6038375
40
4.028714
50
269.7502709
51
279.8033305
0
ARC
8
bottom_labelLayer
10
160.9006497
20
40.9067795
40
3.3317066
50
253.5437
51
270.4182366
0
ARC
8
bottom_labelLayer
10
160.7897437
20
40.4777656
40
2.8888887
50
238.811555
51
253.242833
0
ARC
8
bottom_labelLayer
10
160.7539515
20
40.4057866
40
2.8087856
50
207.794715
51
238.6757902
0
ARC
8
bottom_labelLayer
10
161.2675742
20
40.7203515
40
3.4100521
50
205.6559965
51
208.4460899
0
ARC
8
bottom_labelLayer
10
161.6631539
20
40.8851768
40
3.8380627
50
188.9102311
51
205.3171546
0
ARC
8
bottom_labelLayer
10
162.9963719
20
41.110983
40
5.1901927
50
179.7744823
51
189.0932991
0
ARC
8
bottom_labelLayer
10
163.1930409
20
41.1678984
40
5.3869448
50
169.2442971
51
180.3880768
0
ARC
8
bottom_labelLayer
10
161.3636741
20
41.529498
40
3.5222614
50
150.7111394
51
169.4695467
0
ARC
8
bottom_labelLayer
10
160.7796843
20
41.8293998
40
2.8663121
50
138.1759462
51
150.2287565
0
ARC
8
bottom_labelLayer
10
160.6825449
20
41.903942
40
2.7442315
50
99.1759459
51
137.9832705
0
ARC
8
bottom_labelLayer
10
160.9499172
20
40.6456517
40
4.0295539
50
89.7326485
51
100.0759723
0
ARC
8
bottom_labelLayer
10
161.003354
20
41.189068
40
3.4862658
50
73.5222761
51
90.5692141
0
ARC
8
bottom_labelLayer
10
161.2078027
20
41.9318856
40
2.7160048
50
41.1445777
51
73.2133785
0
ARC
8
bottom_labelLayer
10
160.8175246
20
41.5964486
40
3.2306116
50
13.5014487
51
41.0703298
0
ARC
8
bottom_labelLayer
10
159.3096997
20
41.201872
40
4.7889926
50
1.127717
51
13.8799976
0
ARC
8
bottom_labelLayer
10
158.0105999
20
41.1322724
40
6.0893697
50
359.9919013
51
1.5418956
0
ARC
8
bottom_labelLayer
10
164.1350497
20
41.1044507
40
5.2538992
50
179.7059781
51
187.9160631
0
ARC
8
bottom_labelLayer
10
162.2080777
20
40.8276446
40
3.3071788
50
187.7639269
51
200.097662
0
ARC
8
bottom_labelLayer
10
161.1465171
20
40.4386889
40
2.1766049
50
200.0845888
51
216.9131539
0
ARC
8
bottom_labelLayer
10
160.7588746
20
40.1618945
40
1.7004617
50
217.3009621
51
261.7098973
0
ARC
8
bottom_labelLayer
10
160.9388298
20
41.0206132
40
2.5767256
50
260.5032827
51
270.2477049
0
ARC
8
bottom_labelLayer
10
160.9731801
20
40.8536426
40
2.4098427
50
269.4481477
51
284.7255754
0
ARC
8
bottom_labelLayer
10
161.1639534
20
40.1461286
40
1.6770812
50
284.5662171
51
322.6333951
0
ARC
8
bottom_labelLayer
10
160.7179102
20
40.4683742
40
2.2272051
50
323.0089531
51
342.6390295
0
ARC
8
bottom_labelLayer
10
159.4421571
20
40.8853277
40
3.5692967
50
342.3615493
51
353.7537559
0
ARC
8
bottom_labelLayer
10
157.5599635
20
41.1122016
40
5.4650401
50
353.5363042
51
0.2014002
0
ARC
8
bottom_labelLayer
10
157.8483686
20
41.1578345
40
5.1766685
50
359.7075492
51
7.8972825
0
ARC
8
bottom_labelLayer
10
159.7441906
20
41.4296188
40
3.2614956
50
7.7440009
51
20.068999
0
ARC
8
bottom_labelLayer
10
160.8006395
20
41.8172942
40
2.1361635
50
20.0257148
51
37.4350651
0
ARC
8
bottom_labelLayer
10
161.1511572
20
42.0660172
40
1.7067193
50
37.9577588
51
80.4006146
0
ARC
8
bottom_labelLayer
10
160.9519699
20
41.1772602
40
2.6166916
50
79.3453557
51
90.3175015
0
ARC
8
bottom_labelLayer
10
160.9150867
20
41.3248812
40
2.469132
50
89.4805987
51
103.8804924
0
ARC
8
bottom_labelLayer
10
160.7076158
20
42.1149309
40
1.6524241
50
103.4685187
51
142.3118784
0
ARC
8
bottom_labelLayer
10
161.1109549
20
41.8312746
40
2.1451374
50
142.9025731
51
162.3749653
0
ARC
8
bottom_labelLayer
10
162.3818838
20
41.4077415
40
3.4846979
50
162.0653283
51
173.1674836
0
ARC
8
bottom_labelLayer
10
164.3635844
20
41.1549887
40
5.4824152
50
173.0086324
51
180.2463999
0
LINE
8
bottom_labelLayer
10
169.0687197
20
38.5564117
11
169.0687197
21
37.7626617
0
LINE
8
bottom_labelLayer
10
165.9937197
20
39.6689117
11
165.9937197
21
43.7439117
0
LINE
8
bottom_labelLayer
10
165.9937197
20
43.7439117
11
165.0124697
21
43.7439117
0
LINE
8
bottom_labelLayer
10
165.0124697
20
43.7439117
11
165.0124697
21
44.2439117
0
LINE
8
bottom_labelLayer
10
165.0124697
20
44.2439117
11
165.9937197
21
44.6751617
0
LINE
8
bottom_labelLayer
10
165.9937197
20
44.6751617
11
166.4312197
21
46.1376617
0
LINE
8
bottom_labelLayer
10
166.4312197
20
46.1376617
11
167.0312197
21
46.1376617
0
LINE
8
bottom_labelLayer
10
167.0312197
20
46.1376617
11
167.0312197
21
44.5501617
0
LINE
8
bottom_labelLayer
10
167.0312197
20
44.5501617
11
169.0187197
21
44.5501617
0
LINE
8
bottom_labelLayer
10
169.0187197
20
44.5501617
11
169.0187197
21
43.7439117
0
LINE
8
bottom_labelLayer
10
169.0187197
20
43.7439117
11
167.0312197
21
43.7439117
0
LINE
8
bottom_labelLayer
10
167.0312197
20
43.7439117
11
167.0312197
21
39.7126617
0
ARC
8
bottom_labelLayer
10
168.1383348
20
41.8386942
40
3.40729
50
269.8803552
51
278.3028376
0
ARC
8
bottom_labelLayer
10
168.171046
20
41.5719086
40
3.138583
50
278.4152331
51
279.0081536
0
ARC
8
bottom_labelLayer
10
167.7884715
20
44.0159389
40
5.6123724
50
278.9589645
51
280.5104325
0
ARC
8
bottom_labelLayer
10
168.1528618
20
42.0607915
40
3.6235593
50
280.4846738
51
282.6268854
0
ARC
8
bottom_labelLayer
10
168.4723617
20
40.6413772
40
2.168632
50
282.5875992
51
285.5794866
0
ARC
8
bottom_labelLayer
10
168.6338879
20
40.047585
40
1.5532793
50
285.7228367
51
286.2568848
0
ARC
8
bottom_labelLayer
10
168.6325368
20
38.6852115
40
1.0204674
50
287.9886884
51
295.3048528
0
ARC
8
bottom_labelLayer
10
168.3863854
20
39.4299261
40
1.804802
50
283.3069965
51
288.1197766
0
ARC
8
bottom_labelLayer
10
168.126379
20
40.5145087
40
2.9201116
50
280.006972
51
283.373484
0
ARC
8
bottom_labelLayer
10
167.9522723
20
41.4594462
40
3.8809345
50
279.1863001
51
280.1141261
0
ARC
8
bottom_labelLayer
10
167.8456262
20
42.0659531
40
4.4966962
50
275.5260072
51
279.2939992
0
ARC
8
bottom_labelLayer
10
167.9659602
20
40.8089982
40
3.2339951
50
270.8931735
51
275.548452
0
ARC
8
bottom_labelLayer
10
167.9810736
20
40.2330835
40
2.6579219
50
270.0031497
51
270.7609445
0
ARC
8
bottom_labelLayer
10
167.939354
20
40.2846411
40
2.7098028
50
253.7848088
51
270.8852378
0
ARC
8
bottom_labelLayer
10
167.6183142
20
39.1897713
40
1.5688404
50
190.3817681
51
253.8772459
0
ARC
8
bottom_labelLayer
10
169.2546451
20
39.6322069
40
3.2611322
50
179.355109
51
192.8477738
0
ARC
8
bottom_labelLayer
10
169.1203592
20
39.6995944
40
2.0891804
50
179.6416256
51
189.7505625
0
ARC
8
bottom_labelLayer
10
168.3828382
20
39.5680491
40
1.3400431
50
189.5479359
51
205.7873516
0
ARC
8
bottom_labelLayer
10
168.0797509
20
39.4282871
40
1.0063556
50
206.1294693
51
221.4083812
0
ARC
8
bottom_labelLayer
10
168.0457636
20
39.4024978
40
0.9638122
50
221.5949019
51
262.3505326
0
ARC
8
bottom_labelLayer
10
168.1265907
20
39.8181368
40
1.386733
50
261.3265869
51
270.1912554
0
LINE
8
bottom_labelLayer
10
173.5874697
20
38.5564117
11
173.5874697
21
37.7626617
0
LINE
8
bottom_labelLayer
10
170.5124697
20
39.6689117
11
170.5124697
21
43.7439117
0
LINE
8
bottom_labelLayer
10
170.5124697
20
43.7439117
11
169.5312197
21
43.7439117
0
LINE
8
bottom_labelLayer
10
169.5312197
20
43.7439117
11
169.5312197
21
44.2439117
0
LINE
8
bottom_labelLayer
10
169.5312197
20
44.2439117
11
170.5124697
21
44.6751617
0
LINE
8
bottom_labelLayer
10
170.5124697
20
44.6751617
11
170.9499697
21
46.1376617
0
LINE
8
bottom_labelLayer
10
170.9499697
20
46.1376617
11
171.5499697
21
46.1376617
0
LINE
8
bottom_labelLayer
10
171.5499697
20
46.1376617
11
171.5499697
21
44.5501617
0
LINE
8
bottom_labelLayer
10
171.5499697
20
44.5501617
11
173.5374697
21
44.5501617
0
LINE
8
bottom_labelLayer
10
173.5374697
20
44.5501617
11
173.5374697
21
43.7439117
0
LINE
8
bottom_labelLayer
10
173.5374697
20
43.7439117
11
171.5499697
21
43.7439117
0
LINE
8
bottom_labelLayer
10
171.5499697
20
43.7439117
11
171.5499697
21
39.7126617
0
ARC
8
bottom_labelLayer
10
172.6570848
20
41.8386942
40
3.40729
50
269.8803552
51
278.3028376
0
ARC
8
bottom_labelLayer
10
172.689796
20
41.5719086
40
3.138583
50
278.4152331
51
279.0081536
0
ARC
8
bottom_labelLayer
10
172.3072215
20
44.0159389
40
5.6123724
50
278.9589645
51
280.5104325
0
ARC
8
bottom_labelLayer
10
172.6716118
20
42.0607915
40
3.6235593
50
280.4846738
51
282.6268854
0
ARC
8
bottom_labelLayer
10
172.9911117
20
40.6413772
40
2.168632
50
282.5875992
51
285.5794866
0
ARC
8
bottom_labelLayer
10
173.1526379
20
40.047585
40
1.5532793
50
285.7228367
51
286.2568848
0
ARC
8
bottom_labelLayer
10
173.1512868
20
38.6852115
40
1.0204674
50
287.9886884
51
295.3048528
0
ARC
8
bottom_labelLayer
10
172.9051354
20
39.4299261
40
1.804802
50
283.3069965
51
288.1197766
0
ARC
8
bottom_labelLayer
10
172.645129
20
40.5145087
40
2.9201116
50
280.006972
51
283.373484
0
ARC
8
bottom_labelLayer
10
172.4710223
20
41.4594462
40
3.8809345
50
279.1863001
51
280.1141261
0
ARC
8
bottom_labelLayer
10
172.3643762
20
42.0659531
40
4.4966962
50
275.5260072
51
279.2939992
0
ARC
8
bottom_labelLayer
10
172.4847102
20
40.8089982
40
3.2339951
50
270.8931735
51
275.548452
0
ARC
8
bottom_labelLayer
10
172.4998236
20
40.2330835
40
2.6579219
50
270.0031497
51
270.7609445
0
ARC
8
bottom_labelLayer
10
172.458104
20
40.2846411
40
2.7098028
50
253.7848088
51
270.8852378
0
ARC
8
bottom_labelLayer
10
172.1370642
20
39.1897713
40
1.5688404
50
190.3817681
51
253.8772459
0
ARC
8
bottom_labelLayer
10
173.7733951
20
39.6322069
40
3.2611322
50
179.355109
51
192.8477738
0
ARC
8
bottom_labelLayer
10
173.6391092
20
39.6995944
40
2.0891804
50
179.6416256
51
189.7505625
0
ARC
8
bottom_labelLayer
10
172.9015882
20
39.5680491
40
1.3400431
50
189.5479359
51
205.7873516
0
ARC
8
bottom_labelLayer
10
172.5985009
20
39.4282871
40
1.0063556
50
206.1294693
51
221.4083812
0
ARC
8
bottom_labelLayer
10
172.5645136
20
39.4024978
40
0.9638122
50
221.5949019
51
262.3505326
0
ARC
8
bottom_labelLayer
10
172.6453407
20
39.8181368
40
1.386733
50
261.3265869
51
270.1912554
0
ARC
8
bottom_labelLayer
10
175.5097211
20
41.0952841
40
5.3591204
50
349.1761977
51
0.386253
0
ARC
8
bottom_labelLayer
10
177.3140104
20
40.7355968
40
3.5194149
50
330.250725
51
349.4116365
0
ARC
8
bottom_labelLayer
10
177.8692752
20
40.4469952
40
2.894233
50
318.1439916
51
329.7565961
0
ARC
8
bottom_labelLayer
10
177.969502
20
40.3666734
40
2.7659951
50
278.8959152
51
317.9979181
0
ARC
8
bottom_labelLayer
10
177.7112792
20
41.6038375
40
4.028714
50
269.7502709
51
279.8033305
0
ARC
8
bottom_labelLayer
10
177.6693997
20
40.9067795
40
3.3317066
50
253.5437
51
270.4182366
0
ARC
8
bottom_labelLayer
10
177.5584937
20
40.4777656
40
2.8888887
50
238.811555
51
253.242833
0
ARC
8
bottom_labelLayer
10
177.5227015
20
40.4057866
40
2.8087856
50
207.794715
51
238.6757902
0
ARC
8
bottom_labelLayer
10
178.0363242
20
40.7203515
40
3.4100521
50
205.6559965
51
208.4460899
0
ARC
8
bottom_labelLayer
10
178.4319039
20
40.8851768
40
3.8380627
50
188.9102311
51
205.3171546
0
ARC
8
bottom_labelLayer
10
179.7651219
20
41.110983
40
5.1901927
50
179.7744823
51
189.0932991
0
ARC
8
bottom_labelLayer
10
179.9617909
20
41.1678984
40
5.3869448
50
169.2442971
51
180.3880768
0
ARC
8
bottom_labelLayer
10
178.1324241
20
41.529498
40
3.5222614
50
150.7111394
51
169.4695467
0
ARC
8
bottom_labelLayer
10
177.5484343
20
41.8293998
40
2.8663121
50
138.1759462
51
150.2287565
0
ARC
8
bottom_labelLayer
10
177.4512949
20
41.903942
40
2.7442315
50
99.1759459
51
137.9832705
0
ARC
8
bottom_labelLayer
10
177.7186672
20
40.6456517
40
4.0295539
50
89.7326485
51
100.0759723
0
ARC
8
bottom_labelLayer
10
177.772104
20
41.189068
40
3.4862658
50
73.5222761
51
90.5692141
0
ARC
8
bottom_labelLayer
10
177.9765527
20
41.9318856
40
2.7160048
50
41.1445777
51
73.2133785
0
ARC
8
bottom_labelLayer
10
177.5862746
20
41.5964486
40
3.2306116
50
13.5014487
51
41.0703298
0
ARC
8
bottom_labelLayer
10
176.0784497
20
41.201872
40
4.7889926
50
1.127717
51
13.8799976
0
ARC
8
bottom_labelLayer
10
174.7793499
20
41.1322724
40
6.0893697
50
359.9919013
51
1.5418956
0
ARC
8
bottom_labelLayer
10
180.9037997
20
41.1044507
40
5.2538992
50
179.7059781
51
187.9160631
0
ARC
8
bottom_labelLayer
10
178.9768277
20
40.8276446
40
3.3071788
50
187.7639269
51
200.097662
0
ARC
8
bottom_labelLayer
10
177.9152671
20
40.4386889
40
2.1766049
50
200.0845888
51
216.9131539
0
ARC
8
bottom_labelLayer
10
177.5276246
20
40.1618945
40
1.7004617
50
217.3009621
51
261.7098973
0
ARC
8
bottom_labelLayer
10
177.7075798
20
41.0206132
40
2.5767256
50
260.5032827
51
270.2477049
0
ARC
8
bottom_labelLayer
10
177.7419301
20
40.8536426
40
2.4098427
50
269.4481477
51
284.7255754
0
ARC
8
bottom_labelLayer
10
177.9327034
20
40.1461286
40
1.6770812
50
284.5662171
51
322.6333951
0
ARC
8
bottom_labelLayer
10
177.4866602
20
40.4683742
40
2.2272051
50
323.0089531
51
342.6390295
0
ARC
8
bottom_labelLayer
10
176.2109071
20
40.8853277
40
3.5692967
50
342.3615493
51
353.7537559
0
ARC
8
bottom_labelLayer
10
174.3287135
20
41.1122016
40
5.4650401
50
353.5363042
51
0.2014002
0
ARC
8
bottom_labelLayer
10
174.6171186
20
41.1578345
40
5.1766685
50
359.7075492
51
7.8972825
0
ARC
8
bottom_labelLayer
10
176.5129406
20
41.4296188
40
3.2614956
50
7.7440009
51
20.068999
0
ARC
8
bottom_labelLayer
10
177.5693895
20
41.8172942
40
2.1361635
50
20.0257148
51
37.4350651
0
ARC
8
bottom_labelLayer
10
177.9199072
20
42.0660172
40
1.7067193
50
37.9577588
51
80.4006146
0
ARC
8
bottom_labelLayer
10
177.7207199
20
41.1772602
40
2.6166916
50
79.3453557
51
90.3175015
0
ARC
8
bottom_labelLayer
10
177.6838367
20
41.3248812
40
2.469132
50
89.4805987
51
103.8804924
0
ARC
8
bottom_labelLayer
10
177.4763658
20
42.1149309
40
1.6524241
50
103.4685187
51
142.3118784
0
ARC
8
bottom_labelLayer
10
177.8797049
20
41.8312746
40
2.1451374
50
142.9025731
51
162.3749653
0
ARC
8
bottom_labelLayer
10
179.1506338
20
41.4077415
40
3.4846979
50
162.0653283
51
173.1674836
0
ARC
8
bottom_labelLayer
10
181.1323344
20
41.1549887
40
5.4824152
50
173.0086324
51
180.2463999
0
LINE
8
bottom_labelLayer
10
192.4562197
20
37.7001617
11
191.4187197
21
37.7001617
0
LINE
8
bottom_labelLayer
10
191.4187197
20
37.7001617
11
191.4187197
21
42.1564117
0
LINE
8
bottom_labelLayer
10
188.0874697
20
41.5251617
11
188.0874697
21
37.7001617
0
LINE
8
bottom_labelLayer
10
188.0874697
20
37.7001617
11
187.0499697
21
37.7001617
0
LINE
8
bottom_labelLayer
10
187.0499697
20
37.7001617
11
187.0499697
21
42.1564117
0
LINE
8
bottom_labelLayer
10
183.7249697
20
41.2939117
11
183.7249697
21
37.7001617
0
LINE
8
bottom_labelLayer
10
183.7249697
20
37.7001617
11
182.6874697
21
37.7001617
0
LINE
8
bottom_labelLayer
10
182.6874697
20
37.7001617
11
182.6874697
21
44.5501617
0
LINE
8
bottom_labelLayer
10
182.6874697
20
44.5501617
11
183.5312197
21
44.5501617
0
LINE
8
bottom_labelLayer
10
183.5312197
20
44.5501617
11
183.6999697
21
43.6126617
0
LINE
8
bottom_labelLayer
10
183.6999697
20
43.6126617
11
183.7499697
21
43.6126617
0
LINE
8
bottom_labelLayer
10
187.8749697
20
43.5126617
11
187.9249697
21
43.5126617
0
LINE
8
bottom_labelLayer
10
192.4562197
20
42.1689117
11
192.4562197
21
37.7001617
0
ARC
8
bottom_labelLayer
10
188.3580625
20
42.1727137
40
3.0607006
50
359.6948288
51
8.1471642
0
ARC
8
bottom_labelLayer
10
189.4853976
20
42.3395459
40
1.921108
50
7.9865029
51
20.7949125
0
ARC
8
bottom_labelLayer
10
190.1085835
20
42.5782645
40
1.2537689
50
20.7070873
51
40.0217852
0
ARC
8
bottom_labelLayer
10
190.2452891
20
42.6677086
40
1.0917328
50
41.0408314
51
73.1792495
0
ARC
8
bottom_labelLayer
10
190.0474723
20
42.0694098
40
1.7217535
50
72.6395316
51
86.2568003
0
ARC
8
bottom_labelLayer
10
189.9841002
20
41.3856147
40
2.4082988
50
85.8143893
51
90.0685296
0
ARC
8
bottom_labelLayer
10
189.960818
20
41.1243382
40
2.6696515
50
89.5621379
51
101.2961704
0
ARC
8
bottom_labelLayer
10
189.7597487
20
42.0869269
40
1.6863468
50
101.003235
51
121.7840308
0
ARC
8
bottom_labelLayer
10
189.6068837
20
42.3598334
40
1.3739178
50
122.3596929
51
140.2884069
0
ARC
8
bottom_labelLayer
10
189.8819056
20
42.1581788
40
1.7144493
50
140.9765613
51
161.1699334
0
ARC
8
bottom_labelLayer
10
190.9179583
20
41.7894725
40
2.8140949
50
160.8731947
51
172.5272344
0
ARC
8
bottom_labelLayer
10
192.6491462
20
41.5503815
40
4.56169
50
172.377632
51
180.1829697
0
ARC
8
bottom_labelLayer
10
193.7544927
20
41.5252744
40
5.667023
50
179.8934389
51
180.001139
0
ARC
8
bottom_labelLayer
10
183.9893125
20
42.1727137
40
3.0607006
50
359.6948288
51
8.1471642
0
ARC
8
bottom_labelLayer
10
185.1166476
20
42.3395459
40
1.921108
50
7.9865029
51
20.7949125
0
ARC
8
bottom_labelLayer
10
185.7398335
20
42.5782645
40
1.2537689
50
20.7070873
51
40.0217852
0
ARC
8
bottom_labelLayer
10
185.8793824
20
42.6696741
40
1.0882978
50
41.0610713
51
72.8993597
0
ARC
8
bottom_labelLayer
10
185.6778163
20
42.0695886
40
1.7212002
50
72.3601135
51
85.9561555
0
ARC
8
bottom_labelLayer
10
185.6095843
20
41.364389
40
2.429525
50
85.5238346
51
90.0793484
0
ARC
8
bottom_labelLayer
10
185.5863117
20
41.2171287
40
2.5768599
50
89.5573461
51
101.4832016
0
ARC
8
bottom_labelLayer
10
185.3885293
20
42.1437887
40
1.6294009
50
101.1546528
51
123.0655615
0
ARC
8
bottom_labelLayer
10
185.2540874
20
42.3779808
40
1.3598697
50
123.7020521
51
142.3021945
0
ARC
8
bottom_labelLayer
10
185.569008
20
42.164335
40
1.7398525
50
143.0769708
51
161.3913817
0
ARC
8
bottom_labelLayer
10
186.8384287
20
41.716004
40
3.0860352
50
161.0234366
51
171.44693
0
ARC
8
bottom_labelLayer
10
188.9399935
20
41.3868022
40
5.2132044
50
171.3042238
51
178.350131
0
ARC
8
bottom_labelLayer
10
190.9487844
20
41.297098
40
7.2238154
50
178.0976659
51
180.0252722
0
ARC
8
bottom_labelLayer
10
185.5076345
20
42.5790683
40
2.0390442
50
117.1209504
51
149.542376
0
ARC
8
bottom_labelLayer
10
185.7157378
20
42.2091899
40
2.4631771
50
93.8343451
51
117.5072004
0
ARC
8
bottom_labelLayer
10
185.773217
20
41.700092
40
2.9750704
50
89.9662455
51
94.283193
0
ARC
8
bottom_labelLayer
10
185.8076538
20
41.2785443
40
3.3967746
50
77.557212
51
90.5513139
0
ARC
8
bottom_labelLayer
10
186.1228368
20
42.6342026
40
2.0051091
50
52.7026992
51
78.0053707
0
ARC
8
bottom_labelLayer
10
186.2351297
20
42.8431283
40
1.7712565
50
22.2097959
51
51.4970333
0
ARC
8
bottom_labelLayer
10
189.804446
20
42.4355297
40
2.1662513
50
119.4041737
51
150.1828834
0
ARC
8
bottom_labelLayer
10
190.0446848
20
42.0702015
40
2.6026386
50
118.2583737
51
120.0630065
0
ARC
8
bottom_labelLayer
10
190.0440094
20
42.0434767
40
2.6258921
50
95.8635085
51
117.9693137
0
ARC
8
bottom_labelLayer
10
190.1328803
20
41.4008657
40
3.2742991
50
89.9196927
51
96.2617361
0
ARC
8
bottom_labelLayer
10
190.1614124
20
41.0688476
40
3.6063936
50
79.9360796
51
90.3803882
0
ARC
8
bottom_labelLayer
10
190.4017126
20
42.3702767
40
2.2830159
50
62.9723069
51
80.1665234
0
ARC
8
bottom_labelLayer
10
190.6529168
20
42.8856464
40
1.7098106
50
44.2289928
51
62.6229464
0
ARC
8
bottom_labelLayer
10
190.5782022
20
42.8526386
40
1.7865984
50
19.5611928
51
43.3161378
0
ARC
8
bottom_labelLayer
10
189.4931288
20
42.4450823
40
2.9455745
50
7.504167
51
19.9645571
0
ARC
8
bottom_labelLayer
10
187.6976261
20
42.1929375
40
4.7586543
50
359.71072
51
7.6907402
0
ENDSEC
0
EOF