0
SECTION
2
HEADER
9
$INSUNITS
70
4
9
$ACADVER
1
AC1014
9
$HANDSEED
5
FFFF
0
ENDSEC
0
SECTION
2
TABLES
0
TABLE
2
VPORT
5
8
100
AcDbSymbolTable
0
ENDTAB
0
TABLE
2
LTYPE
5
5
100
AcDbSymbolTable
0
LTYPE
5
14
100
AcDbSymbolTableRecord
100
AcDbLinetypeTableRecord
2
BYBLOCK
70
0
0
LTYPE
5
15
100
AcDbSymbolTableRecord
100
AcDbLinetypeTableRecord
2
BYLAYER
70
0
0
ENDTAB
0
TABLE
2
LAYER
5
2
100
AcDbSymbolTable
70
2
0
LAYER
5
50
100
AcDbSymbolTableRecord
100
AcDbLayerTableRecord
2
0
70
0
6
CONTINUOUS
0
ENDTAB
0
TABLE
2
STYLE
5
3
100
AcDbSymbolTable
70
1
0
STYLE
5
11
100
AcDbSymbolTableRecord
100
AcDbTextStyleTableRecord
2
STANDARD
70
0
0
ENDTAB
0
TABLE
2
VIEW
5
6
100
AcDbSymbolTable
70
0
0
ENDTAB
0
TABLE
2
UCS
5
7
100
AcDbSymbolTable
70
0
0
ENDTAB
0
TABLE
2
APPID
5
9
100
AcDbSymbolTable
70
2
0
APPID
5
12
100
AcDbSymbolTableRecord
100
AcDbRegAppTableRecord
2
ACAD
70
0
0
ENDTAB
0
TABLE
2
DIMSTYLE
5
A
100
AcDbSymbolTable
70
1
0
ENDTAB
0
TABLE
2
BLOCK_RECORD
5
1
100
AcDbSymbolTable
70
1
0
BLOCK_RECORD
5
1F
100
AcDbSymbolTableRecord
100
AcDbBlockTableRecord
2
*MODEL_SPACE
0
BLOCK_RECORD
5
1B
100
AcDbSymbolTableRecord
100
AcDbBlockTableRecord
2
*PAPER_SPACE
0
ENDTAB
0
ENDSEC
0
SECTION
2
BLOCKS
0
BLOCK
5
20
100
AcDbEntity
100
AcDbBlockBegin
2
*MODEL_SPACE
0
ENDBLK
5
21
100
AcDbEntity
100
AcDbBlockEnd
0
BLOCK
5
1C
100
AcDbEntity
100
AcDbBlockBegin
2
*PAPER_SPACE
0
ENDBLK
5
1D
100
AcDbEntity
100
AcDbBlockEnd
0
ENDSEC
0
SECTION
2
ENTITIES
0
LWPOLYLINE
5
100
100
AcDbEntity
8
0
100
AcDbPolyline
90
4
70
1
43
0.0
10
-150
20
-34.700000000000003
10
-150
20
-30.29999999999999
10
-160
20
-30.299999999999997
10
-160
20
-34.700000000000003
0
LWPOLYLINE
5
101
100
AcDbEntity
8
0
100
AcDbPolyline
90
4
70
1
43
0.0
10
-50
20
-30.300000000000011
10
-50
20
-34.700000000000024
10
-40
20
-34.700000000000024
10
-40
20
-30.300000000000018
0
LWPOLYLINE
5
102
100
AcDbEntity
8
0
100
AcDbPolyline
90
4
70
1
43
0.0
10
-132
20
-34.700000000000003
10
-132
20
-30.299999999999997
10
-142
20
-30.29999999999999
10
-142
20
-34.700000000000003
0
LWPOLYLINE
5
103
100
AcDbEntity
8
0
100
AcDbPolyline
90
4
70
1
43
0.0
10
-58.000000000000007
20
-30.300000000000011
10
-68
20
-30.300000000000018
10
-68
20
-34.700000000000024
10
-58.000000000000007
20
-34.700000000000024
0
LWPOLYLINE
5
104
100
AcDbEntity
8
0
100
AcDbPolyline
90
4
70
1
43
0.0
10
-50
20
-9.6999999999999975
10
-40
20
-9.6999999999999975
10
-40
20
-5.2999999999999936
10
-50
20
-5.2999999999999936
0
LWPOLYLINE
5
105
100
AcDbEntity
8
0
100
AcDbPolyline
90
4
70
1
43
0.0
10
-160
20
-9.7000000000000028
10
-150
20
-9.7000000000000099
10
-150
20
-5.299999999999998
10
-160
20
-5.299999999999998
0
LWPOLYLINE
5
106
100
AcDbEntity
8
0
100
AcDbPolyline
90
4
70
1
43
0.0
10
-68
20
-5.2999999999999758
10
-68
20
-9.6999999999999797
10
-58.000000000000007
20
-9.6999999999999886
10
-58.000000000000007
20
-5.2999999999999758
0
LWPOLYLINE
5
107
100
AcDbEntity
8
0
100
AcDbPolyline
90
4
70
1
43
0.0
10
-142
20
-9.7000000000000099
10
-132
20
-9.7000000000000028
10
-132
20
-5.299999999999998
10
-142
20
-5.299999999999998
0
LWPOLYLINE
5
108
100
AcDbEntity
8
0
100
AcDbPolyline
90
20
70
1
43
0.0
10
-200
20
0
10
-192.19999999999999
20
0
10
-192.19999999999999
20
-7.5
10
-187.79999999999998
20
-7.5
10
-187.79999999999995
20
0
10
-12.200000000000006
20
0
10
-12.200000000000006
20
-7.5
10
-7.7999999999999936
20
-7.5
10
-7.7999999999999936
20
0
10
0
20
0
10
0
20
-40
10
-7.7999999999999936
20
-40
10
-7.7999999999999936
20
-32.5
10
-12.200000000000006
20
-32.5
10
-12.200000000000024
20
-40
10
-187.79999999999998
20
-40
10
-187.79999999999998
20
-32.5
10
-192.19999999999999
20
-32.5
10
-192.19999999999999
20
-40
10
-200
20
-40
0
ENDSEC
0
SECTION
2
OBJECTS
0
DICTIONARY
5
C
100
AcDbDictionary
3
ACAD_GROUP
350
D
3
ACAD_MLINESTYLE
350
17
0
DICTIONARY
5
D
100
AcDbDictionary
0
DICTIONARY
5
1A
330
C
100
AcDbDictionary
0
DICTIONARY
5
17
100
AcDbDictionary
0
ENDSEC
0
EOF
