0
SECTION
2
HEADER
9
$INSUNITS
70
4
9
$ACADVER
1
AC1014
9
$HANDSEED
5
FFFF
0
ENDSEC
0
SECTION
2
TABLES
0
TABLE
2
VPORT
5
8
100
AcDbSymbolTable
0
ENDTAB
0
TABLE
2
LTYPE
5
5
100
AcDbSymbolTable
0
LTYPE
5
14
100
AcDbSymbolTableRecord
100
AcDbLinetypeTableRecord
2
BYBLOCK
70
0
0
LTYPE
5
15
100
AcDbSymbolTableRecord
100
AcDbLinetypeTableRecord
2
BYLAYER
70
0
0
ENDTAB
0
TABLE
2
LAYER
5
2
100
AcDbSymbolTable
70
2
0
LAYER
5
50
100
AcDbSymbolTableRecord
100
AcDbLayerTableRecord
2
0
70
0
6
CONTINUOUS
0
ENDTAB
0
TABLE
2
STYLE
5
3
100
AcDbSymbolTable
70
1
0
STYLE
5
11
100
AcDbSymbolTableRecord
100
AcDbTextStyleTableRecord
2
STANDARD
70
0
0
ENDTAB
0
TABLE
2
VIEW
5
6
100
AcDbSymbolTable
70
0
0
ENDTAB
0
TABLE
2
UCS
5
7
100
AcDbSymbolTable
70
0
0
ENDTAB
0
TABLE
2
APPID
5
9
100
AcDbSymbolTable
70
2
0
APPID
5
12
100
AcDbSymbolTableRecord
100
AcDbRegAppTableRecord
2
ACAD
70
0
0
ENDTAB
0
TABLE
2
DIMSTYLE
5
A
100
AcDbSymbolTable
70
1
0
ENDTAB
0
TABLE
2
BLOCK_RECORD
5
1
100
AcDbSymbolTable
70
1
0
BLOCK_RECORD
5
1F
100
AcDbSymbolTableRecord
100
AcDbBlockTableRecord
2
*MODEL_SPACE
0
BLOCK_RECORD
5
1B
100
AcDbSymbolTableRecord
100
AcDbBlockTableRecord
2
*PAPER_SPACE
0
ENDTAB
0
ENDSEC
0
SECTION
2
BLOCKS
0
BLOCK
5
20
100
AcDbEntity
100
AcDbBlockBegin
2
*MODEL_SPACE
0
ENDBLK
5
21
100
AcDbEntity
100
AcDbBlockEnd
0
BLOCK
5
1C
100
AcDbEntity
100
AcDbBlockBegin
2
*PAPER_SPACE
0
ENDBLK
5
1D
100
AcDbEntity
100
AcDbBlockEnd
0
ENDSEC
0
SECTION
2
ENTITIES
0
LWPOLYLINE
5
100
100
AcDbEntity
8
0
100
AcDbPolyline
90
30
70
1
43
0.0
10
-10.784401926389688
20
-14.279033163586037
42
-0.4007113656873848
10
-13.435185189384748
20
-15.055520827984727
42
0.071756602106765155
10
-37.366621356550056
20
-6.7508898459736644
42
-0.19482684317932969
10
-41.145634513966755
20
-4.2987998779521863
42
-0.31503506270803355
10
-41.145610571667731
20
4.2990290334242589
42
-0.19482684317926988
10
-37.366583757719255
20
6.7510979546730354
42
0.071756602106764544
10
-13.435101339304129
20
15.055595653363621
42
-0.40071136568738563
10
-10.784322400902777
20
14.279093225765475
10
-8.2552283239905986
20
9.8985456163391365
10
-4.444710421048037
20
12.098535005241519
10
-6.9738044979512717
20
16.479082614668538
42
-0.40071136568738486
10
-6.3208709095482529
20
19.162972092548216
42
0.071756602106763656
10
12.836868573510822
20
35.735888271353218
42
-0.19482684317922414
10
16.84994735689293
20
37.782564682847259
42
-0.31503506270801956
10
24.295873640378936
20
33.483629492589067
42
-0.19482684317986507
10
24.529914211042172
20
28.984861809490248
42
0.071756602106817058
10
19.75607897456846
20
4.1073412355578363
42
-0.40071136568743942
10
17.758218676967473
20
2.1999505488842082
10
12.700006126268025
20
2.1999646344390356
10
12.699993873634572
20
-2.2000353655358196
10
17.758206424338706
20
-2.2000494510823119
42
-0.40071136568738808
10
19.756056098930728
20
-4.1074512645633066
42
0.071756602106737913
10
24.529752783033612
20
-28.984998425371149
42
-0.19482684317825338
10
24.295687157046764
20
-33.483764804902059
42
-0.31503506271144405
10
16.849736931238603
20
-37.782658525985617
42
-0.19482684317771695
10
12.836669546668098
20
-35.735959764151708
42
0.071756602106731585
10
-6.3209776352673028
20
-19.162936888937359
42
-0.40071136568738391
10
-6.9738962760676948
20
-16.479043774665975
10
-4.4447778022824362
20
-12.098510250783914
10
-8.2552834525954708
20
-9.8984996397168796
0
ENDSEC
0
SECTION
2
OBJECTS
0
DICTIONARY
5
C
100
AcDbDictionary
3
ACAD_GROUP
350
D
3
ACAD_MLINESTYLE
350
17
0
DICTIONARY
5
D
100
AcDbDictionary
0
DICTIONARY
5
1A
330
C
100
AcDbDictionary
0
DICTIONARY
5
17
100
AcDbDictionary
0
ENDSEC
0
EOF
