0
SECTION
2
HEADER
9
$INSUNITS
70
1
0
ENDSEC
0
SECTION
2
TABLES
0
TABLE
2
LAYER
0
ENDTAB
0
ENDSEC
0
SECTION
2
ENTITIES
0
LINE
8
front_outsideCutPath
10
12.8
20
3.1171573
11
12.8
21
7.8
0
LINE
8
front_outsideCutPath
10
12.8
20
7.8
11
22
21
7.8
0
LINE
8
front_outsideCutPath
10
22
20
7.8
11
22
21
3.1171573
0
LINE
8
front_outsideCutPath
10
22
20
3.1171573
11
22.1171573
21
3
0
LINE
8
front_outsideCutPath
10
22.1171573
20
3
11
31.8828427
21
3
0
LINE
8
front_outsideCutPath
10
31.8828427
20
3
11
32
21
3.1171573
0
LINE
8
front_outsideCutPath
10
32
20
3.1171573
11
32
21
7.8
0
LINE
8
front_outsideCutPath
10
32
20
7.8
11
41.2
21
7.8
0
LINE
8
front_outsideCutPath
10
41.2
20
7.8
11
41.2
21
3.1171573
0
LINE
8
front_outsideCutPath
10
41.2
20
3.1171573
11
41.3171573
21
3
0
LINE
8
front_outsideCutPath
10
41.3171573
20
3
11
53.8828427
21
3
0
LINE
8
front_outsideCutPath
10
53.8828427
20
3
11
54
21
3.1171573
0
LINE
8
front_outsideCutPath
10
54
20
3.1171573
11
54
21
20.0828427
0
LINE
8
front_outsideCutPath
10
54
20
20.0828427
11
53.8828427
21
20.2
0
LINE
8
front_outsideCutPath
10
53.8828427
20
20.2
11
0.1171573
21
20.2
0
LINE
8
front_outsideCutPath
10
0.1171573
20
20.2
11
0
21
20.0828427
0
LINE
8
front_outsideCutPath
10
0
20
20.0828427
11
0
21
3.1171573
0
LINE
8
front_outsideCutPath
10
0
20
3.1171573
11
0.1171573
21
3
0
LINE
8
front_outsideCutPath
10
0.1171573
20
3
11
12.6828427
21
3
0
LINE
8
front_outsideCutPath
10
12.6828427
20
3
11
12.8
21
3.1171573
0
LINE
8
front_labelLayer
10
24.1504101
20
12.1417357
11
24.1504101
21
11.925056
0
LINE
8
front_labelLayer
10
24.1504101
20
11.925056
11
23.6817773
21
11.925056
0
LINE
8
front_labelLayer
10
23.6817773
20
11.925056
11
23.6817773
21
10.3007982
0
LINE
8
front_labelLayer
10
23.6817773
20
10.3007982
11
23.4029492
21
10.3007982
0
LINE
8
front_labelLayer
10
23.4029492
20
10.3007982
11
23.4029492
21
11.925056
0
LINE
8
front_labelLayer
10
23.4029492
20
11.925056
11
23.0737304
21
11.925056
0
LINE
8
front_labelLayer
10
23.0737304
20
11.925056
11
23.0737304
21
12.0510326
0
LINE
8
front_labelLayer
10
23.0737304
20
12.0510326
11
23.4029492
21
12.1518138
0
LINE
8
front_labelLayer
10
23.4029492
20
12.1518138
11
23.4029492
21
12.2542748
0
LINE
8
front_labelLayer
10
24.3385351
20
12.8740795
11
24.2663086
21
12.650681
0
LINE
8
front_labelLayer
10
23.6817773
20
12.2609935
11
23.6817773
21
12.1417357
0
LINE
8
front_labelLayer
10
23.6817773
20
12.1417357
11
24.1504101
21
12.1417357
0
ARC
8
front_labelLayer
10
24.5329506
20
12.2672649
40
1.130076
50
167.5776473
51
180.6586255
0
ARC
8
front_labelLayer
10
24.0015477
20
12.3911558
40
0.5845013
50
141.7433735
51
168.2321695
0
ARC
8
front_labelLayer
10
23.9150255
20
12.436314
40
0.4889347
50
98.2551608
51
139.6203288
0
ARC
8
front_labelLayer
10
23.990992
20
12.0853739
40
0.8475085
50
89.6696202
51
99.9313756
0
ARC
8
front_labelLayer
10
23.9912049
20
12.0349811
40
0.8978996
50
81.5641723
51
89.7017491
0
ARC
8
front_labelLayer
10
23.9280867
20
11.5946326
40
1.3427451
50
75.9739284
51
81.6565329
0
ARC
8
front_labelLayer
10
23.8198261
20
11.1455533
40
1.8046778
50
73.2961592
51
76.094812
0
ARC
8
front_labelLayer
10
23.8470273
20
11.3632227
40
1.354011
50
71.9613373
51
76.5917302
0
ARC
8
front_labelLayer
10
23.9520704
20
11.8088023
40
0.8962192
50
76.5185432
51
83.021494
0
ARC
8
front_labelLayer
10
23.9886684
20
12.1031026
40
0.5996528
50
83.0759747
51
89.7925201
0
ARC
8
front_labelLayer
10
23.9874659
20
12.3267371
40
0.3760294
50
89.4859109
51
103.4197591
0
ARC
8
front_labelLayer
10
23.9535643
20
12.4569836
40
0.2414868
50
102.7677651
51
144.3380424
0
ARC
8
front_labelLayer
10
24.021865
20
12.4130384
40
0.3226256
50
145.0688977
51
162.1800452
0
ARC
8
front_labelLayer
10
24.2560274
20
12.3342543
40
0.5696733
50
161.8436872
51
171.7847233
0
ARC
8
front_labelLayer
10
24.6379626
20
12.2768871
40
0.9558891
50
171.6526937
51
178.4383152
0
ARC
8
front_labelLayer
10
24.997857
20
12.2615321
40
1.3160797
50
178.1970855
51
180.0234468
0
LINE
8
front_labelLayer
10
25.5462304
20
12.1551732
11
25.5075976
21
11.8965013
0
LINE
8
front_labelLayer
10
24.7651758
20
11.2884545
11
24.7651758
21
10.3007982
0
LINE
8
front_labelLayer
10
24.7651758
20
10.3007982
11
24.4863476
21
10.3007982
0
LINE
8
front_labelLayer
10
24.4863476
20
10.3007982
11
24.4863476
21
12.1417357
0
LINE
8
front_labelLayer
10
24.4863476
20
12.1417357
11
24.7164648
21
12.1417357
0
LINE
8
front_labelLayer
10
24.7164648
20
12.1417357
11
24.7483789
21
11.8007592
0
LINE
8
front_labelLayer
10
24.7483789
20
11.8007592
11
24.7618164
21
11.8007592
0
ARC
8
front_labelLayer
10
25.3290512
20
10.8952735
40
1.2800592
50
84.9922093
51
90.1280079
0
ARC
8
front_labelLayer
10
25.3597995
20
11.2397278
40
0.934236
50
78.4890935
51
85.0267408
0
ARC
8
front_labelLayer
10
25.240461
20
10.696923
40
1.228963
50
77.4455382
51
81.635876
0
ARC
8
front_labelLayer
10
25.294013
20
11.0660169
40
0.8560054
50
81.5885337
51
87.1914643
0
ARC
8
front_labelLayer
10
25.3056513
20
11.2678941
40
0.6538026
50
87.3433001
51
89.9663597
0
ARC
8
front_labelLayer
10
25.3029452
20
11.4385797
40
0.4831268
50
89.6335523
51
137.0880699
0
ARC
8
front_labelLayer
10
25.4214846
20
11.3052772
40
0.660924
50
135.6210559
51
138.8380753
0
ARC
8
front_labelLayer
10
25.4041394
20
11.3222055
40
0.6367252
50
138.9575802
51
174.5422219
0
ARC
8
front_labelLayer
10
25.6114775
20
11.2897602
40
0.8463027
50
173.6906574
51
180.0883979
0
ARC
8
front_labelLayer
10
25.5821907
20
11.3385639
40
0.9416148
50
139.4139595
51
150.6032797
0
ARC
8
front_labelLayer
10
25.4133606
20
11.4832327
40
0.7192803
50
124.2322518
51
139.4160948
0
ARC
8
front_labelLayer
10
25.3230834
20
11.6195034
40
0.5558347
50
89.6796259
51
124.4405749
0
ARC
8
front_labelLayer
10
26.0393153
20
11.2132371
40
1.4402682
50
349.1762416
51
0.3862615
0
ARC
8
front_labelLayer
10
26.5242229
20
11.1165716
40
0.9458425
50
330.2507079
51
349.4116224
0
ARC
8
front_labelLayer
10
26.673453
20
11.0390066
40
0.777821
50
318.1440181
51
329.7566854
0
ARC
8
front_labelLayer
10
26.7003865
20
11.0174224
40
0.7433602
50
278.8958854
51
317.9979399
0
ARC
8
front_labelLayer
10
26.6309895
20
11.3499101
40
1.0827158
50
269.750225
51
279.803294
0
ARC
8
front_labelLayer
10
26.6197334
20
11.1625728
40
0.8953922
50
253.5436394
51
270.4182495
0
ARC
8
front_labelLayer
10
26.5899272
20
11.0472796
40
0.7763891
50
238.8115878
51
253.242862
0
ARC
8
front_labelLayer
10
26.5803087
20
11.0279349
40
0.7548613
50
207.7947057
51
238.6757709
0
ARC
8
front_labelLayer
10
26.7184483
20
11.1125319
40
0.9165702
50
205.6564354
51
208.4461677
0
ARC
8
front_labelLayer
10
26.8246609
20
11.1567723
40
1.0314838
50
188.9102659
51
205.3171174
0
ARC
8
front_labelLayer
10
27.1829424
20
11.2174549
40
1.3948477
50
179.7744178
51
189.0933452
0
ARC
8
front_labelLayer
10
27.2358002
20
11.2327534
40
1.447728
50
169.2442354
51
180.3881186
0
ARC
8
front_labelLayer
10
26.7441744
20
11.3299309
40
0.9466111
50
150.7111535
51
169.469493
0
ARC
8
front_labelLayer
10
26.5872252
20
11.4105306
40
0.7703226
50
138.175982
51
150.2287742
0
ARC
8
front_labelLayer
10
26.561117
20
11.4305656
40
0.7375106
50
99.1758952
51
137.9833076
0
ARC
8
front_labelLayer
10
26.632975
20
11.092399
40
1.0829424
50
89.7326941
51
100.0760206
0
ARC
8
front_labelLayer
10
26.6473355
20
11.2384436
40
0.9369321
50
73.5222546
51
90.5692259
0
ARC
8
front_labelLayer
10
26.7022811
20
11.4380747
40
0.7299256
50
41.1445516
51
73.2133805
0
ARC
8
front_labelLayer
10
26.5973939
20
11.3479258
40
0.8682263
50
13.501422
51
41.0703178
0
ARC
8
front_labelLayer
10
26.192165
20
11.2418826
40
1.2870425
50
1.1277255
51
13.8799991
0
ARC
8
front_labelLayer
10
25.8426581
20
11.2231707
40
1.6368928
50
359.9921574
51
1.5417969
0
ARC
8
front_labelLayer
10
27.4889698
20
11.2156991
40
1.4119767
50
179.7059053
51
187.9160415
0
ARC
8
front_labelLayer
10
26.971107
20
11.1413097
40
0.8888066
50
187.7639351
51
200.0976387
0
ARC
8
front_labelLayer
10
26.6858098
20
11.0367776
40
0.5849621
50
200.0846243
51
216.9132003
0
ARC
8
front_labelLayer
10
26.5816311
20
10.9623883
40
0.4569985
50
217.3009301
51
261.7099292
0
ARC
8
front_labelLayer
10
26.6299946
20
11.1931816
40
0.6925069
50
260.5034312
51
270.2476842
0
ARC
8
front_labelLayer
10
26.6392258
20
11.1482942
40
0.6476432
50
269.4481644
51
284.7256381
0
ARC
8
front_labelLayer
10
26.6904962
20
10.9581519
40
0.4507157
50
284.5662345
51
322.6334019
0
ARC
8
front_labelLayer
10
26.570622
20
11.0447556
40
0.5985618
50
323.0089471
51
342.6390101
0
ARC
8
front_labelLayer
10
26.2277723
20
11.1568095
40
0.9592396
50
342.3615107
51
353.753823
0
ARC
8
front_labelLayer
10
25.7218916
20
11.2177851
40
1.468762
50
353.5364034
51
0.2013519
0
ARC
8
front_labelLayer
10
25.799433
20
11.2300487
40
1.3912297
50
359.7075106
51
7.8972444
0
ARC
8
front_labelLayer
10
26.3089331
20
11.303089
40
0.8765291
50
7.7440349
51
20.069003
0
ARC
8
front_labelLayer
10
26.5928566
20
11.4072777
40
0.5740931
50
20.0257348
51
37.4351086
0
ARC
8
front_labelLayer
10
26.6870572
20
11.4741218
40
0.458681
50
37.9577473
51
80.4005875
0
ARC
8
front_labelLayer
10
26.6335245
20
11.2352565
40
0.7032478
50
79.3454322
51
90.3173916
0
ARC
8
front_labelLayer
10
26.6236134
20
11.27494
40
0.6635808
50
89.4805992
51
103.8804587
0
ARC
8
front_labelLayer
10
26.5678558
20
11.4872676
40
0.4440888
50
103.468537
51
142.3119061
0
ARC
8
front_labelLayer
10
26.6762531
20
11.411035
40
0.5765056
50
142.9025891
51
162.3749821
0
ARC
8
front_labelLayer
10
27.0178294
20
11.2972073
40
0.936527
50
162.0654214
51
173.1674054
0
ARC
8
front_labelLayer
10
27.5503845
20
11.229284
40
1.4733863
50
173.0086123
51
180.2464423
0
LINE
8
front_labelLayer
10
29.5069336
20
10.3007982
11
29.2281054
21
10.3007982
0
LINE
8
front_labelLayer
10
29.2281054
20
10.3007982
11
29.2281054
21
11.4916967
0
LINE
8
front_labelLayer
10
28.2471679
20
11.2666185
11
28.2471679
21
10.3007982
0
LINE
8
front_labelLayer
10
28.2471679
20
10.3007982
11
27.9683398
21
10.3007982
0
LINE
8
front_labelLayer
10
27.9683398
20
10.3007982
11
27.9683398
21
12.1417357
0
LINE
8
front_labelLayer
10
27.9683398
20
12.1417357
11
28.1950976
21
12.1417357
0
LINE
8
front_labelLayer
10
28.1950976
20
12.1417357
11
28.2404492
21
11.8897826
0
LINE
8
front_labelLayer
10
28.2404492
20
11.8897826
11
28.2538867
21
11.8897826
0
LINE
8
front_labelLayer
10
29.5069336
20
11.5017748
11
29.5069336
21
10.3007982
0
ARC
8
front_labelLayer
10
28.4399461
20
11.4962169
40
0.7881723
50
359.6714053
51
8.6877706
0
ARC
8
front_labelLayer
10
28.7320654
20
11.5425461
40
0.4924096
50
8.493087
51
22.6580329
0
ARC
8
front_labelLayer
10
28.8804799
20
11.604223
40
0.3316899
50
22.7024477
51
42.3419824
0
ARC
8
front_labelLayer
10
28.8971631
20
11.6117286
40
0.3143549
50
43.3789906
51
71.5386228
0
ARC
8
front_labelLayer
10
28.8347776
20
11.4374088
40
0.4994747
50
71.0827585
51
84.3691325
0
ARC
8
front_labelLayer
10
28.8067749
20
11.1993503
40
0.7391459
50
84.0195718
51
90.151208
0
ARC
8
front_labelLayer
10
28.7988353
20
11.0946299
40
0.8438849
50
89.5933765
51
100.3718491
0
ARC
8
front_labelLayer
10
28.7391982
20
11.4075236
40
0.5253724
50
100.1176824
51
118.1602708
0
ARC
8
front_labelLayer
10
28.6791015
20
11.5253696
40
0.3931227
50
118.5440416
51
139.192567
0
ARC
8
front_labelLayer
10
28.7315
20
11.4902114
40
0.455824
50
140.1519119
51
160.3147383
0
ARC
8
front_labelLayer
10
29.0479468
20
11.3716831
40
0.7937193
50
159.953436
51
171.3800668
0
ARC
8
front_labelLayer
10
29.5648332
20
11.2885948
40
1.3172285
50
171.1765342
51
178.3218524
0
ARC
8
front_labelLayer
10
30.0333904
20
11.267356
40
1.7862226
50
178.0810221
51
180.0236559
0
ARC
8
front_labelLayer
10
28.7308631
20
11.5876982
40
0.5645896
50
116.9442144
51
147.6526119
0
ARC
8
front_labelLayer
10
28.7898029
20
11.489068
40
0.6792658
50
115.8078066
51
117.6063912
0
ARC
8
front_labelLayer
10
28.8196754
20
11.4193539
40
0.7550395
50
94.3227016
51
115.5454504
0
ARC
8
front_labelLayer
10
28.8377469
20
11.2623394
40
0.9129903
50
89.9578864
51
94.7108714
0
ARC
8
front_labelLayer
10
28.8452172
20
11.0744877
40
1.1008627
50
80.5586043
51
90.3538803
0
ARC
8
front_labelLayer
10
28.9140114
20
11.4729829
40
0.696485
50
65.1094578
51
80.7637448
0
ARC
8
front_labelLayer
10
28.9944313
20
11.6511132
40
0.5010571
50
46.5585266
51
64.8781721
0
ARC
8
front_labelLayer
10
29.0008714
20
11.6696726
40
0.4832209
50
19.3848326
51
45.5997562
0
ARC
8
front_labelLayer
10
28.7213025
20
11.5647738
40
0.7817826
50
6.9634603
51
19.8363008
0
ARC
8
front_labelLayer
10
28.2901329
20
11.5068047
40
1.216811
50
359.7631547
51
7.211516
0
LINE
8
front_labelLayer
10
30.9262695
20
10.5309154
11
30.9262695
21
10.3175951
0
LINE
8
front_labelLayer
10
30.0998633
20
10.8298998
11
30.0998633
21
11.925056
0
LINE
8
front_labelLayer
10
30.0998633
20
11.925056
11
29.8361523
21
11.925056
0
LINE
8
front_labelLayer
10
29.8361523
20
11.925056
11
29.8361523
21
12.059431
0
LINE
8
front_labelLayer
10
29.8361523
20
12.059431
11
30.0998633
21
12.1753295
0
LINE
8
front_labelLayer
10
30.0998633
20
12.1753295
11
30.2174414
21
12.5683763
0
LINE
8
front_labelLayer
10
30.2174414
20
12.5683763
11
30.3786914
21
12.5683763
0
LINE
8
front_labelLayer
10
30.3786914
20
12.5683763
11
30.3786914
21
12.1417357
0
LINE
8
front_labelLayer
10
30.3786914
20
12.1417357
11
30.912832
21
12.1417357
0
LINE
8
front_labelLayer
10
30.912832
20
12.1417357
11
30.912832
21
11.925056
0
LINE
8
front_labelLayer
10
30.912832
20
11.925056
11
30.3786914
21
11.925056
0
LINE
8
front_labelLayer
10
30.3786914
20
11.925056
11
30.3786914
21
10.8416576
0
ARC
8
front_labelLayer
10
30.6762285
20
11.4130172
40
0.9156976
50
269.8803558
51
278.3029447
0
ARC
8
front_labelLayer
10
30.6853201
20
11.3393085
40
0.8414503
50
278.4151458
51
279.0095065
0
ARC
8
front_labelLayer
10
30.5821809
20
11.9982764
40
1.5084401
50
278.9591169
51
280.5104665
0
ARC
8
front_labelLayer
10
30.6801146
20
11.4728211
40
0.9739367
50
280.4846139
51
282.6265942
0
ARC
8
front_labelLayer
10
30.7659672
20
11.0913772
40
0.5829509
50
282.5878556
51
285.5790706
0
ARC
8
front_labelLayer
10
30.8100252
20
10.9295261
40
0.4152147
50
285.7210267
51
286.2579419
0
ARC
8
front_labelLayer
10
30.8090363
20
10.5655498
40
0.274272
50
287.9892278
51
295.3048227
0
ARC
8
front_labelLayer
10
30.7428737
20
10.765735
40
0.4851058
50
283.3074192
51
288.119552
0
ARC
8
front_labelLayer
10
30.6730352
20
11.0570643
40
0.7846881
50
280.0066887
51
283.3735947
0
ARC
8
front_labelLayer
10
30.6263668
20
11.3102258
40
1.0421096
50
279.1862879
51
280.1149078
0
ARC
8
front_labelLayer
10
30.5975674
20
11.4740839
40
1.2084659
50
275.5258981
51
279.293956
0
ARC
8
front_labelLayer
10
30.6299025
20
11.1362785
40
0.8691168
50
270.8932235
51
275.5486062
0
ARC
8
front_labelLayer
10
30.6339494
20
10.9837439
40
0.7165394
50
270.0043592
51
270.7598031
0
ARC
8
front_labelLayer
10
30.6227518
20
10.9953738
40
0.7282563
50
253.7847934
51
270.8852999
0
ARC
8
front_labelLayer
10
30.5364729
20
10.7011307
40
0.4216258
50
190.3817637
51
253.8772577
0
ARC
8
front_labelLayer
10
30.9762403
20
10.8200352
40
0.8764325
50
179.3550998
51
192.8477139
0
ARC
8
front_labelLayer
10
30.9401592
20
10.838147
40
0.5614788
50
179.641765
51
189.7504923
0
ARC
8
front_labelLayer
10
30.7419389
20
10.8027932
40
0.3601367
50
189.547967
51
205.787378
0
ARC
8
front_labelLayer
10
30.6604848
20
10.7652318
40
0.2704586
50
206.1293819
51
221.4082652
0
ARC
8
front_labelLayer
10
30.65135
20
10.7583014
40
0.2590247
50
221.5949796
51
262.3505621
0
ARC
8
front_labelLayer
10
30.673072
20
10.869996
40
0.3726765
50
261.3264579
51
270.1913173
0
LINE
8
left_outsideCutPath
10
61.6
20
3.1171573
11
61.6
21
7.8
0
LINE
8
left_outsideCutPath
10
61.6
20
7.8
11
70.8
21
7.8
0
LINE
8
left_outsideCutPath
10
70.8
20
7.8
11
70.8
21
3.1171573
0
LINE
8
left_outsideCutPath
10
70.8
20
3.1171573
11
70.9171573
21
3
0
LINE
8
left_outsideCutPath
10
70.9171573
20
3
11
75.2828427
21
3
0
LINE
8
left_outsideCutPath
10
75.2828427
20
3
11
75.4
21
3.1171573
0
LINE
8
left_outsideCutPath
10
75.4
20
3.1171573
11
75.4
21
20.0828427
0
LINE
8
left_outsideCutPath
10
75.4
20
20.0828427
11
75.2828427
21
20.2
0
LINE
8
left_outsideCutPath
10
75.2828427
20
20.2
11
57.1171573
21
20.2
0
LINE
8
left_outsideCutPath
10
57.1171573
20
20.2
11
57
21
20.0828427
0
LINE
8
left_outsideCutPath
10
57
20
20.0828427
11
57
21
3.1171573
0
LINE
8
left_outsideCutPath
10
57
20
3.1171573
11
57.1171573
21
3
0
LINE
8
left_outsideCutPath
10
57.1171573
20
3
11
61.4828427
21
3
0
LINE
8
left_outsideCutPath
10
61.4828427
20
3
11
61.6
21
3.1171573
0
LINE
8
left_labelLayer
10
64.0726758
20
12.914392
11
64.0726758
21
10.3007982
0
LINE
8
left_labelLayer
10
64.0726758
20
10.3007982
11
63.7938476
21
10.3007982
0
LINE
8
left_labelLayer
10
63.7938476
20
10.3007982
11
63.7938476
21
12.914392
0
LINE
8
left_labelLayer
10
63.7938476
20
12.914392
11
64.0726758
21
12.914392
0
LINE
8
left_labelLayer
10
66.1185351
20
11.3472435
11
66.1185351
21
11.1708763
0
LINE
8
left_labelLayer
10
66.1185351
20
11.1708763
11
64.8503711
21
11.1708763
0
LINE
8
left_labelLayer
10
66.0395898
20
10.635056
11
66.0395898
21
10.3864623
0
LINE
8
left_labelLayer
10
64.8570898
20
11.3976342
11
65.8195508
21
11.3976342
0
ARC
8
left_labelLayer
10
65.4324522
20
11.3506773
40
1.0835116
50
256.008812
51
270.4848556
0
ARC
8
left_labelLayer
10
65.3535521
20
11.0443689
40
0.7672186
50
223.5465797
51
256.1956865
0
ARC
8
left_labelLayer
10
65.3970772
20
11.0760039
40
0.8205913
50
194.0877345
51
223.0538471
0
ARC
8
left_labelLayer
10
65.7958937
20
11.1850661
40
1.2339902
50
181.357467
51
194.4920222
0
ARC
8
left_labelLayer
10
66.153953
20
11.2058297
40
1.5924881
50
179.988485
51
181.7991248
0
ARC
8
left_labelLayer
10
66.0255414
20
11.2159721
40
1.4641096
50
168.9538833
51
180.384385
0
ARC
8
left_labelLayer
10
65.5473823
20
11.313334
40
0.9761627
50
149.4071596
51
169.1853311
0
ARC
8
left_labelLayer
10
65.4141433
20
11.3837318
40
0.8256734
50
140.1055587
51
148.9067619
0
ARC
8
left_labelLayer
10
65.332299
20
11.4591901
40
0.7145035
50
92.4762474
51
140.5386501
0
ARC
8
left_labelLayer
10
65.3687749
20
11.1895648
40
0.9857649
50
89.9639861
51
93.9174272
0
ARC
8
left_labelLayer
10
65.3774755
20
11.3258869
40
0.849481
50
74.2126031
51
90.5450514
0
ARC
8
left_labelLayer
10
65.4306797
20
11.521917
40
0.6463738
50
41.2065045
51
74.0232318
0
ARC
8
left_labelLayer
10
65.3299181
20
11.4347165
40
0.7796266
50
11.5994249
51
41.1495651
0
ARC
8
left_labelLayer
10
64.9837072
20
11.3548743
40
1.1348534
50
359.6147388
51
12.0336028
0
ARC
8
left_labelLayer
10
65.9692621
20
11.1932346
40
1.1191144
50
181.1447627
51
190.8007533
0
ARC
8
left_labelLayer
10
65.5744526
20
11.1153662
40
0.7167114
50
190.6005786
51
206.0274765
0
ARC
8
left_labelLayer
10
65.3997769
20
11.0327889
40
0.5235213
50
206.2951125
51
222.5557069
0
ARC
8
left_labelLayer
10
65.3842943
20
11.0246818
40
0.5066536
50
223.0645081
51
258.1401261
0
ARC
8
left_labelLayer
10
65.4459128
20
11.2784041
40
0.7676668
50
257.5311989
51
270.4318757
0
ARC
8
left_labelLayer
10
65.4465993
20
11.9833963
40
1.472646
50
270.1984198
51
292.2090456
0
ARC
8
left_labelLayer
10
65.3760352
20
12.1861221
40
1.687042
50
291.8253152
51
293.1615074
0
ARC
8
left_labelLayer
10
65.3724832
20
11.9217229
40
1.6739344
50
287.9023192
51
293.4860723
0
ARC
8
left_labelLayer
10
65.4939308
20
11.5470118
40
1.2800338
50
281.9934577
51
287.8851772
0
ARC
8
left_labelLayer
10
65.5233493
20
11.44128
40
1.1705167
50
275.9054196
51
281.660344
0
ARC
8
left_labelLayer
10
65.4644305
20
11.9912537
40
1.723635
50
271.9120799
51
275.9726052
0
ARC
8
left_labelLayer
10
65.4429381
20
12.5388685
40
2.2716643
50
269.9667813
51
271.9930117
0
ARC
8
left_labelLayer
10
65.360684
20
11.3922451
40
0.5496339
50
89.4421654
51
106.2089357
0
ARC
8
left_labelLayer
10
65.3276178
20
11.51281
40
0.4246355
50
106.465686
51
137.9176522
0
ARC
8
left_labelLayer
10
65.4224204
20
11.4295569
40
0.5507951
50
138.0994381
51
160.5866215
0
ARC
8
left_labelLayer
10
65.6661001
20
11.3399099
40
0.8104251
50
160.3352472
51
172.5316136
0
ARC
8
left_labelLayer
10
65.9062835
20
11.3014366
40
1.0535944
50
172.154854
51
174.7613602
0
ARC
8
left_labelLayer
10
64.8694
20
11.4030305
40
0.9501661
50
359.6745935
51
8.9223436
0
ARC
8
left_labelLayer
10
65.2089368
20
11.4583519
40
0.606161
50
8.7341228
51
23.2773039
0
ARC
8
left_labelLayer
10
65.3701055
20
11.5260077
40
0.4313774
50
23.4821322
51
39.7071496
0
ARC
8
left_labelLayer
10
65.4096977
20
11.5556349
40
0.3819987
50
40.0822961
51
80.6243115
0
ARC
8
left_labelLayer
10
65.3689456
20
11.368834
40
0.5730263
50
79.646739
51
90.2910136
0
LINE
8
left_labelLayer
10
67.4236523
20
12.1417357
11
67.4236523
21
11.925056
0
LINE
8
left_labelLayer
10
67.4236523
20
11.925056
11
66.9550195
21
11.925056
0
LINE
8
left_labelLayer
10
66.9550195
20
11.925056
11
66.9550195
21
10.3007982
0
LINE
8
left_labelLayer
10
66.9550195
20
10.3007982
11
66.6761914
21
10.3007982
0
LINE
8
left_labelLayer
10
66.6761914
20
10.3007982
11
66.6761914
21
11.925056
0
LINE
8
left_labelLayer
10
66.6761914
20
11.925056
11
66.3469726
21
11.925056
0
LINE
8
left_labelLayer
10
66.3469726
20
11.925056
11
66.3469726
21
12.0510326
0
LINE
8
left_labelLayer
10
66.3469726
20
12.0510326
11
66.6761914
21
12.1518138
0
LINE
8
left_labelLayer
10
66.6761914
20
12.1518138
11
66.6761914
21
12.2542748
0
LINE
8
left_labelLayer
10
67.6117773
20
12.8740795
11
67.5395508
21
12.650681
0
LINE
8
left_labelLayer
10
66.9550195
20
12.2609935
11
66.9550195
21
12.1417357
0
LINE
8
left_labelLayer
10
66.9550195
20
12.1417357
11
67.4236523
21
12.1417357
0
ARC
8
left_labelLayer
10
67.8061927
20
12.2672649
40
1.130076
50
167.5776473
51
180.6586255
0
ARC
8
left_labelLayer
10
67.2747899
20
12.3911558
40
0.5845013
50
141.7433735
51
168.2321695
0
ARC
8
left_labelLayer
10
67.1882677
20
12.436314
40
0.4889347
50
98.2551608
51
139.6203288
0
ARC
8
left_labelLayer
10
67.2642342
20
12.0853739
40
0.8475085
50
89.6696202
51
99.9313756
0
ARC
8
left_labelLayer
10
67.2644471
20
12.0349811
40
0.8978996
50
81.5641723
51
89.7017491
0
ARC
8
left_labelLayer
10
67.2013289
20
11.5946326
40
1.3427451
50
75.9739284
51
81.6565329
0
ARC
8
left_labelLayer
10
67.0930683
20
11.1455533
40
1.8046778
50
73.2961592
51
76.094812
0
ARC
8
left_labelLayer
10
67.1202695
20
11.3632227
40
1.354011
50
71.9613373
51
76.5917302
0
ARC
8
left_labelLayer
10
67.2253126
20
11.8088023
40
0.8962192
50
76.5185432
51
83.021494
0
ARC
8
left_labelLayer
10
67.2619105
20
12.1031026
40
0.5996528
50
83.0759747
51
89.7925201
0
ARC
8
left_labelLayer
10
67.2607081
20
12.3267371
40
0.3760294
50
89.4859109
51
103.4197591
0
ARC
8
left_labelLayer
10
67.2268065
20
12.4569836
40
0.2414868
50
102.7677651
51
144.3380424
0
ARC
8
left_labelLayer
10
67.2951072
20
12.4130384
40
0.3226256
50
145.0688977
51
162.1800452
0
ARC
8
left_labelLayer
10
67.5292695
20
12.3342543
40
0.5696733
50
161.8436872
51
171.7847233
0
ARC
8
left_labelLayer
10
67.9112048
20
12.2768871
40
0.9558891
50
171.6526937
51
178.4383152
0
ARC
8
left_labelLayer
10
68.2710992
20
12.2615321
40
1.3160797
50
178.1970855
51
180.0234468
0
LINE
8
left_labelLayer
10
68.6061523
20
10.5309154
11
68.6061523
21
10.3175951
0
LINE
8
left_labelLayer
10
67.7797461
20
10.8298998
11
67.7797461
21
11.925056
0
LINE
8
left_labelLayer
10
67.7797461
20
11.925056
11
67.5160351
21
11.925056
0
LINE
8
left_labelLayer
10
67.5160351
20
11.925056
11
67.5160351
21
12.059431
0
LINE
8
left_labelLayer
10
67.5160351
20
12.059431
11
67.7797461
21
12.1753295
0
LINE
8
left_labelLayer
10
67.7797461
20
12.1753295
11
67.8973242
21
12.5683763
0
LINE
8
left_labelLayer
10
67.8973242
20
12.5683763
11
68.0585742
21
12.5683763
0
LINE
8
left_labelLayer
10
68.0585742
20
12.5683763
11
68.0585742
21
12.1417357
0
LINE
8
left_labelLayer
10
68.0585742
20
12.1417357
11
68.5927148
21
12.1417357
0
LINE
8
left_labelLayer
10
68.5927148
20
12.1417357
11
68.5927148
21
11.925056
0
LINE
8
left_labelLayer
10
68.5927148
20
11.925056
11
68.0585742
21
11.925056
0
LINE
8
left_labelLayer
10
68.0585742
20
11.925056
11
68.0585742
21
10.8416576
0
ARC
8
left_labelLayer
10
68.3561113
20
11.4130172
40
0.9156976
50
269.8803558
51
278.3029447
0
ARC
8
left_labelLayer
10
68.3652029
20
11.3393085
40
0.8414503
50
278.4151458
51
279.0095065
0
ARC
8
left_labelLayer
10
68.2620638
20
11.9982764
40
1.5084401
50
278.9591169
51
280.5104665
0
ARC
8
left_labelLayer
10
68.3599974
20
11.4728211
40
0.9739367
50
280.4846139
51
282.6265942
0
ARC
8
left_labelLayer
10
68.44585
20
11.0913772
40
0.5829509
50
282.5878556
51
285.5790706
0
ARC
8
left_labelLayer
10
68.489908
20
10.9295261
40
0.4152147
50
285.7210267
51
286.2579419
0
ARC
8
left_labelLayer
10
68.4889192
20
10.5655498
40
0.274272
50
287.9892278
51
295.3048227
0
ARC
8
left_labelLayer
10
68.4227565
20
10.765735
40
0.4851058
50
283.3074192
51
288.119552
0
ARC
8
left_labelLayer
10
68.352918
20
11.0570643
40
0.7846881
50
280.0066887
51
283.3735947
0
ARC
8
left_labelLayer
10
68.3062497
20
11.3102258
40
1.0421096
50
279.1862879
51
280.1149078
0
ARC
8
left_labelLayer
10
68.2774503
20
11.4740839
40
1.2084659
50
275.5258981
51
279.293956
0
ARC
8
left_labelLayer
10
68.3097853
20
11.1362785
40
0.8691168
50
270.8932235
51
275.5486062
0
ARC
8
left_labelLayer
10
68.3138322
20
10.9837439
40
0.7165394
50
270.0043592
51
270.7598031
0
ARC
8
left_labelLayer
10
68.3026346
20
10.9953738
40
0.7282563
50
253.7847934
51
270.8852999
0
ARC
8
left_labelLayer
10
68.2163558
20
10.7011307
40
0.4216258
50
190.3817637
51
253.8772577
0
ARC
8
left_labelLayer
10
68.6561231
20
10.8200352
40
0.8764325
50
179.3550998
51
192.8477139
0
ARC
8
left_labelLayer
10
68.620042
20
10.838147
40
0.5614788
50
179.641765
51
189.7504923
0
ARC
8
left_labelLayer
10
68.4218217
20
10.8027932
40
0.3601367
50
189.547967
51
205.787378
0
ARC
8
left_labelLayer
10
68.3403676
20
10.7652318
40
0.2704586
50
206.1293819
51
221.4082652
0
ARC
8
left_labelLayer
10
68.3312328
20
10.7583014
40
0.2590247
50
221.5949796
51
262.3505621
0
ARC
8
left_labelLayer
10
68.3529548
20
10.869996
40
0.3726765
50
261.3264579
51
270.1913173
0
LINE
8
back_outsideCutPath
10
12.8
20
23.3171573
11
12.8
21
28
0
LINE
8
back_outsideCutPath
10
12.8
20
28
11
22
21
28
0
LINE
8
back_outsideCutPath
10
22
20
28
11
22
21
23.3171573
0
LINE
8
back_outsideCutPath
10
22
20
23.3171573
11
22.1171573
21
23.2
0
LINE
8
back_outsideCutPath
10
22.1171573
20
23.2
11
31.8828427
21
23.2
0
LINE
8
back_outsideCutPath
10
31.8828427
20
23.2
11
32
21
23.3171573
0
LINE
8
back_outsideCutPath
10
32
20
23.3171573
11
32
21
28
0
LINE
8
back_outsideCutPath
10
32
20
28
11
41.2
21
28
0
LINE
8
back_outsideCutPath
10
41.2
20
28
11
41.2
21
23.3171573
0
LINE
8
back_outsideCutPath
10
41.2
20
23.3171573
11
41.3171573
21
23.2
0
LINE
8
back_outsideCutPath
10
41.3171573
20
23.2
11
53.8828427
21
23.2
0
LINE
8
back_outsideCutPath
10
53.8828427
20
23.2
11
54
21
23.3171573
0
LINE
8
back_outsideCutPath
10
54
20
23.3171573
11
54
21
40.2828427
0
LINE
8
back_outsideCutPath
10
54
20
40.2828427
11
53.8828427
21
40.4
0
LINE
8
back_outsideCutPath
10
53.8828427
20
40.4
11
0.1171573
21
40.4
0
LINE
8
back_outsideCutPath
10
0.1171573
20
40.4
11
0
21
40.2828427
0
LINE
8
back_outsideCutPath
10
0
20
40.2828427
11
0
21
23.3171573
0
LINE
8
back_outsideCutPath
10
0
20
23.3171573
11
0.1171573
21
23.2
0
LINE
8
back_outsideCutPath
10
0.1171573
20
23.2
11
12.6828427
21
23.2
0
LINE
8
back_outsideCutPath
10
12.6828427
20
23.2
11
12.8
21
23.3171573
0
LINE
8
back_labelLayer
10
23.7128516
20
30.7468549
11
23.6926953
21
30.7468549
0
LINE
8
back_labelLayer
10
23.6926953
20
30.7468549
11
23.6339063
21
30.510019
0
LINE
8
back_labelLayer
10
23.6339063
20
30.510019
11
23.4340234
21
30.510019
0
LINE
8
back_labelLayer
10
23.4340234
20
30.510019
11
23.4340234
21
33.1236127
0
LINE
8
back_labelLayer
10
23.4340234
20
33.1236127
11
23.7128516
21
33.1236127
0
LINE
8
back_labelLayer
10
23.7128516
20
33.1236127
11
23.7128516
21
32.4886909
0
LINE
8
back_labelLayer
10
23.6994141
20
32.1057221
11
23.7128516
21
32.1057221
0
ARC
8
back_labelLayer
10
24.2990285
20
31.5290391
40
0.8521928
50
74.2392821
51
90.5623807
0
ARC
8
back_labelLayer
10
24.3553786
20
31.7357591
40
0.6379417
50
38.5631243
51
74.0670389
0
ARC
8
back_labelLayer
10
24.2103694
20
31.6230046
40
0.8216192
50
16.4708589
51
38.4076018
0
ARC
8
back_labelLayer
10
23.7925892
20
31.4920012
40
1.2594188
50
5.1339084
51
16.7972925
0
ARC
8
back_labelLayer
10
23.2652336
20
31.4359805
40
1.7896924
50
359.8779266
51
5.4094324
0
ARC
8
back_labelLayer
10
23.4201211
20
31.4225223
40
1.6348292
50
350.6562536
51
0.3380344
0
ARC
8
back_labelLayer
10
23.9900425
20
31.3255845
40
1.0567356
50
335.830623
51
350.8254601
0
ARC
8
back_labelLayer
10
24.2407477
20
31.2173767
40
0.7837132
50
321.3161689
51
335.5436388
0
ARC
8
back_labelLayer
10
24.3365928
20
31.1392775
40
0.6600829
50
274.0640167
51
321.4081303
0
ARC
8
back_labelLayer
10
24.2919401
20
31.4221607
40
0.9457363
50
269.9226958
51
275.5480043
0
ARC
8
back_labelLayer
10
24.2859613
20
31.3221544
40
0.8457422
50
255.7755245
51
270.3185988
0
ARC
8
back_labelLayer
10
24.2618284
20
31.2149321
40
0.7358833
50
245.9801794
51
255.5455368
0
ARC
8
back_labelLayer
10
24.2150799
20
31.1062169
40
0.6175552
50
215.5850511
51
245.8361383
0
ARC
8
back_labelLayer
10
17.8996878
20
32.4837764
40
5.8131658
50
358.1122605
51
0.0484383
0
ARC
8
back_labelLayer
10
19.5174462
20
32.4294607
40
4.1944964
50
355.7238235
51
358.1258539
0
ARC
8
back_labelLayer
10
20.2362981
20
32.3800357
40
3.4739631
50
355.4710552
51
355.6526875
0
ARC
8
back_labelLayer
10
24.2328539
20
31.7431104
40
0.6339477
50
95.1835185
51
145.1108938
0
ARC
8
back_labelLayer
10
24.2885771
20
31.4288769
40
0.9523163
50
89.8744361
51
96.8145305
0
ARC
8
back_labelLayer
10
24.2445142
20
31.3641989
40
0.7835371
50
89.5731385
51
100.7323352
0
ARC
8
back_labelLayer
10
24.1865114
20
31.6572554
40
0.4848114
50
100.4469475
51
119.6700023
0
ARC
8
back_labelLayer
10
24.1327237
20
31.757819
40
0.3708199
50
120.1402854
51
142.4250057
0
ARC
8
back_labelLayer
10
24.2217132
20
31.6989487
40
0.4773088
50
143.3382811
51
161.2558897
0
ARC
8
back_labelLayer
10
24.5938356
20
31.5668344
40
0.8721664
50
160.8926781
51
171.2333888
0
ARC
8
back_labelLayer
10
25.215052
20
31.4666198
40
1.5014054
50
171.0668435
51
177.8456894
0
ARC
8
back_labelLayer
10
25.860787
20
31.4337668
40
2.1479361
50
177.6174581
51
180.0426631
0
ARC
8
back_labelLayer
10
25.5564086
20
31.4249686
40
1.8435711
50
179.7762681
51
185.7075829
0
ARC
8
back_labelLayer
10
24.8295651
20
31.3500758
40
1.1128851
50
185.5924746
51
194.2050592
0
ARC
8
back_labelLayer
10
24.3639444
20
31.2292321
40
0.6318537
50
193.9431142
51
208.0219197
0
ARC
8
back_labelLayer
10
24.1755472
20
31.1333876
40
0.4205324
50
208.5535973
51
217.5606402
0
ARC
8
back_labelLayer
10
24.160205
20
31.1270072
40
0.4045038
50
218.1689886
51
253.804686
0
ARC
8
back_labelLayer
10
24.2352314
20
31.3583192
40
0.6476061
50
253.1381777
51
266.8483814
0
ARC
8
back_labelLayer
10
24.2562746
20
31.606474
40
0.8965726
50
266.3775055
51
270.0508488
0
ARC
8
back_labelLayer
10
24.2630182
20
31.2657068
40
0.5558369
50
269.3868742
51
285.8631744
0
ARC
8
back_labelLayer
10
24.3043137
20
31.1164633
40
0.4009907
50
286.0162821
51
326.8497566
0
ARC
8
back_labelLayer
10
24.104998
20
31.2485028
40
0.6400717
50
326.7105089
51
343.6661175
0
ARC
8
back_labelLayer
10
23.7318888
20
31.3625119
40
1.0301948
50
343.4171488
51
353.6368418
0
ARC
8
back_labelLayer
10
23.1683639
20
31.4293754
40
1.5976634
50
353.493529
51
0.2206028
0
ARC
8
back_labelLayer
10
23.118729
20
31.4421964
40
1.6473001
50
359.7680178
51
6.309623
0
ARC
8
back_labelLayer
10
23.7391973
20
31.5134008
40
1.0227681
50
6.1649319
51
16.0396038
0
ARC
8
back_labelLayer
10
24.1389336
20
31.6312022
40
0.6060508
50
15.7779502
51
32.0150453
0
ARC
8
back_labelLayer
10
24.2634484
20
31.7024921
40
0.4627133
50
32.7039261
51
35.5237404
0
ARC
8
back_labelLayer
10
24.309176
20
31.7349885
40
0.406615
50
35.5408675
51
79.8011328
0
ARC
8
back_labelLayer
10
24.2545726
20
31.5028565
40
0.6448715
50
78.6781907
51
90.3750363
0
LINE
8
back_labelLayer
10
26.8807422
20
30.510019
11
26.6741406
21
30.510019
0
LINE
8
back_labelLayer
10
26.6741406
20
30.510019
11
26.6187109
21
30.7720502
0
LINE
8
back_labelLayer
10
26.6187109
20
30.7720502
11
26.6052734
21
30.7720502
0
LINE
8
back_labelLayer
10
26.2962109
20
31.6034955
11
26.6086328
21
31.6135737
0
LINE
8
back_labelLayer
10
26.6086328
20
31.6135737
11
26.6086328
21
31.7277924
0
LINE
8
back_labelLayer
10
25.6965625
20
32.0099799
11
25.6108984
21
32.2233002
0
LINE
8
back_labelLayer
10
26.8807422
20
31.7664252
11
26.8807422
21
30.510019
0
LINE
8
back_labelLayer
10
26.6019141
20
31.2490815
11
26.6019141
21
31.4153705
0
LINE
8
back_labelLayer
10
26.6019141
20
31.4153705
11
26.3230859
21
31.4036127
0
ARC
8
back_labelLayer
10
25.698051
20
31.4883504
40
1.1559145
50
314.7445661
51
321.7070377
0
ARC
8
back_labelLayer
10
25.9820544
20
31.1997833
40
0.7510372
50
304.8486017
51
314.8530516
0
ARC
8
back_labelLayer
10
26.1184721
20
31.0056091
40
0.5137357
50
294.3933824
51
304.7370652
0
ARC
8
back_labelLayer
10
26.0718695
20
31.1263646
40
0.6430013
50
281.2979887
51
293.7313497
0
ARC
8
back_labelLayer
10
26.0102596
20
31.4249601
40
0.9478825
50
272.9334808
51
281.4138975
0
ARC
8
back_labelLayer
10
25.9898374
20
31.7312123
40
1.2547875
50
269.9539128
51
273.1491197
0
ARC
8
back_labelLayer
10
25.9827843
20
31.3320944
40
0.8556905
50
258.6719792
51
270.4046874
0
ARC
8
back_labelLayer
10
25.9233467
20
31.0477671
40
0.5652324
50
238.3273102
51
258.9183565
0
ARC
8
back_labelLayer
10
25.8823847
20
30.9730383
40
0.4801459
50
227.7689215
51
237.8050636
0
ARC
8
back_labelLayer
10
25.8695758
20
30.9551564
40
0.4583033
50
192.0827964
51
227.4520644
0
ARC
8
back_labelLayer
10
26.105859
20
31.0134018
40
0.7015841
50
179.5457283
51
192.6949002
0
ARC
8
back_labelLayer
10
25.8863531
20
31.0388045
40
0.4824643
50
115.490449
51
182.3568211
0
ARC
8
back_labelLayer
10
26.1279754
20
30.5956213
40
0.9868712
50
101.3567905
51
117.0799041
0
ARC
8
back_labelLayer
10
26.3220247
20
29.6888064
40
1.9141781
50
92.4696639
51
101.7064493
0
ARC
8
back_labelLayer
10
26.3778315
20
28.8801834
40
2.724535
50
91.7167011
51
92.9094188
0
ARC
8
back_labelLayer
10
25.8077623
20
31.7320776
40
0.800882
50
359.6934304
51
8.0034595
0
ARC
8
back_labelLayer
10
26.1107355
20
31.7762131
40
0.494717
50
7.8272206
51
20.6041911
0
ARC
8
back_labelLayer
10
26.2821666
20
31.8417938
40
0.311175
50
20.4094944
51
41.4479632
0
ARC
8
back_labelLayer
10
26.3074971
20
31.8557175
40
0.2830426
50
42.7295667
51
71.0380501
0
ARC
8
back_labelLayer
10
26.2478629
20
31.6935721
40
0.4557818
50
70.5716009
51
83.9928647
0
ARC
8
back_labelLayer
10
26.2193752
20
31.4621943
40
0.6888826
50
83.6504384
51
90.1754601
0
ARC
8
back_labelLayer
10
26.224371
20
31.2433004
40
0.907801
50
90.4484618
51
103.7665876
0
ARC
8
back_labelLayer
10
26.3311228
20
30.7931208
40
1.3704563
50
103.6226517
51
112.4320305
0
ARC
8
back_labelLayer
10
26.5140975
20
30.3311179
40
1.8673353
50
112.2121881
51
115.9641279
0
ARC
8
back_labelLayer
10
26.221073
20
31.0917393
40
1.2855905
50
106.3568907
51
118.3349935
0
ARC
8
back_labelLayer
10
26.2758115
20
30.9226489
40
1.4632608
50
104.516068
51
106.5489085
0
ARC
8
back_labelLayer
10
26.2356718
20
31.0899134
40
1.2912785
50
90.0714071
51
104.6521444
0
ARC
8
back_labelLayer
10
26.2407403
20
31.2035848
40
1.177625
50
81.5680339
51
90.3249005
0
ARC
8
back_labelLayer
10
26.3088263
20
31.6471608
40
0.7288635
50
68.227395
51
81.7493329
0
ARC
8
back_labelLayer
10
26.4036648
20
31.883128
40
0.474552
50
47.8683083
51
68.2934548
0
ARC
8
back_labelLayer
10
26.4190566
20
31.9138601
40
0.4415314
50
19.2331147
51
46.6741666
0
ARC
8
back_labelLayer
10
26.162658
20
31.8184782
40
0.7150611
50
6.337851
51
19.681625
0
ARC
8
back_labelLayer
10
25.7835914
20
31.7702022
40
1.0971573
50
359.8027609
51
6.6582587
0
ARC
8
back_labelLayer
10
26.0498968
20
31.4742125
40
0.7676908
50
269.579137
51
282.0413591
0
ARC
8
back_labelLayer
10
26.1058955
20
31.2258298
40
0.5130992
50
281.7119925
51
306.4594716
0
ARC
8
back_labelLayer
10
26.1307408
20
31.1849786
40
0.4654989
50
306.9879369
51
313.8561335
0
ARC
8
back_labelLayer
10
26.127771
20
31.1841522
40
0.4669685
50
314.1891467
51
347.4269851
0
ARC
8
back_labelLayer
10
25.8938527
20
31.242771
40
0.7080655
50
346.917767
51
0.282454
0
ARC
8
back_labelLayer
10
25.699314
20
31.2491438
40
0.9026001
50
359.8170373
51
359.9960443
0
ARC
8
back_labelLayer
10
26.3894153
20
29.3573207
40
2.0473668
50
91.8565602
51
96.4478197
0
ARC
8
back_labelLayer
10
26.297077
20
30.1563424
40
1.2430316
50
96.3544581
51
102.9954292
0
ARC
8
back_labelLayer
10
26.1717554
20
30.6887852
40
0.6960483
50
102.7995431
51
113.2431962
0
ARC
8
back_labelLayer
10
26.0684489
20
30.9358647
40
0.4282616
50
113.5889366
51
121.6802575
0
ARC
8
back_labelLayer
10
25.9966542
20
31.0452115
40
0.2975259
50
120.9734714
51
172.4179543
0
ARC
8
back_labelLayer
10
26.1369737
20
31.0171858
40
0.440414
50
171.2123828
51
180.2056637
0
ARC
8
back_labelLayer
10
26.0950289
20
31.0123125
40
0.39848
50
179.526592
51
192.7786438
0
ARC
8
back_labelLayer
10
25.9602305
20
30.9796378
40
0.2598012
50
192.3265413
51
222.0578306
0
ARC
8
back_labelLayer
10
25.9501839
20
30.9736223
40
0.2483224
50
222.5801415
51
229.2550205
0
ARC
8
back_labelLayer
10
25.9840836
20
31.017263
40
0.3035246
50
229.783727
51
254.2724288
0
ARC
8
back_labelLayer
10
26.0292109
20
31.1676481
40
0.4605197
50
253.9397521
51
266.4532371
0
ARC
8
back_labelLayer
10
26.0436118
20
31.3336896
40
0.6271474
50
266.0785265
51
270.0590154
0
LINE
8
back_labelLayer
10
28.6830469
20
32.288808
11
28.5973828
21
32.0519721
0
LINE
8
back_labelLayer
10
28.6561719
20
30.8190815
11
28.6561719
21
30.5721674
0
ARC
8
back_labelLayer
10
28.1820041
20
31.5184765
40
1.0420892
50
256.4243778
51
270.4890316
0
ARC
8
back_labelLayer
10
28.0987327
20
31.1934734
40
0.7066354
50
221.7976492
51
256.8020069
0
ARC
8
back_labelLayer
10
28.1793714
20
31.2530536
40
0.8065162
50
196.0166288
51
221.1349253
0
ARC
8
back_labelLayer
10
28.5846594
20
31.3769322
40
1.2302731
50
183.5913802
51
196.3540062
0
ARC
8
back_labelLayer
10
29.0387109
20
31.4169306
40
1.6859775
50
179.9388522
51
183.9814448
0
ARC
8
back_labelLayer
10
28.8911669
20
31.428636
40
1.5384644
50
169.8978786
51
180.3689277
0
ARC
8
back_labelLayer
10
28.3555889
20
31.5277094
40
0.9938182
50
153.0874821
51
170.1051604
0
ARC
8
back_labelLayer
10
28.1523884
20
31.6248041
40
0.7686956
50
138.6550716
51
152.6853222
0
ARC
8
back_labelLayer
10
28.1144569
20
31.6524459
40
0.7219716
50
101.4912955
51
138.3134136
0
ARC
8
back_labelLayer
10
28.2015274
20
31.2900685
40
1.0945099
50
89.5891856
51
102.1787831
0
ARC
8
back_labelLayer
10
28.2082238
20
31.1262832
40
1.2582676
50
77.7702434
51
89.9475805
0
ARC
8
back_labelLayer
10
28.1843858
20
30.9947992
40
1.3918246
50
74.6798407
51
77.9577751
0
ARC
8
back_labelLayer
10
28.3130547
20
31.4609646
40
0.9082292
50
70.0943905
51
74.7385044
0
ARC
8
back_labelLayer
10
28.4354065
20
31.79627
40
0.5513002
50
63.5035234
51
70.1858432
0
ARC
8
back_labelLayer
10
28.4961259
20
31.9230847
40
0.4107226
50
62.9284477
51
63.1916018
0
ARC
8
back_labelLayer
10
28.1393541
20
30.8992794
40
1.2403591
50
68.3293329
51
74.8832561
0
ARC
8
back_labelLayer
10
28.0739691
20
30.6674802
40
1.4811912
50
74.779883
51
77.4499611
0
ARC
8
back_labelLayer
10
28.1425827
20
30.9895651
40
1.1518967
50
77.3001249
51
81.7342756
0
ARC
8
back_labelLayer
10
28.192716
20
31.3388448
40
0.7990382
50
81.6911561
51
87.5079152
0
ARC
8
back_labelLayer
10
28.2023848
20
31.519593
40
0.6180433
50
87.6748261
51
89.9748337
0
ARC
8
back_labelLayer
10
28.1888339
20
31.5193082
40
0.6184824
50
88.7194039
51
112.5667422
0
ARC
8
back_labelLayer
10
28.1448865
20
31.66461
40
0.467687
50
114.4265633
51
161.6632718
0
ARC
8
back_labelLayer
10
28.5814673
20
31.4937291
40
0.9361892
50
160.1419097
51
175.136754
0
ARC
8
back_labelLayer
10
29.1823165
20
31.4262559
40
1.5406817
50
174.5308775
51
180.1549494
0
ARC
8
back_labelLayer
10
28.9919956
20
31.4151175
40
1.350373
50
179.7041867
51
188.0743074
0
ARC
8
back_labelLayer
10
28.5055951
20
31.3439526
40
0.8588014
50
187.9314725
51
200.3885046
0
ARC
8
back_labelLayer
10
28.2426039
20
31.2465275
40
0.5783446
50
200.4182603
51
216.639247
0
ARC
8
back_labelLayer
10
28.132353
20
31.1677116
40
0.4428502
50
216.9694684
51
261.3103396
0
ARC
8
back_labelLayer
10
28.1810088
20
31.3945396
40
0.6745672
50
260.1357876
51
270.2693265
0
ARC
8
back_labelLayer
10
28.1787648
20
31.8871694
40
1.167202
50
270.2658055
51
286.2891899
0
ARC
8
back_labelLayer
10
28.1078164
20
32.1517707
40
1.4410948
50
286.0460114
51
292.3654717
0
ARC
8
back_labelLayer
10
28.2967756
20
31.2791874
40
0.7931223
50
282.0344354
51
296.9453909
0
ARC
8
back_labelLayer
10
28.2152111
20
31.646764
40
1.1696309
50
272.5979827
51
282.187877
0
ARC
8
back_labelLayer
10
28.1918151
20
32.0055139
40
1.5290891
50
269.965654
51
272.8644245
0
LINE
8
back_labelLayer
10
29.3549219
20
31.4523237
11
29.3683594
21
31.4523237
0
LINE
8
back_labelLayer
10
29.5883984
20
31.7210737
11
30.1830078
21
32.3509565
0
LINE
8
back_labelLayer
10
30.1830078
20
32.3509565
11
30.5139063
21
32.3509565
0
LINE
8
back_labelLayer
10
30.5139063
20
32.3509565
11
29.768125
21
31.5665424
0
LINE
8
back_labelLayer
10
29.768125
20
31.5665424
11
30.5659766
21
30.510019
0
LINE
8
back_labelLayer
10
30.5659766
20
30.510019
11
30.2283594
21
30.510019
0
LINE
8
back_labelLayer
10
30.2283594
20
30.510019
11
29.5783203
21
31.3800971
0
LINE
8
back_labelLayer
10
29.5783203
20
31.3800971
11
29.3683594
21
31.1986909
0
LINE
8
back_labelLayer
10
29.3683594
20
31.1986909
11
29.3683594
21
30.510019
0
LINE
8
back_labelLayer
10
29.3683594
20
30.510019
11
29.0928906
21
30.510019
0
LINE
8
back_labelLayer
10
29.0928906
20
30.510019
11
29.0928906
21
33.1236127
0
LINE
8
back_labelLayer
10
29.0928906
20
33.1236127
11
29.3683594
21
33.1236127
0
LINE
8
back_labelLayer
10
29.3683594
20
33.1236127
11
29.3683594
21
31.7378705
0
ARC
8
back_labelLayer
10
30.71538
20
30.4988548
40
1.6503234
50
142.3231982
51
144.7077886
0
ARC
8
back_labelLayer
10
31.5946366
20
29.8206724
40
2.7607392
50
140.4331585
51
142.3365995
0
ARC
8
back_labelLayer
10
32.7398778
20
28.8779433
40
4.2440835
50
139.2799016
51
140.4704257
0
ARC
8
back_labelLayer
10
34.0641087
20
27.7391929
40
5.9906056
50
138.3416441
51
139.2877039
0
ARC
8
back_labelLayer
10
27.5096946
20
31.7413558
40
1.858668
50
358.2742236
51
359.892562
0
ARC
8
back_labelLayer
10
26.0645796
20
31.78164
40
3.3043423
50
357.5041443
51
358.3306645
0
ARC
8
back_labelLayer
10
23.9017009
20
31.8771751
40
5.4693297
50
356.6323952
51
357.4909735
0
ARC
8
back_labelLayer
10
20.306045
20
32.0868634
40
9.0710944
50
356.0329104
51
356.6443303
0
ARC
8
back_labelLayer
10
17.8908333
20
32.2495943
40
11.4917784
50
356.0217673
51
356.0566017
0
LINE
8
right_outsideCutPath
10
61.6
20
23.3171573
11
61.6
21
28
0
LINE
8
right_outsideCutPath
10
61.6
20
28
11
70.8
21
28
0
LINE
8
right_outsideCutPath
10
70.8
20
28
11
70.8
21
23.3171573
0
LINE
8
right_outsideCutPath
10
70.8
20
23.3171573
11
70.9171573
21
23.2
0
LINE
8
right_outsideCutPath
10
70.9171573
20
23.2
11
75.2828427
21
23.2
0
LINE
8
right_outsideCutPath
10
75.2828427
20
23.2
11
75.4
21
23.3171573
0
LINE
8
right_outsideCutPath
10
75.4
20
23.3171573
11
75.4
21
40.2828427
0
LINE
8
right_outsideCutPath
10
75.4
20
40.2828427
11
75.2828427
21
40.4
0
LINE
8
right_outsideCutPath
10
75.2828427
20
40.4
11
57.1171573
21
40.4
0
LINE
8
right_outsideCutPath
10
57.1171573
20
40.4
11
57
21
40.2828427
0
LINE
8
right_outsideCutPath
10
57
20
40.2828427
11
57
21
23.3171573
0
LINE
8
right_outsideCutPath
10
57
20
23.3171573
11
57.1171573
21
23.2
0
LINE
8
right_outsideCutPath
10
57.1171573
20
23.2
11
61.4828427
21
23.2
0
LINE
8
right_outsideCutPath
10
61.4828427
20
23.2
11
61.6
21
23.3171573
0
LINE
8
right_labelLayer
10
63.7014648
20
32.7607914
11
63.662832
21
32.5021196
0
LINE
8
right_labelLayer
10
62.9204101
20
31.8940727
11
62.9204101
21
30.9064164
0
LINE
8
right_labelLayer
10
62.9204101
20
30.9064164
11
62.641582
21
30.9064164
0
LINE
8
right_labelLayer
10
62.641582
20
30.9064164
11
62.641582
21
32.7473539
0
LINE
8
right_labelLayer
10
62.641582
20
32.7473539
11
62.8716992
21
32.7473539
0
LINE
8
right_labelLayer
10
62.8716992
20
32.7473539
11
62.9036133
21
32.4063774
0
LINE
8
right_labelLayer
10
62.9036133
20
32.4063774
11
62.9170508
21
32.4063774
0
ARC
8
right_labelLayer
10
63.4842856
20
31.5008917
40
1.2800592
50
84.9922093
51
90.1280079
0
ARC
8
right_labelLayer
10
63.5150339
20
31.845346
40
0.934236
50
78.4890935
51
85.0267408
0
ARC
8
right_labelLayer
10
63.3956954
20
31.3025412
40
1.228963
50
77.4455382
51
81.635876
0
ARC
8
right_labelLayer
10
63.4492474
20
31.6716351
40
0.8560054
50
81.5885337
51
87.1914643
0
ARC
8
right_labelLayer
10
63.4608856
20
31.8735123
40
0.6538026
50
87.3433001
51
89.9663597
0
ARC
8
right_labelLayer
10
63.4581796
20
32.0441979
40
0.4831268
50
89.6335523
51
137.0880699
0
ARC
8
right_labelLayer
10
63.576719
20
31.9108954
40
0.660924
50
135.6210559
51
138.8380753
0
ARC
8
right_labelLayer
10
63.5593738
20
31.9278237
40
0.6367252
50
138.9575802
51
174.5422219
0
ARC
8
right_labelLayer
10
63.7667119
20
31.8953784
40
0.8463027
50
173.6906574
51
180.0883979
0
ARC
8
right_labelLayer
10
63.737425
20
31.9441821
40
0.9416148
50
139.4139595
51
150.6032797
0
ARC
8
right_labelLayer
10
63.568595
20
32.0888509
40
0.7192803
50
124.2322518
51
139.4160948
0
ARC
8
right_labelLayer
10
63.4783178
20
32.2251216
40
0.5558347
50
89.6796259
51
124.4405749
0
LINE
8
right_labelLayer
10
64.3246289
20
32.7473539
11
64.3246289
21
30.9064164
0
LINE
8
right_labelLayer
10
64.3246289
20
30.9064164
11
64.0458008
21
30.9064164
0
LINE
8
right_labelLayer
10
64.0458008
20
30.9064164
11
64.0458008
21
32.7473539
0
LINE
8
right_labelLayer
10
64.0458008
20
32.7473539
11
64.3246289
21
32.7473539
0
ARC
8
right_labelLayer
10
64.3312392
20
33.2481338
40
0.30896
50
170.8449577
51
180.3547098
0
ARC
8
right_labelLayer
10
64.2155839
20
33.2674728
40
0.1917023
50
155.9675613
51
171.0514993
0
ARC
8
right_labelLayer
10
64.1595627
20
33.2923277
40
0.1304153
50
133.7880366
51
155.9172645
0
ARC
8
right_labelLayer
10
64.1802472
20
33.2694597
40
0.1612397
50
92.64471
51
133.4709858
0
ARC
8
right_labelLayer
10
64.1867803
20
33.2181764
40
0.2128105
50
89.9692627
51
93.764741
0
ARC
8
right_labelLayer
10
64.1894406
20
33.2667248
40
0.1642817
50
46.3708238
51
90.8880278
0
ARC
8
right_labelLayer
10
64.2057901
20
33.2836037
40
0.1407835
50
17.725176
51
46.4472771
0
ARC
8
right_labelLayer
10
64.1295483
20
33.2573489
40
0.2214066
50
4.942647
51
18.1900671
0
ARC
8
right_labelLayer
10
64.0325698
20
33.2468646
40
0.3189346
50
359.8844012
51
5.3180775
0
ARC
8
right_labelLayer
10
64.0630183
20
33.2442631
40
0.2884922
50
349.8343759
51
0.3888735
0
ARC
8
right_labelLayer
10
64.1680498
20
33.2246687
40
0.181653
50
332.6321826
51
350.0707513
0
ARC
8
right_labelLayer
10
64.2089244
20
33.2044856
40
0.1360778
50
313.6155016
51
332.2675424
0
ARC
8
right_labelLayer
10
64.189226
20
33.2224213
40
0.1626622
50
269.1787205
51
314.2808778
0
ARC
8
right_labelLayer
10
64.1850465
20
33.2368809
40
0.1771147
50
250.4998056
51
270.5978227
0
ARC
8
right_labelLayer
10
64.1796861
20
33.2168399
40
0.1564426
50
225.1302505
51
249.9002888
0
ARC
8
right_labelLayer
10
64.1712939
20
33.207569
40
0.1439525
50
197.7933627
51
224.8942504
0
ARC
8
right_labelLayer
10
64.2498407
20
33.2344869
40
0.2269735
50
184.9927599
51
198.2042102
0
ARC
8
right_labelLayer
10
64.3514437
20
33.2455328
40
0.3291592
50
179.8801854
51
185.3690149
0
LINE
8
right_labelLayer
10
65.785957
20
32.7473539
11
66.4225586
21
32.7473539
0
LINE
8
right_labelLayer
10
66.4225586
20
32.7473539
11
66.4225586
21
32.5709868
0
LINE
8
right_labelLayer
10
66.4225586
20
32.5709868
11
66.081582
21
32.5306743
0
LINE
8
right_labelLayer
10
65.4533789
20
31.1986821
11
65.7792383
21
31.1986821
0
LINE
8
right_labelLayer
10
65.6902148
20
30.9484086
11
65.355957
21
30.9484086
0
ARC
8
right_labelLayer
10
65.7262733
20
32.2494843
40
0.4531138
50
29.458376
51
38.3579638
0
ARC
8
right_labelLayer
10
65.5411483
20
32.1437992
40
0.6662801
50
23.1842674
51
29.5425231
0
ARC
8
right_labelLayer
10
65.3640082
20
32.0652551
40
0.8600405
50
21.2511713
51
23.3483519
0
ARC
8
right_labelLayer
10
65.6647265
20
32.1848568
40
0.5364262
50
6.8504793
51
20.9871967
0
ARC
8
right_labelLayer
10
65.5136293
20
32.1643712
40
0.688892
50
359.8712105
51
7.0431624
0
ARC
8
right_labelLayer
10
65.5633531
20
32.1561764
40
0.639201
50
342.5649911
51
0.595761
0
ARC
8
right_labelLayer
10
65.6812407
20
32.1236236
40
0.5169934
50
310.6098147
51
342.0923496
0
ARC
8
right_labelLayer
10
65.6151331
20
32.2005198
40
0.6183996
50
284.9316429
51
310.6222421
0
ARC
8
right_labelLayer
10
65.5324089
20
32.4904032
40
0.9198249
50
272.5334829
51
285.2579018
0
ARC
8
right_labelLayer
10
65.5111432
20
32.7808434
40
1.2109505
50
269.9690122
51
272.9312393
0
ARC
8
right_labelLayer
10
65.5085014
20
32.4660368
40
0.8961459
50
263.4838387
51
270.1270325
0
ARC
8
right_labelLayer
10
65.4938923
20
32.3272899
40
0.7566385
50
259.4962358
51
263.3906407
0
ARC
8
right_labelLayer
10
65.5842424
20
31.1428024
40
0.4961645
50
117.3935714
51
128.4095736
0
ARC
8
right_labelLayer
10
65.4565108
20
31.3012631
40
0.2926441
50
128.0883039
51
147.1400487
0
ARC
8
right_labelLayer
10
65.3876957
20
31.3474433
40
0.2097878
50
147.5369338
51
180.259124
0
ARC
8
right_labelLayer
10
65.3224137
20
31.3447091
40
0.1445146
50
179.2921039
51
198.358105
0
ARC
8
right_labelLayer
10
65.2953563
20
31.3375987
40
0.1166084
50
199.2294624
51
239.5688216
0
ARC
8
right_labelLayer
10
65.3175292
20
31.3681543
40
0.1542282
50
238.2157446
51
239.8469079
0
ARC
8
right_labelLayer
10
65.3356871
20
31.4054146
40
0.1955907
50
240.7302739
51
254.502715
0
ARC
8
right_labelLayer
10
65.3890699
20
31.5893626
40
0.3871213
50
254.1634253
51
262.2121626
0
ARC
8
right_labelLayer
10
65.4313534
20
31.8847087
40
0.6854753
50
262.0556462
51
267.2083938
0
ARC
8
right_labelLayer
10
65.4517808
20
32.2593096
40
1.0606288
50
267.091773
51
270.0863288
0
ARC
8
right_labelLayer
10
65.7853333
20
30.0573348
40
1.1413636
50
81.5744374
51
90.3059672
0
ARC
8
right_labelLayer
10
65.8479392
20
30.4656397
40
0.7282952
50
68.3672033
51
81.7399271
0
ARC
8
right_labelLayer
10
65.9297098
20
30.6746165
40
0.5038932
50
52.1879998
51
68.250135
0
ARC
8
right_labelLayer
10
65.9869253
20
30.7517114
40
0.407914
50
8.6201675
51
51.8982298
0
ARC
8
right_labelLayer
10
65.7863921
20
30.709282
40
0.6126568
50
359.7429675
51
9.7325207
0
ARC
8
right_labelLayer
10
65.7953736
20
30.6989461
40
0.6037171
50
340.526869
51
0.7201092
0
ARC
8
right_labelLayer
10
65.8840739
20
30.6768612
40
0.512803
50
302.990422
51
339.5494075
0
ARC
8
right_labelLayer
10
65.7915581
20
30.7942977
40
0.6618197
50
303.1857525
51
304.1726346
0
ARC
8
right_labelLayer
10
65.7041834
20
30.94543
40
0.8361827
50
286.2542576
51
302.5279991
0
ARC
8
right_labelLayer
10
65.546266
20
31.4663099
40
1.3804558
50
276.4939526
51
286.4954362
0
ARC
8
right_labelLayer
10
65.4477292
20
32.290014
40
2.2100242
50
269.7545513
51
276.6169691
0
ARC
8
right_labelLayer
10
65.4309016
20
31.6421679
40
1.5621751
50
262.5634041
51
270.2699484
0
ARC
8
right_labelLayer
10
65.3543886
20
31.0750722
40
0.9899495
50
251.2101553
51
262.7064068
0
ARC
8
right_labelLayer
10
65.2441065
20
30.7513818
40
0.6479881
50
235.9668307
51
251.22295
0
ARC
8
right_labelLayer
10
65.1272186
20
30.5846276
40
0.4443917
50
208.9035907
51
236.4231034
0
ARC
8
right_labelLayer
10
65.1379471
20
30.5801288
40
0.4517016
50
182.2079116
51
207.7461972
0
ARC
8
right_labelLayer
10
65.2744483
20
30.593773
40
0.5886868
50
179.978439
51
183.0230931
0
ARC
8
right_labelLayer
10
65.1120375
20
30.6014744
40
0.4263415
50
138.3915947
51
181.0052671
0
ARC
8
right_labelLayer
10
65.1570585
20
30.5610146
40
0.4868707
50
113.8120605
51
138.3496633
0
ARC
8
right_labelLayer
10
65.2424583
20
30.3766038
40
0.6900724
50
102.286954
51
114.1173189
0
ARC
8
right_labelLayer
10
65.2156268
20
31.3141937
40
0.2893868
50
216.5860795
51
245.4968315
0
ARC
8
right_labelLayer
10
65.2564622
20
31.3489049
40
0.3428834
50
215.46313
51
217.1763808
0
ARC
8
right_labelLayer
10
65.1880506
20
31.2995005
40
0.2585001
50
182.1767551
51
215.3416061
0
ARC
8
right_labelLayer
10
65.2494415
20
31.3060909
40
0.3201251
50
179.98368
51
182.9381221
0
ARC
8
right_labelLayer
10
65.24816
20
31.3088774
40
0.318855
50
161.7225445
51
180.4843349
0
ARC
8
right_labelLayer
10
65.2131043
20
31.3184432
40
0.2825744
50
144.496442
51
161.3350859
0
ARC
8
right_labelLayer
10
65.3065606
20
31.2487895
40
0.3991142
50
132.7259406
51
144.1477957
0
ARC
8
right_labelLayer
10
65.4563299
20
31.0888543
40
0.6182231
50
125.2212392
51
132.865592
0
ARC
8
right_labelLayer
10
65.6069552
20
30.8796861
40
0.8759733
50
121.2353781
51
125.3792566
0
ARC
8
right_labelLayer
10
65.3399715
20
32.0801989
40
0.4888072
50
215.164068
51
247.4748475
0
ARC
8
right_labelLayer
10
65.4310684
20
32.1537382
40
0.6056805
50
212.4710103
51
215.888172
0
ARC
8
right_labelLayer
10
65.4072217
20
32.1366712
40
0.5764012
50
183.0160794
51
212.3123492
0
ARC
8
right_labelLayer
10
65.5337698
20
32.1507695
40
0.7035549
50
179.9759432
51
183.6203755
0
ARC
8
right_labelLayer
10
65.6357675
20
32.157869
40
0.8055814
50
166.8195765
51
180.483939
0
ARC
8
right_labelLayer
10
65.3685241
20
32.2253422
40
0.5300143
50
132.3287656
51
167.3340833
0
ARC
8
right_labelLayer
10
65.4042783
20
32.173949
40
0.5921416
50
106.2189265
51
131.5377692
0
ARC
8
right_labelLayer
10
65.4947408
20
31.8810357
40
0.8986785
50
93.6329507
51
106.5408356
0
ARC
8
right_labelLayer
10
65.5242709
20
31.5495712
40
1.2313773
50
89.9379029
51
94.026955
0
ARC
8
right_labelLayer
10
65.5290568
20
31.712195
40
1.0687583
50
82.5852542
51
90.1850271
0
ARC
8
right_labelLayer
10
65.5617171
20
31.9648835
40
0.8139678
50
74.0087854
51
82.5695909
0
ARC
8
right_labelLayer
10
65.2345238
20
30.5935459
40
0.280038
50
179.2208582
51
200.9355361
0
ARC
8
right_labelLayer
10
65.2012197
20
30.5858336
40
0.2462217
50
202.0285828
51
236.1458115
0
ARC
8
right_labelLayer
10
65.2513331
20
30.6494466
40
0.3270251
50
235.0630853
51
238.5052153
0
ARC
8
right_labelLayer
10
65.3097625
20
30.753788
40
0.4465452
50
239.1067532
51
254.4860966
0
ARC
8
right_labelLayer
10
65.387551
20
31.0220008
40
0.7257993
50
254.2323152
51
263.4938304
0
ARC
8
right_labelLayer
10
65.4364231
20
31.4359545
40
1.1426258
50
263.4109809
51
270.1456241
0
ARC
8
right_labelLayer
10
65.4410471
20
31.2321696
40
0.9388389
50
269.8950398
51
270.0350294
0
ARC
8
right_labelLayer
10
65.4483035
20
32.1677687
40
1.8744501
50
269.7957412
51
275.3990361
0
ARC
8
right_labelLayer
10
65.5184549
20
31.4475591
40
1.1508368
50
275.2957531
51
283.3515709
0
ARC
8
right_labelLayer
10
65.6327485
20
30.9767966
40
0.6664097
50
283.1371985
51
295.8572115
0
ARC
8
right_labelLayer
10
65.7174642
20
30.7918606
40
0.463063
50
296.4043432
51
301.8009491
0
ARC
8
right_labelLayer
10
65.750645
20
30.7461306
40
0.406733
50
301.2231748
51
318.6238436
0
ARC
8
right_labelLayer
10
65.8255379
20
30.6769496
40
0.3048154
50
319.0765316
51
1.1407547
0
ARC
8
right_labelLayer
10
65.753053
20
30.6860065
40
0.3772518
50
359.5461133
51
10.9903353
0
ARC
8
right_labelLayer
10
65.8987774
20
30.7156461
40
0.2285531
50
10.6607752
51
30.9362651
0
ARC
8
right_labelLayer
10
65.9449764
20
30.7412848
40
0.1757548
50
31.5096498
51
58.0776457
0
ARC
8
right_labelLayer
10
65.9016753
20
30.6637533
40
0.2644912
50
58.9970294
51
73.858562
0
ARC
8
right_labelLayer
10
65.8141511
20
30.3772267
40
0.5640722
50
73.4099185
51
81.5906972
0
ARC
8
right_labelLayer
10
65.7399919
20
29.8973123
40
1.0496768
50
81.4172567
51
86.5756755
0
ARC
8
right_labelLayer
10
65.6945473
20
29.1742464
40
1.7741675
50
86.5054489
51
90.1399151
0
ARC
8
right_labelLayer
10
65.3519692
20
30.3074727
40
0.6409483
50
89.6435215
51
100.0208589
0
ARC
8
right_labelLayer
10
65.3116829
20
30.5266258
40
0.4181312
50
99.8101585
51
116.8230455
0
ARC
8
right_labelLayer
10
65.2724474
20
30.6093696
40
0.326594
50
117.230603
51
130.5022065
0
ARC
8
right_labelLayer
10
65.2522954
20
30.6352702
40
0.2938152
50
130.7944499
51
169.0413019
0
ARC
8
right_labelLayer
10
65.4006673
20
30.6003289
40
0.4461654
50
168.2581184
51
180.3820363
0
ARC
8
right_labelLayer
10
65.6499269
20
32.1536199
40
0.5442592
50
179.5616632
51
191.6529468
0
ARC
8
right_labelLayer
10
65.4607013
20
32.112737
40
0.3506808
50
191.3556058
51
213.365928
0
ARC
8
right_labelLayer
10
65.4152546
20
32.0864961
40
0.2983087
50
213.9573629
51
227.797059
0
ARC
8
right_labelLayer
10
65.4547907
20
32.1344475
40
0.3604001
50
228.2620188
51
254.7341959
0
ARC
8
right_labelLayer
10
65.5053036
20
32.307607
40
0.5407587
50
254.4017005
51
267.4348912
0
ARC
8
right_labelLayer
10
65.5184818
20
32.4843833
40
0.7179669
50
267.0156428
51
270.0323098
0
ARC
8
right_labelLayer
10
65.527095
20
32.3738093
40
0.6074483
50
269.2257564
51
284.3772128
0
ARC
8
right_labelLayer
10
65.6098888
20
32.0853495
40
0.3075839
50
282.7796874
51
346.4828431
0
ARC
8
right_labelLayer
10
65.3623566
20
32.1554647
40
0.5647422
50
345.4362116
51
0.7465256
0
ARC
8
right_labelLayer
10
65.3275614
20
32.1713963
40
0.5995506
50
359.180639
51
15.0431047
0
ARC
8
right_labelLayer
10
65.59923
20
32.250644
40
0.3166807
50
13.9535861
51
77.6673766
0
ARC
8
right_labelLayer
10
65.5212857
20
31.9713262
40
0.6064251
50
76.1094633
51
90.702774
0
ARC
8
right_labelLayer
10
65.5096205
20
31.9926588
40
0.585062
50
89.5860253
51
101.3334593
0
ARC
8
right_labelLayer
10
65.4678088
20
32.1920792
40
0.3813179
50
101.0620275
51
121.973974
0
ARC
8
right_labelLayer
10
65.4384242
20
32.2449387
40
0.3209323
50
122.5210293
51
134.9966873
0
ARC
8
right_labelLayer
10
65.4505231
20
32.237689
40
0.3346312
50
135.5839439
51
163.0015913
0
ARC
8
right_labelLayer
10
65.6272359
20
32.1797686
40
0.52057
50
162.5911706
51
175.7342502
0
ARC
8
right_labelLayer
10
65.8392314
20
32.1588874
40
0.7335487
50
175.3394444
51
180.0862103
0
LINE
8
right_labelLayer
10
68.339082
20
30.9064164
11
68.0602539
21
30.9064164
0
LINE
8
right_labelLayer
10
68.0602539
20
30.9064164
11
68.0602539
21
32.0973149
0
LINE
8
right_labelLayer
10
67.0793164
20
31.8688774
11
67.0793164
21
30.9064164
0
LINE
8
right_labelLayer
10
67.0793164
20
30.9064164
11
66.8004883
21
30.9064164
0
LINE
8
right_labelLayer
10
66.8004883
20
30.9064164
11
66.8004883
21
33.5200102
0
LINE
8
right_labelLayer
10
66.8004883
20
33.5200102
11
67.0793164
21
33.5200102
0
LINE
8
right_labelLayer
10
67.0793164
20
33.5200102
11
67.0793164
21
32.7288774
0
LINE
8
right_labelLayer
10
67.0658789
20
32.4920414
11
67.0826758
21
32.4920414
0
LINE
8
right_labelLayer
10
68.339082
20
32.107393
11
68.339082
21
30.9064164
0
ARC
8
right_labelLayer
10
67.2720945
20
32.1018351
40
0.7881723
50
359.6714053
51
8.6877706
0
ARC
8
right_labelLayer
10
67.5642139
20
32.1481644
40
0.4924096
50
8.493087
51
22.6580329
0
ARC
8
right_labelLayer
10
67.7126284
20
32.2098412
40
0.3316899
50
22.7024477
51
42.3419824
0
ARC
8
right_labelLayer
10
67.7293115
20
32.2173469
40
0.3143549
50
43.3789906
51
71.5386228
0
ARC
8
right_labelLayer
10
67.666926
20
32.0430271
40
0.4994747
50
71.0827585
51
84.3691325
0
ARC
8
right_labelLayer
10
67.6389233
20
31.8049685
40
0.7391459
50
84.0195718
51
90.151208
0
ARC
8
right_labelLayer
10
67.6309624
20
31.7003617
40
0.8437715
50
89.5918742
51
100.3594812
0
ARC
8
right_labelLayer
10
67.5712172
20
32.0143361
40
0.5241765
50
100.1068379
51
118.0847528
0
ARC
8
right_labelLayer
10
67.5104496
20
32.1335771
40
0.3903762
50
118.4551544
51
139.6706188
0
ARC
8
right_labelLayer
10
67.57146
20
32.0918764
40
0.4639384
50
140.6209563
51
160.5048342
0
ARC
8
right_labelLayer
10
67.8930169
20
31.972836
40
0.8068024
50
160.1566062
51
171.5313384
0
ARC
8
right_labelLayer
10
68.4133536
20
31.8903951
40
1.3336156
50
171.3202699
51
178.3406292
0
ARC
8
right_labelLayer
10
68.8784283
20
31.8696043
40
1.7991121
50
178.1076783
51
180.0231487
0
ARC
8
right_labelLayer
10
64.5712374
20
32.7258827
40
2.5080808
50
357.8673719
51
0.0684122
0
ARC
8
right_labelLayer
10
65.4230566
20
32.693383
40
1.6556423
50
354.982978
51
357.8943163
0
ARC
8
right_labelLayer
10
65.9856238
20
32.6444067
40
1.0909473
50
351.9716399
51
354.961509
0
ARC
8
right_labelLayer
10
67.5549642
20
32.1966081
40
0.5570792
50
119.8316172
51
147.9725479
0
ARC
8
right_labelLayer
10
67.6223673
20
32.0930835
40
0.6804515
50
116.6656392
51
120.4187675
0
ARC
8
right_labelLayer
10
67.6350142
20
32.059901
40
0.7157893
50
96.6652108
51
116.3782761
0
ARC
8
right_labelLayer
10
67.662155
20
31.8726369
40
0.904953
50
89.892835
51
96.9958439
0
ARC
8
right_labelLayer
10
67.6708326
20
31.6463666
40
1.1312433
50
80.686347
51
90.3537816
0
ARC
8
right_labelLayer
10
67.7412719
20
32.0606815
40
0.7109945
50
65.6021847
51
80.8844612
0
ARC
8
right_labelLayer
10
67.8258534
20
32.2511762
40
0.5025758
50
46.7400605
51
65.4130191
0
ARC
8
right_labelLayer
10
67.8316039
20
32.2693285
40
0.4854858
50
19.2204144
51
45.7661096
0
ARC
8
right_labelLayer
10
67.551663
20
32.1655521
40
0.7840077
50
6.4734694
51
19.6468056
0
ARC
8
right_labelLayer
10
67.1333531
20
32.1117155
40
1.2057367
50
359.794598
51
6.7743511
0
LINE
8
right_labelLayer
10
69.7584179
20
31.1365336
11
69.7584179
21
30.9232133
0
LINE
8
right_labelLayer
10
68.9320117
20
31.435518
11
68.9320117
21
32.5306743
0
LINE
8
right_labelLayer
10
68.9320117
20
32.5306743
11
68.6683008
21
32.5306743
0
LINE
8
right_labelLayer
10
68.6683008
20
32.5306743
11
68.6683008
21
32.6650493
0
LINE
8
right_labelLayer
10
68.6683008
20
32.6650493
11
68.9320117
21
32.7809477
0
LINE
8
right_labelLayer
10
68.9320117
20
32.7809477
11
69.0495898
21
33.1739946
0
LINE
8
right_labelLayer
10
69.0495898
20
33.1739946
11
69.2108398
21
33.1739946
0
LINE
8
right_labelLayer
10
69.2108398
20
33.1739946
11
69.2108398
21
32.7473539
0
LINE
8
right_labelLayer
10
69.2108398
20
32.7473539
11
69.7449804
21
32.7473539
0
LINE
8
right_labelLayer
10
69.7449804
20
32.7473539
11
69.7449804
21
32.5306743
0
LINE
8
right_labelLayer
10
69.7449804
20
32.5306743
11
69.2108398
21
32.5306743
0
LINE
8
right_labelLayer
10
69.2108398
20
32.5306743
11
69.2108398
21
31.4472758
0
ARC
8
right_labelLayer
10
69.508377
20
32.0186355
40
0.9156976
50
269.8803558
51
278.3029447
0
ARC
8
right_labelLayer
10
69.5174685
20
31.9449267
40
0.8414503
50
278.4151458
51
279.0095065
0
ARC
8
right_labelLayer
10
69.4143294
20
32.6038946
40
1.5084401
50
278.9591169
51
280.5104665
0
ARC
8
right_labelLayer
10
69.512263
20
32.0784393
40
0.9739367
50
280.4846139
51
282.6265942
0
ARC
8
right_labelLayer
10
69.5981156
20
31.6969954
40
0.5829509
50
282.5878556
51
285.5790706
0
ARC
8
right_labelLayer
10
69.6421736
20
31.5351443
40
0.4152147
50
285.7210267
51
286.2579419
0
ARC
8
right_labelLayer
10
69.6411848
20
31.171168
40
0.274272
50
287.9892278
51
295.3048227
0
ARC
8
right_labelLayer
10
69.5750221
20
31.3713532
40
0.4851058
50
283.3074192
51
288.119552
0
ARC
8
right_labelLayer
10
69.5051837
20
31.6626825
40
0.7846881
50
280.0066887
51
283.3735947
0
ARC
8
right_labelLayer
10
69.4585153
20
31.915844
40
1.0421096
50
279.1862879
51
280.1149078
0
ARC
8
right_labelLayer
10
69.4297159
20
32.0797021
40
1.2084659
50
275.5258981
51
279.293956
0
ARC
8
right_labelLayer
10
69.4620509
20
31.7418967
40
0.8691168
50
270.8932235
51
275.5486062
0
ARC
8
right_labelLayer
10
69.4660978
20
31.5893621
40
0.7165394
50
270.0043592
51
270.7598031
0
ARC
8
right_labelLayer
10
69.4549002
20
31.600992
40
0.7282563
50
253.7847934
51
270.8852999
0
ARC
8
right_labelLayer
10
69.3686214
20
31.306749
40
0.4216258
50
190.3817637
51
253.8772577
0
ARC
8
right_labelLayer
10
69.8083887
20
31.4256534
40
0.8764325
50
179.3550998
51
192.8477139
0
ARC
8
right_labelLayer
10
69.7723077
20
31.4437653
40
0.5614788
50
179.641765
51
189.7504923
0
ARC
8
right_labelLayer
10
69.5740873
20
31.4084114
40
0.3601367
50
189.547967
51
205.787378
0
ARC
8
right_labelLayer
10
69.4926333
20
31.37085
40
0.2704586
50
206.1293819
51
221.4082652
0
ARC
8
right_labelLayer
10
69.4834984
20
31.3639197
40
0.2590247
50
221.5949796
51
262.3505621
0
ARC
8
right_labelLayer
10
69.5052204
20
31.4756142
40
0.3726765
50
261.3264579
51
270.1913173
0
LINE
8
bottom_outsideCutPath
10
100.8
20
3.1171573
11
100.8
21
7.8
0
LINE
8
bottom_outsideCutPath
10
100.8
20
7.8
11
110
21
7.8
0
LINE
8
bottom_outsideCutPath
10
110
20
7.8
11
110
21
3.1171573
0
LINE
8
bottom_outsideCutPath
10
110
20
3.1171573
11
110.1171573
21
3
0
LINE
8
bottom_outsideCutPath
10
110.1171573
20
3
11
119.8828427
21
3
0
LINE
8
bottom_outsideCutPath
10
119.8828427
20
3
11
120
21
3.1171573
0
LINE
8
bottom_outsideCutPath
10
120
20
3.1171573
11
120
21
7.8
0
LINE
8
bottom_outsideCutPath
10
120
20
7.8
11
127.4828427
21
7.8
0
LINE
8
bottom_outsideCutPath
10
127.4828427
20
7.8
11
127.6
21
7.9171573
0
LINE
8
bottom_outsideCutPath
10
127.6
20
7.9171573
11
127.6
21
12
0
LINE
8
bottom_outsideCutPath
10
127.6
20
12
11
132.2828427
21
12
0
LINE
8
bottom_outsideCutPath
10
132.2828427
20
12
11
132.4
21
12.1171573
0
LINE
8
bottom_outsideCutPath
10
132.4
20
12.1171573
11
132.4
21
21.8828427
0
LINE
8
bottom_outsideCutPath
10
132.4
20
21.8828427
11
132.2828427
21
22
0
LINE
8
bottom_outsideCutPath
10
132.2828427
20
22
11
127.6
21
22
0
LINE
8
bottom_outsideCutPath
10
127.6
20
22
11
127.6
21
26.0828427
0
LINE
8
bottom_outsideCutPath
10
127.6
20
26.0828427
11
127.4828427
21
26.2
0
LINE
8
bottom_outsideCutPath
10
127.4828427
20
26.2
11
120
21
26.2
0
LINE
8
bottom_outsideCutPath
10
120
20
26.2
11
120
21
30.8828427
0
LINE
8
bottom_outsideCutPath
10
120
20
30.8828427
11
119.8828427
21
31
0
LINE
8
bottom_outsideCutPath
10
119.8828427
20
31
11
110.1171573
21
31
0
LINE
8
bottom_outsideCutPath
10
110.1171573
20
31
11
110
21
30.8828427
0
LINE
8
bottom_outsideCutPath
10
110
20
30.8828427
11
110
21
26.2
0
LINE
8
bottom_outsideCutPath
10
110
20
26.2
11
100.8
21
26.2
0
LINE
8
bottom_outsideCutPath
10
100.8
20
26.2
11
100.8
21
30.8828427
0
LINE
8
bottom_outsideCutPath
10
100.8
20
30.8828427
11
100.6828427
21
31
0
LINE
8
bottom_outsideCutPath
10
100.6828427
20
31
11
90.9171573
21
31
0
LINE
8
bottom_outsideCutPath
10
90.9171573
20
31
11
90.8
21
30.8828427
0
LINE
8
bottom_outsideCutPath
10
90.8
20
30.8828427
11
90.8
21
26.2
0
LINE
8
bottom_outsideCutPath
10
90.8
20
26.2
11
83.3171573
21
26.2
0
LINE
8
bottom_outsideCutPath
10
83.3171573
20
26.2
11
83.2
21
26.0828427
0
LINE
8
bottom_outsideCutPath
10
83.2
20
26.0828427
11
83.2
21
22
0
LINE
8
bottom_outsideCutPath
10
83.2
20
22
11
78.5171573
21
22
0
LINE
8
bottom_outsideCutPath
10
78.5171573
20
22
11
78.4
21
21.8828427
0
LINE
8
bottom_outsideCutPath
10
78.4
20
21.8828427
11
78.4
21
12.1171573
0
LINE
8
bottom_outsideCutPath
10
78.4
20
12.1171573
11
78.5171573
21
12
0
LINE
8
bottom_outsideCutPath
10
78.5171573
20
12
11
83.2
21
12
0
LINE
8
bottom_outsideCutPath
10
83.2
20
12
11
83.2
21
7.9171573
0
LINE
8
bottom_outsideCutPath
10
83.2
20
7.9171573
11
83.3171573
21
7.8
0
LINE
8
bottom_outsideCutPath
10
83.3171573
20
7.8
11
90.8
21
7.8
0
LINE
8
bottom_outsideCutPath
10
90.8
20
7.8
11
90.8
21
3.1171573
0
LINE
8
bottom_outsideCutPath
10
90.8
20
3.1171573
11
90.9171573
21
3
0
LINE
8
bottom_outsideCutPath
10
90.9171573
20
3
11
100.6828427
21
3
0
LINE
8
bottom_outsideCutPath
10
100.6828427
20
3
11
100.8
21
3.1171573
0
LINE
8
bottom_labelLayer
10
96.6417836
20
15.2856176
11
96.6089711
21
15.2856176
0
LINE
8
bottom_labelLayer
10
96.6089711
20
15.2856176
11
96.513268
21
14.9000707
0
LINE
8
bottom_labelLayer
10
96.513268
20
14.9000707
11
96.1878774
21
14.9000707
0
LINE
8
bottom_labelLayer
10
96.1878774
20
14.9000707
11
96.1878774
21
19.1547582
0
LINE
8
bottom_labelLayer
10
96.1878774
20
19.1547582
11
96.6417836
21
19.1547582
0
LINE
8
bottom_labelLayer
10
96.6417836
20
19.1547582
11
96.6417836
21
18.1211645
0
LINE
8
bottom_labelLayer
10
96.6199086
20
17.497727
11
96.6417836
21
17.497727
0
ARC
8
bottom_labelLayer
10
97.5960258
20
16.5589411
40
1.3872903
50
74.2393017
51
90.5624048
0
ARC
8
bottom_labelLayer
10
97.6877577
20
16.8954615
40
1.0385099
50
38.5631229
51
74.0670311
0
ARC
8
bottom_labelLayer
10
97.4516897
20
16.7119047
40
1.3375267
50
16.4709076
51
38.4075304
0
ARC
8
bottom_labelLayer
10
96.7716232
20
16.498653
40
2.0501821
50
5.1338119
51
16.7973932
0
ARC
8
bottom_labelLayer
10
95.9130656
20
16.4074479
40
2.9134904
50
359.8779681
51
5.4094024
0
ARC
8
bottom_labelLayer
10
96.1652458
20
16.3855403
40
2.6613498
50
350.6562743
51
0.3380556
0
ARC
8
bottom_labelLayer
10
97.0930244
20
16.2277355
40
1.7202676
50
335.8306288
51
350.8254638
0
ARC
8
bottom_labelLayer
10
97.5011508
20
16.0515826
40
1.2758106
50
321.3161569
51
335.5436439
0
ARC
8
bottom_labelLayer
10
97.6571767
20
15.9244453
40
1.0745534
50
274.0640009
51
321.4081125
0
ARC
8
bottom_labelLayer
10
97.5844909
20
16.3848561
40
1.5394741
50
269.922502
51
275.5481633
0
ARC
8
bottom_labelLayer
10
97.5747534
20
16.2221503
40
1.3767884
50
255.7754893
51
270.318577
0
ARC
8
bottom_labelLayer
10
97.5354566
20
16.0475762
40
1.1979203
50
245.9800896
51
255.5456815
0
ARC
8
bottom_labelLayer
10
97.4593642
20
15.8706251
40
1.0053217
50
215.5850437
51
245.836151
0
ARC
8
bottom_labelLayer
10
87.1783699
20
18.1131584
40
9.4634171
50
358.1123202
51
0.0484727
0
ARC
8
bottom_labelLayer
10
89.8120184
20
18.0247374
40
6.8282854
50
355.723895
51
358.125913
0
ARC
8
bottom_labelLayer
10
90.9041605
20
17.9503166
40
5.7336388
50
355.4725992
51
355.6517495
0
ARC
8
bottom_labelLayer
10
97.4882986
20
16.9074299
40
1.032007
50
95.1834976
51
145.1109242
0
ARC
8
bottom_labelLayer
10
97.5790069
20
16.3959388
40
1.5502294
50
89.8742757
51
96.8146067
0
ARC
8
bottom_labelLayer
10
97.5072818
20
16.2906039
40
1.2755179
50
89.573179
51
100.7324413
0
ARC
8
bottom_labelLayer
10
97.4128585
20
16.7676657
40
0.7892272
50
100.4470046
51
119.6700716
0
ARC
8
bottom_labelLayer
10
97.3252989
20
16.9313695
40
0.6036646
50
120.1403215
51
142.4248826
0
ARC
8
bottom_labelLayer
10
97.4701623
20
16.8355385
40
0.7770134
50
143.3382902
51
161.2559218
0
ARC
8
bottom_labelLayer
10
98.0759373
20
16.6204693
40
1.4197993
50
160.8926456
51
171.2334036
0
ARC
8
bottom_labelLayer
10
99.0872429
20
16.4573247
40
2.4441653
50
171.0668291
51
177.8456283
0
ARC
8
bottom_labelLayer
10
100.138934
20
16.4038388
40
3.4971513
50
177.6176836
51
180.042534
0
ARC
8
bottom_labelLayer
10
99.6429324
20
16.3895217
40
3.0011716
50
179.7762344
51
185.7075309
0
ARC
8
bottom_labelLayer
10
98.4596805
20
16.2676042
40
1.8116646
50
185.5924726
51
194.2050991
0
ARC
8
bottom_labelLayer
10
97.7016998
20
16.0708809
40
1.0285964
50
193.9430389
51
208.0218833
0
ARC
8
bottom_labelLayer
10
97.395017
20
15.9148625
40
0.6845973
50
208.5536942
51
217.5606098
0
ARC
8
bottom_labelLayer
10
97.3700328
20
15.9044705
40
0.6584944
50
218.1690471
51
253.8047427
0
ARC
8
bottom_labelLayer
10
97.4921701
20
16.28103
40
1.0542477
50
253.1382261
51
266.8483598
0
ARC
8
bottom_labelLayer
10
97.5264177
20
16.6848309
40
1.4593702
50
266.3774092
51
270.0511721
0
ARC
8
bottom_labelLayer
10
97.5374036
20
16.1302686
40
0.904859
50
269.386892
51
285.863042
0
ARC
8
bottom_labelLayer
10
97.6046296
20
15.8873051
40
0.6527749
50
286.0162485
51
326.8497738
0
ARC
8
bottom_labelLayer
10
97.2801669
20
16.1022513
40
1.0419714
50
326.7104554
51
343.6661591
0
ARC
8
bottom_labelLayer
10
96.6728087
20
16.287842
40
1.6770262
50
343.4170727
51
353.6369792
0
ARC
8
bottom_labelLayer
10
95.7553907
20
16.3967001
40
2.6008653
50
353.4935168
51
0.2205445
0
ARC
8
bottom_labelLayer
10
95.6745447
20
16.4175647
40
2.681714
50
359.7681146
51
6.3095666
0
ARC
8
bottom_labelLayer
10
96.6846761
20
16.5334842
40
1.6649672
50
6.164909
51
16.0396058
0
ARC
8
bottom_labelLayer
10
97.335416
20
16.7252566
40
0.9865833
50
15.7778992
51
32.0151755
0
ARC
8
bottom_labelLayer
10
97.5384713
20
16.841554
40
0.7528111
50
32.7031488
51
35.5246231
0
ARC
8
bottom_labelLayer
10
97.6125445
20
16.894208
40
0.6619308
50
35.540825
51
79.8011421
0
ARC
8
bottom_labelLayer
10
97.5236545
20
16.5163192
40
1.0497895
50
78.6781423
51
90.3750028
0
ARC
8
bottom_labelLayer
10
99.8616674
20
16.3854373
40
2.3446226
50
349.1762191
51
0.3862389
0
ARC
8
bottom_labelLayer
10
100.6510526
20
16.2280734
40
1.5397428
50
330.2507074
51
349.4116334
0
ARC
8
bottom_labelLayer
10
100.8939853
20
16.1018071
40
1.2662205
50
318.143937
51
329.7566
0
ARC
8
bottom_labelLayer
10
100.9378283
20
16.066671
40
1.2101243
50
278.8959374
51
317.9978906
0
ARC
8
bottom_labelLayer
10
100.8248571
20
16.6079212
40
1.7625547
50
269.7502517
51
279.8033554
0
ARC
8
bottom_labelLayer
10
100.8065346
20
16.3029702
40
1.4576258
50
253.5437325
51
270.4182205
0
ARC
8
bottom_labelLayer
10
100.758016
20
16.1152793
40
1.2638962
50
238.8115938
51
253.2427865
0
ARC
8
bottom_labelLayer
10
100.7423541
20
16.0837817
40
1.2288439
50
207.7947116
51
238.6757802
0
ARC
8
bottom_labelLayer
10
100.9671148
20
16.2214301
40
1.4919553
50
205.6560588
51
208.4460447
0
ARC
8
bottom_labelLayer
10
101.1401262
20
16.293514
40
1.6791487
50
188.9102219
51
205.3171821
0
ARC
8
bottom_labelLayer
10
101.7234074
20
16.3923046
40
2.2707039
50
179.7744687
51
189.0933075
0
ARC
8
bottom_labelLayer
10
101.8094539
20
16.4172056
40
2.3567869
50
169.2442927
51
180.3880794
0
ARC
8
bottom_labelLayer
10
101.009108
20
16.5754053
40
1.5409899
50
150.7111471
51
169.4695479
0
ARC
8
bottom_labelLayer
10
100.7536069
20
16.7066163
40
1.2540053
50
138.175926
51
150.228797
0
ARC
8
bottom_labelLayer
10
100.7111132
20
16.7392251
40
1.2006008
50
99.1759378
51
137.9832779
0
ARC
8
bottom_labelLayer
10
100.8280884
20
16.1887317
40
1.7629208
50
89.732634
51
100.0760112
0
ARC
8
bottom_labelLayer
10
100.8514669
20
16.4264626
40
1.525246
50
73.5223105
51
90.5691963
0
ARC
8
bottom_labelLayer
10
100.9409142
20
16.7514502
40
1.1882517
50
41.1445856
51
73.2134004
0
ARC
8
bottom_labelLayer
10
100.7701663
20
16.6046959
40
1.4133933
50
13.5014544
51
41.0703208
0
ARC
8
bottom_labelLayer
10
100.1104824
20
16.4320674
40
2.0951955
50
1.1277539
51
13.8799657
0
ARC
8
bottom_labelLayer
10
99.5415895
20
16.4016119
40
2.6646472
50
359.9920601
51
1.5417356
0
ARC
8
bottom_labelLayer
10
102.2215754
20
16.3894454
40
2.2985721
50
179.7059327
51
187.9160495
0
ARC
8
bottom_labelLayer
10
101.3785381
20
16.2683457
40
1.446895
50
187.7639512
51
200.0976501
0
ARC
8
bottom_labelLayer
10
100.914096
20
16.0981741
40
0.952259
50
200.0845695
51
216.9132345
0
ARC
8
bottom_labelLayer
10
100.7445079
20
15.9770793
40
0.7439525
50
217.30098
51
261.7098822
0
ARC
8
bottom_labelLayer
10
100.8232385
20
16.3527793
40
1.1273283
50
260.5033541
51
270.2476817
0
ARC
8
bottom_labelLayer
10
100.8382652
20
16.2797224
40
1.0543099
50
269.4482058
51
284.7255774
0
ARC
8
bottom_labelLayer
10
100.9217291
20
15.9701818
40
0.7337236
50
284.5662442
51
322.6333874
0
ARC
8
bottom_labelLayer
10
100.7265857
20
16.1111638
40
0.9744023
50
323.0089472
51
342.6390229
0
ARC
8
bottom_labelLayer
10
100.1684368
20
16.2935821
40
1.5615743
50
342.3615835
51
353.7537387
0
ARC
8
bottom_labelLayer
10
99.3449914
20
16.3928359
40
2.3909474
50
353.5363384
51
0.2014553
0
ARC
8
bottom_labelLayer
10
99.4711703
20
16.4128034
40
2.2647835
50
359.7075273
51
7.8972932
0
ARC
8
bottom_labelLayer
10
100.3005925
20
16.5317104
40
1.426895
50
7.743964
51
20.0690431
0
ARC
8
bottom_labelLayer
10
100.762774
20
16.7013133
40
0.9345779
50
20.0257649
51
37.4349959
0
ARC
8
bottom_labelLayer
10
100.9161309
20
16.8101319
40
0.7466904
50
37.9577839
51
80.400597
0
ARC
8
bottom_labelLayer
10
100.8289875
20
16.4213063
40
1.1447976
50
79.3453413
51
90.317535
0
ARC
8
bottom_labelLayer
10
100.8128504
20
16.485889
40
1.0802418
50
89.4805948
51
103.8805347
0
ARC
8
bottom_labelLayer
10
100.7220813
20
16.8315332
40
0.7229345
50
103.4684897
51
142.3119082
0
ARC
8
bottom_labelLayer
10
100.8985455
20
16.7074308
40
0.9385008
50
142.9025864
51
162.3749122
0
ARC
8
bottom_labelLayer
10
101.4545645
20
16.5221395
40
1.5245453
50
162.0653103
51
173.1675385
0
ARC
8
bottom_labelLayer
10
102.3215664
20
16.4115584
40
2.3985548
50
173.0086461
51
180.2464191
0
LINE
8
bottom_labelLayer
10
104.3800649
20
15.2746801
11
104.3800649
21
14.9274145
0
LINE
8
bottom_labelLayer
10
103.0347524
20
15.7613989
11
103.0347524
21
17.5442114
0
LINE
8
bottom_labelLayer
10
103.0347524
20
17.5442114
11
102.6054555
21
17.5442114
0
LINE
8
bottom_labelLayer
10
102.6054555
20
17.5442114
11
102.6054555
21
17.7629614
0
LINE
8
bottom_labelLayer
10
102.6054555
20
17.7629614
11
103.0347524
21
17.9516332
0
LINE
8
bottom_labelLayer
10
103.0347524
20
17.9516332
11
103.2261586
21
18.591477
0
LINE
8
bottom_labelLayer
10
103.2261586
20
18.591477
11
103.4886586
21
18.591477
0
LINE
8
bottom_labelLayer
10
103.4886586
20
18.591477
11
103.4886586
21
17.8969457
0
LINE
8
bottom_labelLayer
10
103.4886586
20
17.8969457
11
104.3581899
21
17.8969457
0
LINE
8
bottom_labelLayer
10
104.3581899
20
17.8969457
11
104.3581899
21
17.5442114
0
LINE
8
bottom_labelLayer
10
104.3581899
20
17.5442114
11
103.4886586
21
17.5442114
0
LINE
8
bottom_labelLayer
10
103.4886586
20
17.5442114
11
103.4886586
21
15.7805395
0
ARC
8
bottom_labelLayer
10
103.9730228
20
16.7106787
40
1.4906893
50
269.880302
51
278.3027852
0
ARC
8
bottom_labelLayer
10
103.9865536
20
16.5990517
40
1.3782809
50
278.4162909
51
279.0069955
0
ARC
8
bottom_labelLayer
10
103.8199973
20
17.6629682
40
2.4551546
50
278.9589465
51
280.5105777
0
ARC
8
bottom_labelLayer
10
103.9793504
20
16.8079647
40
1.5854284
50
280.4848405
51
282.6268881
0
ARC
8
bottom_labelLayer
10
104.1192024
20
16.1866733
40
0.9485919
50
282.5873572
51
285.5798268
0
ARC
8
bottom_labelLayer
10
104.1894991
20
15.928144
40
0.6806836
50
285.7247889
51
286.2579551
0
ARC
8
bottom_labelLayer
10
104.1892286
20
15.3310441
40
0.4464699
50
287.9888912
51
295.3048036
0
ARC
8
bottom_labelLayer
10
104.0815444
20
15.6568371
40
0.7895954
50
283.3070337
51
288.1198476
0
ARC
8
bottom_labelLayer
10
103.9678011
20
16.1312802
40
1.2774809
50
280.0070443
51
283.3737356
0
ARC
8
bottom_labelLayer
10
103.8918771
20
16.543183
40
1.6963132
50
279.1861893
51
280.1148881
0
ARC
8
bottom_labelLayer
10
103.8449476
20
16.8102181
40
1.967419
50
275.5260908
51
279.2938636
0
ARC
8
bottom_labelLayer
10
103.8976028
20
16.2602858
40
1.414972
50
270.8933036
51
275.5482558
0
ARC
8
bottom_labelLayer
10
103.9042197
20
16.0099131
40
1.1645297
50
270.0031428
51
270.7598385
0
ARC
8
bottom_labelLayer
10
103.8859677
20
16.0307777
40
1.185536
50
253.7847589
51
270.8852262
0
ARC
8
bottom_labelLayer
10
103.7455126
20
15.551775
40
0.6863678
50
190.3817751
51
253.8772404
0
ARC
8
bottom_labelLayer
10
104.4614064
20
15.7453395
40
1.4267443
50
179.355067
51
192.8477407
0
ARC
8
bottom_labelLayer
10
104.4026664
20
15.774823
40
0.9140256
50
179.6416582
51
189.7504933
0
ARC
8
bottom_labelLayer
10
104.0799967
20
15.717273
40
0.5862741
50
189.5479977
51
205.7872687
0
ARC
8
bottom_labelLayer
10
103.9473917
20
15.6561259
40
0.4402814
50
206.1294664
51
221.4083504
0
ARC
8
bottom_labelLayer
10
103.9325218
20
15.6448436
40
0.4216686
50
221.5949638
51
262.3505146
0
ARC
8
bottom_labelLayer
10
103.9678816
20
15.8266785
40
0.6066891
50
261.3266682
51
270.1914318
0
LINE
8
bottom_labelLayer
10
106.357018
20
15.2746801
11
106.357018
21
14.9274145
0
LINE
8
bottom_labelLayer
10
105.0117055
20
15.7613989
11
105.0117055
21
17.5442114
0
LINE
8
bottom_labelLayer
10
105.0117055
20
17.5442114
11
104.5824086
21
17.5442114
0
LINE
8
bottom_labelLayer
10
104.5824086
20
17.5442114
11
104.5824086
21
17.7629614
0
LINE
8
bottom_labelLayer
10
104.5824086
20
17.7629614
11
105.0117055
21
17.9516332
0
LINE
8
bottom_labelLayer
10
105.0117055
20
17.9516332
11
105.2031117
21
18.591477
0
LINE
8
bottom_labelLayer
10
105.2031117
20
18.591477
11
105.4656117
21
18.591477
0
LINE
8
bottom_labelLayer
10
105.4656117
20
18.591477
11
105.4656117
21
17.8969457
0
LINE
8
bottom_labelLayer
10
105.4656117
20
17.8969457
11
106.335143
21
17.8969457
0
LINE
8
bottom_labelLayer
10
106.335143
20
17.8969457
11
106.335143
21
17.5442114
0
LINE
8
bottom_labelLayer
10
106.335143
20
17.5442114
11
105.4656117
21
17.5442114
0
LINE
8
bottom_labelLayer
10
105.4656117
20
17.5442114
11
105.4656117
21
15.7805395
0
ARC
8
bottom_labelLayer
10
105.949976
20
16.7106787
40
1.4906893
50
269.880302
51
278.3027852
0
ARC
8
bottom_labelLayer
10
105.9635068
20
16.5990517
40
1.3782809
50
278.4162909
51
279.0069955
0
ARC
8
bottom_labelLayer
10
105.7969504
20
17.6629682
40
2.4551546
50
278.9589465
51
280.5105777
0
ARC
8
bottom_labelLayer
10
105.9563036
20
16.8079647
40
1.5854284
50
280.4848405
51
282.6268881
0
ARC
8
bottom_labelLayer
10
106.0961555
20
16.1866733
40
0.9485919
50
282.5873572
51
285.5798268
0
ARC
8
bottom_labelLayer
10
106.1664522
20
15.928144
40
0.6806836
50
285.7247889
51
286.2579551
0
ARC
8
bottom_labelLayer
10
106.1661817
20
15.3310441
40
0.4464699
50
287.9888912
51
295.3048036
0
ARC
8
bottom_labelLayer
10
106.0584975
20
15.6568371
40
0.7895954
50
283.3070337
51
288.1198476
0
ARC
8
bottom_labelLayer
10
105.9447542
20
16.1312802
40
1.2774809
50
280.0070443
51
283.3737356
0
ARC
8
bottom_labelLayer
10
105.8688302
20
16.543183
40
1.6963132
50
279.1861893
51
280.1148881
0
ARC
8
bottom_labelLayer
10
105.8219007
20
16.8102181
40
1.967419
50
275.5260908
51
279.2938636
0
ARC
8
bottom_labelLayer
10
105.874556
20
16.2602858
40
1.414972
50
270.8933036
51
275.5482558
0
ARC
8
bottom_labelLayer
10
105.8811729
20
16.0099131
40
1.1645297
50
270.0031428
51
270.7598385
0
ARC
8
bottom_labelLayer
10
105.8629208
20
16.0307777
40
1.185536
50
253.7847589
51
270.8852262
0
ARC
8
bottom_labelLayer
10
105.7224657
20
15.551775
40
0.6863678
50
190.3817751
51
253.8772404
0
ARC
8
bottom_labelLayer
10
106.4383595
20
15.7453395
40
1.4267443
50
179.355067
51
192.8477407
0
ARC
8
bottom_labelLayer
10
106.3796195
20
15.774823
40
0.9140256
50
179.6416582
51
189.7504933
0
ARC
8
bottom_labelLayer
10
106.0569499
20
15.717273
40
0.5862741
50
189.5479977
51
205.7872687
0
ARC
8
bottom_labelLayer
10
105.9243449
20
15.6561259
40
0.4402814
50
206.1294664
51
221.4083504
0
ARC
8
bottom_labelLayer
10
105.9094749
20
15.6448436
40
0.4216686
50
221.5949638
51
262.3505146
0
ARC
8
bottom_labelLayer
10
105.9448347
20
15.8266785
40
0.6066891
50
261.3266682
51
270.1914318
0
ARC
8
bottom_labelLayer
10
107.1979956
20
16.3854373
40
2.3446226
50
349.1762191
51
0.3862389
0
ARC
8
bottom_labelLayer
10
107.9873808
20
16.2280734
40
1.5397428
50
330.2507074
51
349.4116334
0
ARC
8
bottom_labelLayer
10
108.2303134
20
16.1018071
40
1.2662205
50
318.143937
51
329.7566
0
ARC
8
bottom_labelLayer
10
108.2741564
20
16.066671
40
1.2101243
50
278.8959374
51
317.9978906
0
ARC
8
bottom_labelLayer
10
108.1611852
20
16.6079212
40
1.7625547
50
269.7502517
51
279.8033554
0
ARC
8
bottom_labelLayer
10
108.1428628
20
16.3029702
40
1.4576258
50
253.5437325
51
270.4182205
0
ARC
8
bottom_labelLayer
10
108.0943441
20
16.1152793
40
1.2638962
50
238.8115938
51
253.2427865
0
ARC
8
bottom_labelLayer
10
108.0786822
20
16.0837817
40
1.2288439
50
207.7947116
51
238.6757802
0
ARC
8
bottom_labelLayer
10
108.303443
20
16.2214301
40
1.4919553
50
205.6560588
51
208.4460447
0
ARC
8
bottom_labelLayer
10
108.4764543
20
16.293514
40
1.6791487
50
188.9102219
51
205.3171821
0
ARC
8
bottom_labelLayer
10
109.0597355
20
16.3923046
40
2.2707039
50
179.7744687
51
189.0933075
0
ARC
8
bottom_labelLayer
10
109.145782
20
16.4172056
40
2.3567869
50
169.2442927
51
180.3880794
0
ARC
8
bottom_labelLayer
10
108.3454361
20
16.5754053
40
1.5409899
50
150.7111471
51
169.4695479
0
ARC
8
bottom_labelLayer
10
108.089935
20
16.7066163
40
1.2540053
50
138.175926
51
150.228797
0
ARC
8
bottom_labelLayer
10
108.0474413
20
16.7392251
40
1.2006008
50
99.1759378
51
137.9832779
0
ARC
8
bottom_labelLayer
10
108.1644165
20
16.1887317
40
1.7629208
50
89.732634
51
100.0760112
0
ARC
8
bottom_labelLayer
10
108.1877951
20
16.4264626
40
1.525246
50
73.5223105
51
90.5691963
0
ARC
8
bottom_labelLayer
10
108.2772424
20
16.7514502
40
1.1882517
50
41.1445856
51
73.2134004
0
ARC
8
bottom_labelLayer
10
108.1064944
20
16.6046959
40
1.4133933
50
13.5014544
51
41.0703208
0
ARC
8
bottom_labelLayer
10
107.4468105
20
16.4320674
40
2.0951955
50
1.1277539
51
13.8799657
0
ARC
8
bottom_labelLayer
10
106.8779176
20
16.4016119
40
2.6646472
50
359.9920601
51
1.5417356
0
ARC
8
bottom_labelLayer
10
109.5579035
20
16.3894454
40
2.2985721
50
179.7059327
51
187.9160495
0
ARC
8
bottom_labelLayer
10
108.7148662
20
16.2683457
40
1.446895
50
187.7639512
51
200.0976501
0
ARC
8
bottom_labelLayer
10
108.2504241
20
16.0981741
40
0.952259
50
200.0845695
51
216.9132345
0
ARC
8
bottom_labelLayer
10
108.080836
20
15.9770793
40
0.7439525
50
217.30098
51
261.7098822
0
ARC
8
bottom_labelLayer
10
108.1595666
20
16.3527793
40
1.1273283
50
260.5033541
51
270.2476817
0
ARC
8
bottom_labelLayer
10
108.1745934
20
16.2797224
40
1.0543099
50
269.4482058
51
284.7255774
0
ARC
8
bottom_labelLayer
10
108.2580572
20
15.9701818
40
0.7337236
50
284.5662442
51
322.6333874
0
ARC
8
bottom_labelLayer
10
108.0629138
20
16.1111638
40
0.9744023
50
323.0089472
51
342.6390229
0
ARC
8
bottom_labelLayer
10
107.5047649
20
16.2935821
40
1.5615743
50
342.3615835
51
353.7537387
0
ARC
8
bottom_labelLayer
10
106.6813195
20
16.3928359
40
2.3909474
50
353.5363384
51
0.2014553
0
ARC
8
bottom_labelLayer
10
106.8074984
20
16.4128034
40
2.2647835
50
359.7075273
51
7.8972932
0
ARC
8
bottom_labelLayer
10
107.6369207
20
16.5317104
40
1.426895
50
7.743964
51
20.0690431
0
ARC
8
bottom_labelLayer
10
108.0991022
20
16.7013133
40
0.9345779
50
20.0257649
51
37.4349959
0
ARC
8
bottom_labelLayer
10
108.2524591
20
16.8101319
40
0.7466904
50
37.9577839
51
80.400597
0
ARC
8
bottom_labelLayer
10
108.1653156
20
16.4213063
40
1.1447976
50
79.3453413
51
90.317535
0
ARC
8
bottom_labelLayer
10
108.1491785
20
16.485889
40
1.0802418
50
89.4805948
51
103.8805347
0
ARC
8
bottom_labelLayer
10
108.0584095
20
16.8315332
40
0.7229345
50
103.4684897
51
142.3119082
0
ARC
8
bottom_labelLayer
10
108.2348736
20
16.7074308
40
0.9385008
50
142.9025864
51
162.3749122
0
ARC
8
bottom_labelLayer
10
108.7908926
20
16.5221395
40
1.5245453
50
162.0653103
51
173.1675385
0
ARC
8
bottom_labelLayer
10
109.6578945
20
16.4115584
40
2.3985548
50
173.0086461
51
180.2464191
0
LINE
8
bottom_labelLayer
10
114.6120961
20
14.9000707
11
114.1581899
21
14.9000707
0
LINE
8
bottom_labelLayer
10
114.1581899
20
14.9000707
11
114.1581899
21
16.8496801
0
LINE
8
bottom_labelLayer
10
112.700768
20
16.5735082
11
112.700768
21
14.9000707
0
LINE
8
bottom_labelLayer
10
112.700768
20
14.9000707
11
112.2468617
21
14.9000707
0
LINE
8
bottom_labelLayer
10
112.2468617
20
14.9000707
11
112.2468617
21
16.8496801
0
LINE
8
bottom_labelLayer
10
110.7921742
20
16.4723364
11
110.7921742
21
14.9000707
0
LINE
8
bottom_labelLayer
10
110.7921742
20
14.9000707
11
110.338268
21
14.9000707
0
LINE
8
bottom_labelLayer
10
110.338268
20
14.9000707
11
110.338268
21
17.8969457
0
LINE
8
bottom_labelLayer
10
110.338268
20
17.8969457
11
110.7074086
21
17.8969457
0
LINE
8
bottom_labelLayer
10
110.7074086
20
17.8969457
11
110.7812367
21
17.4867895
0
LINE
8
bottom_labelLayer
10
110.7812367
20
17.4867895
11
110.8031117
21
17.4867895
0
LINE
8
bottom_labelLayer
10
112.6077992
20
17.4430395
11
112.6296742
21
17.4430395
0
LINE
8
bottom_labelLayer
10
114.6120961
20
16.8551489
11
114.6120961
21
14.9000707
0
ARC
8
bottom_labelLayer
10
112.8191464
20
16.8568108
40
1.3390624
50
359.6948892
51
8.1471868
0
ARC
8
bottom_labelLayer
10
113.3123704
20
16.9298042
40
0.8404755
50
7.9863971
51
20.7949493
0
ARC
8
bottom_labelLayer
10
113.585001
20
17.0342382
40
0.5485287
50
20.7071712
51
40.0216974
0
ARC
8
bottom_labelLayer
10
113.6448143
20
17.073373
40
0.4776325
50
41.0408062
51
73.1792634
0
ARC
8
bottom_labelLayer
10
113.5582674
20
16.8116065
40
0.7532775
50
72.6396432
51
86.2567236
0
ARC
8
bottom_labelLayer
10
113.5305412
20
16.5123632
40
1.0537239
50
85.814616
51
90.06838
0
ARC
8
bottom_labelLayer
10
113.5203569
20
16.3981619
40
1.1679586
50
89.5620834
51
101.2962563
0
ARC
8
bottom_labelLayer
10
113.432389
20
16.8192835
40
0.7377736
50
101.0031991
51
121.7840842
0
ARC
8
bottom_labelLayer
10
113.3655161
20
16.9386722
40
0.6010956
50
122.3597982
51
140.2883152
0
ARC
8
bottom_labelLayer
10
113.4858313
20
16.8504539
40
0.7500693
50
140.9764887
51
161.1699252
0
ARC
8
bottom_labelLayer
10
113.9391048
20
16.6891443
40
1.2311647
50
160.8731692
51
172.5272269
0
ARC
8
bottom_labelLayer
10
114.6964877
20
16.5845436
40
1.9957255
50
172.3776283
51
180.18302
0
ARC
8
bottom_labelLayer
10
115.1660655
20
16.5736167
40
2.4652974
50
179.894208
51
180.0025208
0
ARC
8
bottom_labelLayer
10
110.9078183
20
16.8568108
40
1.3390624
50
359.6948892
51
8.1471868
0
ARC
8
bottom_labelLayer
10
111.4010423
20
16.9298042
40
0.8404755
50
7.9863971
51
20.7949493
0
ARC
8
bottom_labelLayer
10
111.6736729
20
17.0342382
40
0.5485287
50
20.7071712
51
40.0216974
0
ARC
8
bottom_labelLayer
10
111.7347291
20
17.0742312
40
0.4761316
50
41.061122
51
72.899322
0
ARC
8
bottom_labelLayer
10
111.6465456
20
16.8117022
40
0.7530179
50
72.3600194
51
85.9561921
0
ARC
8
bottom_labelLayer
10
111.6166955
20
16.5032342
40
1.0628532
50
85.5236942
51
90.0794826
0
ARC
8
bottom_labelLayer
10
111.606511
20
16.4387412
40
1.1273789
50
89.5573291
51
101.4831571
0
ARC
8
bottom_labelLayer
10
111.5199793
20
16.8441626
40
0.7128575
50
101.1545509
51
123.0656283
0
ARC
8
bottom_labelLayer
10
111.4611622
20
16.9466169
40
0.5949422
50
123.7019844
51
142.3021548
0
ARC
8
bottom_labelLayer
10
111.598944
20
16.8531449
40
0.7611889
50
143.0770055
51
161.3913338
0
ARC
8
bottom_labelLayer
10
112.1543087
20
16.6570024
40
1.3501366
50
161.0234124
51
171.4469356
0
ARC
8
bottom_labelLayer
10
113.0737308
20
16.5129784
40
2.2807604
50
171.3042228
51
178.350181
0
ARC
8
bottom_labelLayer
10
113.9522778
20
16.4737329
40
3.160104
50
178.0975212
51
180.0253198
0
ARC
8
bottom_labelLayer
10
111.5720895
20
17.0345927
40
0.8920811
50
117.1209235
51
149.542374
0
ARC
8
bottom_labelLayer
10
111.6631346
20
16.8727718
40
1.0776386
50
93.8343109
51
117.5071959
0
ARC
8
bottom_labelLayer
10
111.6882839
20
16.649994
40
1.3016395
50
89.9663118
51
94.283106
0
ARC
8
bottom_labelLayer
10
111.7033491
20
16.4656183
40
1.4860837
50
77.5571887
51
90.5513361
0
ARC
8
bottom_labelLayer
10
111.8412413
20
17.0587143
40
0.8772346
50
52.7026874
51
78.0053778
0
ARC
8
bottom_labelLayer
10
111.8903699
20
17.150119
40
0.7749241
50
22.2097906
51
51.497055
0
ARC
8
bottom_labelLayer
10
113.451945
20
16.9717942
40
0.9477349
50
119.4041661
51
150.1828776
0
ARC
8
bottom_labelLayer
10
113.5567955
20
16.8124247
40
1.1381277
50
118.2581044
51
120.0635725
0
ARC
8
bottom_labelLayer
10
113.5567537
20
16.8002728
40
1.1488261
50
95.8634936
51
117.9693329
0
ARC
8
bottom_labelLayer
10
113.5956352
20
16.5191114
40
1.4325231
50
89.9196943
51
96.261661
0
ARC
8
bottom_labelLayer
10
113.6081165
20
16.3738568
40
1.5778112
50
79.9361163
51
90.3803319
0
ARC
8
bottom_labelLayer
10
113.7132504
20
16.9432487
40
0.9988167
50
62.972297
51
80.1665628
0
ARC
8
bottom_labelLayer
10
113.8231467
20
17.1687145
40
0.7480493
50
44.2290797
51
62.6228554
0
ARC
8
bottom_labelLayer
10
113.7904597
20
17.1542772
40
0.781641
50
19.5612495
51
43.3160637
0
ARC
8
bottom_labelLayer
10
113.3157421
20
16.9759726
40
1.2886908
50
7.5041977
51
19.9645692
0
ARC
8
bottom_labelLayer
10
112.5301812
20
16.8656582
40
2.0819415
50
359.7107795
51
7.6906836
0
ENDSEC
0
EOF